<svg width="117" height="137" viewBox="0 0 117 137" fill="none" xmlns="http://www.w3.org/2000/svg">
<rect width="117" height="98" fill="#BA2128"/>
<path d="M3.41625 35C3.29892 35 3.20825 34.968 3.14425 34.904C3.08025 34.8293 3.04825 34.7387 3.04825 34.632V24.184C3.04825 24.0667 3.08025 23.976 3.14425 23.912C3.20825 23.8373 3.29892 23.8 3.41625 23.8H4.15225C4.28025 23.8 4.37625 23.832 4.44025 23.896C4.50425 23.9493 4.54158 23.992 4.55225 24.024L9.86425 32.184V24.184C9.86425 24.0667 9.89625 23.976 9.96025 23.912C10.0243 23.8373 10.1149 23.8 10.2323 23.8H11.0003C11.1176 23.8 11.2083 23.8373 11.2723 23.912C11.3469 23.976 11.3843 24.0667 11.3843 24.184V34.616C11.3843 34.7227 11.3469 34.8133 11.2723 34.888C11.2083 34.9627 11.1229 35 11.0163 35H10.2483C10.1309 35 10.0403 34.968 9.97625 34.904C9.92292 34.84 9.88558 34.7973 9.86425 34.776L4.56825 26.696V34.632C4.56825 34.7387 4.53092 34.8293 4.45625 34.904C4.39225 34.968 4.30158 35 4.18425 35H3.41625ZM16.2696 35.16C15.7363 35.16 15.251 35.0533 14.8136 34.84C14.3763 34.6267 14.0243 34.3387 13.7576 33.976C13.491 33.6133 13.3576 33.2027 13.3576 32.744C13.3576 32.008 13.6563 31.4213 14.2536 30.984C14.851 30.5467 15.6296 30.2587 16.5896 30.12L18.9736 29.784V29.32C18.9736 28.808 18.8243 28.408 18.5256 28.12C18.2376 27.832 17.763 27.688 17.1016 27.688C16.6216 27.688 16.2323 27.784 15.9336 27.976C15.6456 28.168 15.443 28.4133 15.3256 28.712C15.2616 28.872 15.1496 28.952 14.9896 28.952H14.2696C14.1523 28.952 14.0616 28.92 13.9976 28.856C13.9443 28.7813 13.9176 28.696 13.9176 28.6C13.9176 28.44 13.9763 28.2427 14.0936 28.008C14.2216 27.7733 14.4136 27.544 14.6696 27.32C14.9256 27.096 15.251 26.9093 15.6456 26.76C16.051 26.6 16.5416 26.52 17.1176 26.52C17.7576 26.52 18.2963 26.6053 18.7336 26.776C19.171 26.936 19.5123 27.1547 19.7576 27.432C20.0136 27.7093 20.195 28.024 20.3016 28.376C20.419 28.728 20.4776 29.0853 20.4776 29.448V34.632C20.4776 34.7387 20.4403 34.8293 20.3656 34.904C20.3016 34.968 20.2163 35 20.1096 35H19.3736C19.2563 35 19.1656 34.968 19.1016 34.904C19.0376 34.8293 19.0056 34.7387 19.0056 34.632V33.944C18.867 34.136 18.6803 34.328 18.4456 34.52C18.211 34.7013 17.9176 34.856 17.5656 34.984C17.2136 35.1013 16.7816 35.16 16.2696 35.16ZM16.6056 33.96C17.043 33.96 17.443 33.8693 17.8056 33.688C18.1683 33.496 18.451 33.2027 18.6536 32.808C18.867 32.4133 18.9736 31.9173 18.9736 31.32V30.872L17.1176 31.144C16.3603 31.2507 15.7896 31.432 15.4056 31.688C15.0216 31.9333 14.8296 32.248 14.8296 32.632C14.8296 32.9307 14.915 33.1813 15.0856 33.384C15.267 33.576 15.491 33.72 15.7576 33.816C16.035 33.912 16.3176 33.96 16.6056 33.96ZM25.9476 35C25.3503 35 24.865 34.888 24.4916 34.664C24.1183 34.4293 23.8463 34.104 23.6756 33.688C23.505 33.2613 23.4196 32.76 23.4196 32.184V27.96H22.1716C22.065 27.96 21.9743 27.928 21.8996 27.864C21.8356 27.7893 21.8036 27.6987 21.8036 27.592V27.048C21.8036 26.9413 21.8356 26.856 21.8996 26.792C21.9743 26.7173 22.065 26.68 22.1716 26.68H23.4196V24.008C23.4196 23.9013 23.4516 23.816 23.5156 23.752C23.5903 23.6773 23.681 23.64 23.7876 23.64H24.5396C24.6463 23.64 24.7316 23.6773 24.7956 23.752C24.8703 23.816 24.9076 23.9013 24.9076 24.008V26.68H26.8916C26.9983 26.68 27.0836 26.7173 27.1476 26.792C27.2223 26.856 27.2596 26.9413 27.2596 27.048V27.592C27.2596 27.6987 27.2223 27.7893 27.1476 27.864C27.0836 27.928 26.9983 27.96 26.8916 27.96H24.9076V32.072C24.9076 32.5733 24.993 32.968 25.1636 33.256C25.3343 33.544 25.6383 33.688 26.0756 33.688H27.0516C27.1583 33.688 27.2436 33.7253 27.3076 33.8C27.3823 33.864 27.4196 33.9493 27.4196 34.056V34.632C27.4196 34.7387 27.3823 34.8293 27.3076 34.904C27.2436 34.968 27.1583 35 27.0516 35H25.9476ZM32.0536 35.16C31.371 35.16 30.7896 35.0107 30.3096 34.712C29.8403 34.4027 29.483 33.976 29.2376 33.432C28.9923 32.888 28.8696 32.264 28.8696 31.56V27.048C28.8696 26.9413 28.9016 26.856 28.9656 26.792C29.0403 26.7173 29.131 26.68 29.2376 26.68H30.0376C30.1443 26.68 30.2296 26.7173 30.2936 26.792C30.3683 26.856 30.4056 26.9413 30.4056 27.048V31.48C30.4056 33.0693 31.099 33.864 32.4856 33.864C33.147 33.864 33.675 33.656 34.0696 33.24C34.475 32.8133 34.6776 32.2267 34.6776 31.48V27.048C34.6776 26.9413 34.7096 26.856 34.7736 26.792C34.8483 26.7173 34.939 26.68 35.0456 26.68H35.8296C35.947 26.68 36.0376 26.7173 36.1016 26.792C36.1656 26.856 36.1976 26.9413 36.1976 27.048V34.632C36.1976 34.7387 36.1656 34.8293 36.1016 34.904C36.0376 34.968 35.947 35 35.8296 35H35.0936C34.987 35 34.8963 34.968 34.8216 34.904C34.7576 34.8293 34.7256 34.7387 34.7256 34.632V33.928C34.4376 34.3013 34.0856 34.6 33.6696 34.824C33.2643 35.048 32.7256 35.16 32.0536 35.16ZM38.9426 35C38.836 35 38.7453 34.968 38.6706 34.904C38.6066 34.8293 38.5746 34.7387 38.5746 34.632V27.064C38.5746 26.9573 38.6066 26.8667 38.6706 26.792C38.7453 26.7173 38.836 26.68 38.9426 26.68H39.6786C39.7853 26.68 39.876 26.7173 39.9506 26.792C40.0253 26.8667 40.0626 26.9573 40.0626 27.064V27.768C40.276 27.4053 40.5693 27.1333 40.9426 26.952C41.316 26.7707 41.764 26.68 42.2866 26.68H42.9266C43.0333 26.68 43.1186 26.7173 43.1826 26.792C43.2466 26.856 43.2786 26.9413 43.2786 27.048V27.704C43.2786 27.8107 43.2466 27.896 43.1826 27.96C43.1186 28.024 43.0333 28.056 42.9266 28.056H41.9666C41.3906 28.056 40.9373 28.2267 40.6066 28.568C40.276 28.8987 40.1106 29.352 40.1106 29.928V34.632C40.1106 34.7387 40.0733 34.8293 39.9986 34.904C39.924 34.968 39.8333 35 39.7266 35H38.9426ZM46.8478 35.16C46.3144 35.16 45.8291 35.0533 45.3918 34.84C44.9544 34.6267 44.6024 34.3387 44.3358 33.976C44.0691 33.6133 43.9358 33.2027 43.9358 32.744C43.9358 32.008 44.2344 31.4213 44.8318 30.984C45.4291 30.5467 46.2078 30.2587 47.1678 30.12L49.5518 29.784V29.32C49.5518 28.808 49.4024 28.408 49.1038 28.12C48.8158 27.832 48.3411 27.688 47.6798 27.688C47.1998 27.688 46.8104 27.784 46.5118 27.976C46.2238 28.168 46.0211 28.4133 45.9038 28.712C45.8398 28.872 45.7278 28.952 45.5678 28.952H44.8478C44.7304 28.952 44.6398 28.92 44.5758 28.856C44.5224 28.7813 44.4958 28.696 44.4958 28.6C44.4958 28.44 44.5544 28.2427 44.6718 28.008C44.7998 27.7733 44.9918 27.544 45.2478 27.32C45.5038 27.096 45.8291 26.9093 46.2238 26.76C46.6291 26.6 47.1198 26.52 47.6958 26.52C48.3358 26.52 48.8744 26.6053 49.3118 26.776C49.7491 26.936 50.0904 27.1547 50.3358 27.432C50.5918 27.7093 50.7731 28.024 50.8798 28.376C50.9971 28.728 51.0558 29.0853 51.0558 29.448V34.632C51.0558 34.7387 51.0184 34.8293 50.9438 34.904C50.8798 34.968 50.7944 35 50.6878 35H49.9518C49.8344 35 49.7438 34.968 49.6798 34.904C49.6158 34.8293 49.5838 34.7387 49.5838 34.632V33.944C49.4451 34.136 49.2584 34.328 49.0238 34.52C48.7891 34.7013 48.4958 34.856 48.1438 34.984C47.7918 35.1013 47.3598 35.16 46.8478 35.16ZM47.1838 33.96C47.6211 33.96 48.0211 33.8693 48.3838 33.688C48.7464 33.496 49.0291 33.2027 49.2318 32.808C49.4451 32.4133 49.5518 31.9173 49.5518 31.32V30.872L47.6958 31.144C46.9384 31.2507 46.3678 31.432 45.9838 31.688C45.5998 31.9333 45.4078 32.248 45.4078 32.632C45.4078 32.9307 45.4931 33.1813 45.6638 33.384C45.8451 33.576 46.0691 33.72 46.3358 33.816C46.6131 33.912 46.8958 33.96 47.1838 33.96ZM53.7399 35C53.6332 35 53.5425 34.968 53.4679 34.904C53.4039 34.8293 53.3719 34.7387 53.3719 34.632V24.008C53.3719 23.9013 53.4039 23.816 53.4679 23.752C53.5425 23.6773 53.6332 23.64 53.7399 23.64H54.4919C54.6092 23.64 54.6999 23.6773 54.7639 23.752C54.8279 23.816 54.8599 23.9013 54.8599 24.008V34.632C54.8599 34.7387 54.8279 34.8293 54.7639 34.904C54.6999 34.968 54.6092 35 54.4919 35H53.7399ZM61.7444 35C61.627 35 61.5364 34.968 61.4724 34.904C61.4084 34.8293 61.3764 34.7387 61.3764 34.632V24.184C61.3764 24.0667 61.4084 23.976 61.4724 23.912C61.5364 23.8373 61.627 23.8 61.7444 23.8H68.2724C68.3897 23.8 68.4804 23.8373 68.5444 23.912C68.6084 23.976 68.6404 24.0667 68.6404 24.184V24.824C68.6404 24.9413 68.6084 25.032 68.5444 25.096C68.4804 25.16 68.3897 25.192 68.2724 25.192H62.9284V28.92H67.9524C68.0697 28.92 68.1604 28.9573 68.2244 29.032C68.2884 29.096 68.3204 29.1867 68.3204 29.304V29.944C68.3204 30.0507 68.2884 30.1413 68.2244 30.216C68.1604 30.28 68.0697 30.312 67.9524 30.312H62.9284V34.632C62.9284 34.7387 62.891 34.8293 62.8164 34.904C62.7524 34.968 62.6617 35 62.5444 35H61.7444ZM70.8961 35C70.7895 35 70.6988 34.968 70.6241 34.904C70.5601 34.8293 70.5281 34.7387 70.5281 34.632V24.008C70.5281 23.9013 70.5601 23.816 70.6241 23.752C70.6988 23.6773 70.7895 23.64 70.8961 23.64H71.6481C71.7655 23.64 71.8561 23.6773 71.9201 23.752C71.9841 23.816 72.0161 23.9013 72.0161 24.008V34.632C72.0161 34.7387 71.9841 34.8293 71.9201 34.904C71.8561 34.968 71.7655 35 71.6481 35H70.8961ZM76.7228 35.16C76.1894 35.16 75.7041 35.0533 75.2668 34.84C74.8294 34.6267 74.4774 34.3387 74.2108 33.976C73.9441 33.6133 73.8108 33.2027 73.8108 32.744C73.8108 32.008 74.1094 31.4213 74.7068 30.984C75.3041 30.5467 76.0828 30.2587 77.0428 30.12L79.4268 29.784V29.32C79.4268 28.808 79.2774 28.408 78.9788 28.12C78.6908 27.832 78.2161 27.688 77.5548 27.688C77.0748 27.688 76.6854 27.784 76.3868 27.976C76.0988 28.168 75.8961 28.4133 75.7788 28.712C75.7148 28.872 75.6028 28.952 75.4428 28.952H74.7228C74.6054 28.952 74.5148 28.92 74.4508 28.856C74.3974 28.7813 74.3708 28.696 74.3708 28.6C74.3708 28.44 74.4294 28.2427 74.5468 28.008C74.6748 27.7733 74.8668 27.544 75.1228 27.32C75.3788 27.096 75.7041 26.9093 76.0988 26.76C76.5041 26.6 76.9948 26.52 77.5708 26.52C78.2108 26.52 78.7494 26.6053 79.1868 26.776C79.6241 26.936 79.9654 27.1547 80.2108 27.432C80.4668 27.7093 80.6481 28.024 80.7548 28.376C80.8721 28.728 80.9308 29.0853 80.9308 29.448V34.632C80.9308 34.7387 80.8934 34.8293 80.8188 34.904C80.7548 34.968 80.6694 35 80.5628 35H79.8268C79.7094 35 79.6188 34.968 79.5548 34.904C79.4908 34.8293 79.4588 34.7387 79.4588 34.632V33.944C79.3201 34.136 79.1334 34.328 78.8988 34.52C78.6641 34.7013 78.3708 34.856 78.0188 34.984C77.6668 35.1013 77.2348 35.16 76.7228 35.16ZM77.0588 33.96C77.4961 33.96 77.8961 33.8693 78.2588 33.688C78.6214 33.496 78.9041 33.2027 79.1068 32.808C79.3201 32.4133 79.4268 31.9173 79.4268 31.32V30.872L77.5708 31.144C76.8134 31.2507 76.2428 31.432 75.8588 31.688C75.4748 31.9333 75.2828 32.248 75.2828 32.632C75.2828 32.9307 75.3681 33.1813 75.5388 33.384C75.7201 33.576 75.9441 33.72 76.2108 33.816C76.4881 33.912 76.7708 33.96 77.0588 33.96ZM85.9706 35C85.8106 35 85.6826 34.9627 85.5866 34.888C85.5013 34.8133 85.432 34.7173 85.3786 34.6L82.4186 27.176C82.3973 27.1227 82.3866 27.0693 82.3866 27.016C82.3866 26.92 82.4186 26.84 82.4826 26.776C82.5466 26.712 82.6266 26.68 82.7226 26.68H83.4906C83.608 26.68 83.6986 26.712 83.7626 26.776C83.8266 26.84 83.864 26.8987 83.8746 26.952L86.3226 33.256L88.7546 26.952C88.776 26.8987 88.8133 26.84 88.8666 26.776C88.9306 26.712 89.0213 26.68 89.1386 26.68H89.9226C90.008 26.68 90.0826 26.712 90.1466 26.776C90.2213 26.84 90.2586 26.92 90.2586 27.016C90.2586 27.0693 90.248 27.1227 90.2266 27.176L87.2506 34.6C87.208 34.7173 87.1386 34.8133 87.0426 34.888C86.9573 34.9627 86.8293 35 86.6586 35H85.9706ZM95.0451 35.16C94.2345 35.16 93.5571 35.0053 93.0131 34.696C92.4691 34.3867 92.0531 33.96 91.7651 33.416C91.4771 32.8613 91.3171 32.232 91.2851 31.528C91.2745 31.3467 91.2691 31.1173 91.2691 30.84C91.2691 30.552 91.2745 30.3227 91.2851 30.152C91.3171 29.4373 91.4771 28.808 91.7651 28.264C92.0638 27.72 92.4851 27.2933 93.0291 26.984C93.5731 26.6747 94.2451 26.52 95.0451 26.52C95.8451 26.52 96.5171 26.6747 97.0611 26.984C97.6051 27.2933 98.0211 27.72 98.3091 28.264C98.6078 28.808 98.7731 29.4373 98.8051 30.152C98.8158 30.3227 98.8211 30.552 98.8211 30.84C98.8211 31.1173 98.8158 31.3467 98.8051 31.528C98.7731 32.232 98.6131 32.8613 98.3251 33.416C98.0371 33.96 97.6211 34.3867 97.0771 34.696C96.5331 35.0053 95.8558 35.16 95.0451 35.16ZM95.0451 33.928C95.7065 33.928 96.2345 33.72 96.6291 33.304C97.0238 32.8773 97.2371 32.2587 97.2691 31.448C97.2798 31.288 97.2851 31.0853 97.2851 30.84C97.2851 30.5947 97.2798 30.392 97.2691 30.232C97.2371 29.4213 97.0238 28.808 96.6291 28.392C96.2345 27.9653 95.7065 27.752 95.0451 27.752C94.3838 27.752 93.8505 27.9653 93.4451 28.392C93.0505 28.808 92.8425 29.4213 92.8211 30.232C92.8105 30.392 92.8051 30.5947 92.8051 30.84C92.8051 31.0853 92.8105 31.288 92.8211 31.448C92.8425 32.2587 93.0505 32.8773 93.4451 33.304C93.8505 33.72 94.3838 33.928 95.0451 33.928ZM103.929 35.16C103.246 35.16 102.665 35.0107 102.185 34.712C101.715 34.4027 101.358 33.976 101.113 33.432C100.867 32.888 100.745 32.264 100.745 31.56V27.048C100.745 26.9413 100.777 26.856 100.841 26.792C100.915 26.7173 101.006 26.68 101.113 26.68H101.913C102.019 26.68 102.105 26.7173 102.169 26.792C102.243 26.856 102.281 26.9413 102.281 27.048V31.48C102.281 33.0693 102.974 33.864 104.361 33.864C105.022 33.864 105.55 33.656 105.945 33.24C106.35 32.8133 106.553 32.2267 106.553 31.48V27.048C106.553 26.9413 106.585 26.856 106.649 26.792C106.723 26.7173 106.814 26.68 106.921 26.68H107.705C107.822 26.68 107.913 26.7173 107.977 26.792C108.041 26.856 108.073 26.9413 108.073 27.048V34.632C108.073 34.7387 108.041 34.8293 107.977 34.904C107.913 34.968 107.822 35 107.705 35H106.969C106.862 35 106.771 34.968 106.697 34.904C106.633 34.8293 106.601 34.7387 106.601 34.632V33.928C106.313 34.3013 105.961 34.6 105.545 34.824C105.139 35.048 104.601 35.16 103.929 35.16ZM110.818 35C110.711 35 110.62 34.968 110.546 34.904C110.482 34.8293 110.45 34.7387 110.45 34.632V27.064C110.45 26.9573 110.482 26.8667 110.546 26.792C110.62 26.7173 110.711 26.68 110.818 26.68H111.554C111.66 26.68 111.751 26.7173 111.826 26.792C111.9 26.8667 111.938 26.9573 111.938 27.064V27.768C112.151 27.4053 112.444 27.1333 112.818 26.952C113.191 26.7707 113.639 26.68 114.162 26.68H114.802C114.908 26.68 114.994 26.7173 115.058 26.792C115.122 26.856 115.154 26.9413 115.154 27.048V27.704C115.154 27.8107 115.122 27.896 115.058 27.96C114.994 28.024 114.908 28.056 114.802 28.056H113.842C113.266 28.056 112.812 28.2267 112.482 28.568C112.151 28.8987 111.986 29.352 111.986 29.928V34.632C111.986 34.7387 111.948 34.8293 111.874 34.904C111.799 34.968 111.708 35 111.602 35H110.818Z" fill="white"/>
<path d="M31.0347 72C30.8747 72 30.7307 71.944 30.6027 71.832C30.4907 71.72 30.4347 71.576 30.4347 71.4V59.472L26.9787 62.136C26.8347 62.248 26.6827 62.288 26.5227 62.256C26.3787 62.224 26.2507 62.136 26.1387 61.992L24.9387 60.432C24.8427 60.288 24.8027 60.136 24.8187 59.976C24.8507 59.816 24.9387 59.688 25.0827 59.592L30.5547 55.368C30.6507 55.304 30.7387 55.264 30.8187 55.248C30.9147 55.216 31.0187 55.2 31.1307 55.2H33.6747C33.8347 55.2 33.9707 55.256 34.0827 55.368C34.1947 55.48 34.2507 55.624 34.2507 55.8V71.4C34.2507 71.576 34.1947 71.72 34.0827 71.832C33.9707 71.944 33.8347 72 33.6747 72H31.0347ZM43.8631 72.24C42.7431 72.24 41.7511 72.112 40.8871 71.856C40.0391 71.584 39.3271 71.216 38.7511 70.752C38.1751 70.272 37.7431 69.72 37.4551 69.096C37.1671 68.456 37.0231 67.76 37.0231 67.008C37.0231 66.096 37.2471 65.304 37.6951 64.632C38.1431 63.96 38.7111 63.44 39.3991 63.072C38.8391 62.704 38.3991 62.24 38.0791 61.68C37.7751 61.104 37.6231 60.44 37.6231 59.688C37.6231 58.776 37.8551 57.968 38.3191 57.264C38.7831 56.56 39.4711 56 40.3831 55.584C41.3111 55.168 42.4711 54.96 43.8631 54.96C45.2391 54.96 46.3831 55.168 47.2951 55.584C48.2071 55.984 48.8951 56.536 49.3591 57.24C49.8231 57.944 50.0551 58.752 50.0551 59.664C50.0551 60.416 49.9031 61.08 49.5991 61.656C49.2951 62.232 48.8631 62.704 48.3031 63.072C49.0391 63.424 49.6231 63.944 50.0551 64.632C50.4871 65.32 50.7031 66.12 50.7031 67.032C50.7031 68.024 50.4471 68.912 49.9351 69.696C49.4231 70.48 48.6551 71.104 47.6311 71.568C46.6071 72.016 45.3511 72.24 43.8631 72.24ZM43.8631 69.48C44.4231 69.48 44.9351 69.384 45.3991 69.192C45.8631 68.984 46.2231 68.696 46.4791 68.328C46.7511 67.96 46.8871 67.528 46.8871 67.032C46.8871 66.52 46.7511 66.088 46.4791 65.736C46.2231 65.368 45.8631 65.088 45.3991 64.896C44.9351 64.688 44.4231 64.584 43.8631 64.584C43.2871 64.584 42.7671 64.688 42.3031 64.896C41.8551 65.088 41.4951 65.368 41.2231 65.736C40.9511 66.088 40.8151 66.52 40.8151 67.032C40.8151 67.528 40.9511 67.96 41.2231 68.328C41.4951 68.696 41.8551 68.984 42.3031 69.192C42.7671 69.384 43.2871 69.48 43.8631 69.48ZM43.8631 61.968C44.3591 61.952 44.8071 61.856 45.2071 61.68C45.6071 61.504 45.9271 61.264 46.1671 60.96C46.4071 60.64 46.5271 60.272 46.5271 59.856C46.5271 59.424 46.4071 59.056 46.1671 58.752C45.9431 58.432 45.6311 58.184 45.2311 58.008C44.8311 57.832 44.3751 57.744 43.8631 57.744C43.3511 57.744 42.8871 57.832 42.4711 58.008C42.0711 58.184 41.7591 58.432 41.5351 58.752C41.3111 59.056 41.1991 59.424 41.1991 59.856C41.1991 60.288 41.3111 60.664 41.5351 60.984C41.7591 61.288 42.0711 61.528 42.4711 61.704C42.8871 61.88 43.3511 61.968 43.8631 61.968ZM59.3675 72.264C57.9275 72.264 56.7195 72.032 55.7435 71.568C54.7675 71.104 54.0235 70.496 53.5115 69.744C53.0155 68.992 52.7515 68.192 52.7195 67.344C52.7195 67.2 52.7675 67.08 52.8635 66.984C52.9595 66.888 53.0795 66.84 53.2235 66.84H55.9355C56.1275 66.84 56.2795 66.888 56.3915 66.984C56.5195 67.064 56.6155 67.176 56.6795 67.32C56.8395 67.752 57.0475 68.104 57.3035 68.376C57.5755 68.648 57.8875 68.848 58.2395 68.976C58.5915 69.104 58.9675 69.168 59.3675 69.168C59.8795 69.168 60.3515 69.064 60.7835 68.856C61.2155 68.632 61.5595 68.312 61.8155 67.896C62.0715 67.48 62.1995 66.968 62.1995 66.36C62.1995 65.832 62.0795 65.368 61.8395 64.968C61.5995 64.568 61.2635 64.256 60.8315 64.032C60.3995 63.808 59.9115 63.696 59.3675 63.696C58.9515 63.696 58.6075 63.744 58.3355 63.84C58.0795 63.936 57.8635 64.056 57.6875 64.2C57.5115 64.328 57.3515 64.448 57.2075 64.56C57.0635 64.656 56.9035 64.704 56.7275 64.704H54.0635C53.9195 64.704 53.7915 64.656 53.6795 64.56C53.5835 64.448 53.5355 64.32 53.5355 64.176L54.3755 55.896C54.4075 55.672 54.4875 55.504 54.6155 55.392C54.7595 55.264 54.9275 55.2 55.1195 55.2H64.4315C64.6075 55.2 64.7515 55.256 64.8635 55.368C64.9755 55.48 65.0315 55.624 65.0315 55.8V57.72C65.0315 57.88 64.9755 58.016 64.8635 58.128C64.7515 58.24 64.6075 58.296 64.4315 58.296H57.4955L57.1355 61.824C57.4555 61.616 57.8475 61.432 58.3115 61.272C58.7915 61.096 59.4555 61.008 60.3035 61.008C61.0715 61.008 61.7995 61.136 62.4875 61.392C63.1915 61.632 63.8155 61.992 64.3595 62.472C64.9035 62.952 65.3275 63.528 65.6315 64.2C65.9515 64.856 66.1115 65.608 66.1115 66.456C66.1115 67.608 65.8395 68.624 65.2955 69.504C64.7515 70.368 63.9755 71.048 62.9675 71.544C61.9595 72.024 60.7595 72.264 59.3675 72.264ZM84.9813 77.28C83.7973 77.28 82.8133 77.12 82.0293 76.8C81.2453 76.496 80.6213 76.12 80.1573 75.672C79.7093 75.24 79.3893 74.808 79.1973 74.376C79.0053 73.944 78.9013 73.608 78.8853 73.368C78.8693 73.192 78.9253 73.048 79.0533 72.936C79.1813 72.824 79.3253 72.768 79.4853 72.768H82.0533C82.1973 72.768 82.3173 72.8 82.4133 72.864C82.5253 72.944 82.6133 73.072 82.6773 73.248C82.7573 73.44 82.8693 73.64 83.0133 73.848C83.1573 74.072 83.3733 74.256 83.6613 74.4C83.9653 74.544 84.3653 74.616 84.8613 74.616C85.4213 74.616 85.8853 74.536 86.2533 74.376C86.6213 74.216 86.8933 73.944 87.0693 73.56C87.2613 73.176 87.3573 72.656 87.3573 72V70.392C86.9733 70.808 86.4853 71.152 85.8933 71.424C85.3173 71.696 84.6053 71.832 83.7573 71.832C82.9253 71.832 82.1893 71.704 81.5493 71.448C80.9253 71.176 80.4053 70.8 79.9893 70.32C79.5733 69.824 79.2533 69.232 79.0293 68.544C78.8053 67.856 78.6773 67.08 78.6453 66.216C78.6293 65.784 78.6293 65.36 78.6453 64.944C78.6773 64.112 78.8053 63.352 79.0293 62.664C79.2533 61.976 79.5733 61.384 79.9893 60.888C80.4053 60.376 80.9253 59.984 81.5493 59.712C82.1893 59.424 82.9253 59.28 83.7573 59.28C84.6373 59.28 85.3893 59.448 86.0133 59.784C86.6373 60.12 87.1493 60.536 87.5493 61.032V60.12C87.5493 59.96 87.6053 59.824 87.7173 59.712C87.8293 59.584 87.9653 59.52 88.1253 59.52H90.4773C90.6373 59.52 90.7733 59.584 90.8853 59.712C91.0133 59.824 91.0773 59.96 91.0773 60.12L91.1013 71.664C91.1013 72.864 90.8693 73.88 90.4053 74.712C89.9413 75.544 89.2533 76.176 88.3413 76.608C87.4453 77.056 86.3253 77.28 84.9813 77.28ZM84.8613 69.024C85.4373 69.024 85.9013 68.896 86.2533 68.64C86.6213 68.368 86.8933 68.032 87.0693 67.632C87.2453 67.216 87.3413 66.784 87.3573 66.336C87.3733 66.16 87.3813 65.912 87.3813 65.592C87.3813 65.256 87.3733 65 87.3573 64.824C87.3413 64.376 87.2453 63.952 87.0693 63.552C86.8933 63.136 86.6213 62.8 86.2533 62.544C85.9013 62.288 85.4373 62.16 84.8613 62.16C84.2533 62.16 83.7733 62.296 83.4213 62.568C83.0693 62.824 82.8133 63.168 82.6533 63.6C82.4933 64.032 82.3973 64.504 82.3653 65.016C82.3493 65.4 82.3493 65.776 82.3653 66.144C82.3973 66.672 82.4933 67.152 82.6533 67.584C82.8133 68.016 83.0693 68.368 83.4213 68.64C83.7733 68.896 84.2533 69.024 84.8613 69.024Z" fill="white"/>
<rect width="117" height="39" transform="translate(0 98)" fill="#C4585D"/>
<path d="M38.7832 123C38.6765 123 38.5859 122.968 38.5112 122.904C38.4472 122.829 38.4152 122.739 38.4152 122.632V113.672L35.7592 115.72C35.6739 115.784 35.5832 115.811 35.4872 115.8C35.3912 115.789 35.3112 115.741 35.2472 115.656L34.8312 115.128C34.7672 115.032 34.7405 114.936 34.7512 114.84C34.7725 114.744 34.8259 114.664 34.9112 114.6L38.3992 111.912C38.4739 111.859 38.5432 111.827 38.6072 111.816C38.6712 111.805 38.7405 111.8 38.8152 111.8H39.6312C39.7379 111.8 39.8232 111.837 39.8872 111.912C39.9512 111.976 39.9832 112.061 39.9832 112.168V122.632C39.9832 122.739 39.9512 122.829 39.8872 122.904C39.8232 122.968 39.7379 123 39.6312 123H38.7832ZM45.8829 123.16C45.0403 123.16 44.3256 123.016 43.7389 122.728C43.1629 122.429 42.7203 122.045 42.4109 121.576C42.1123 121.107 41.9523 120.611 41.9309 120.088C41.9203 119.992 41.9469 119.917 42.0109 119.864C42.0749 119.811 42.1549 119.784 42.2509 119.784H43.1149C43.2109 119.784 43.2963 119.805 43.3709 119.848C43.4456 119.891 43.5043 119.981 43.5469 120.12C43.6536 120.515 43.8243 120.84 44.0589 121.096C44.3043 121.341 44.5816 121.523 44.8909 121.64C45.2109 121.747 45.5416 121.8 45.8829 121.8C46.3416 121.8 46.7576 121.709 47.1309 121.528C47.5149 121.336 47.8189 121.059 48.0429 120.696C48.2669 120.323 48.3789 119.875 48.3789 119.352C48.3789 118.872 48.2669 118.461 48.0429 118.12C47.8296 117.768 47.5309 117.501 47.1469 117.32C46.7736 117.128 46.3523 117.032 45.8829 117.032C45.5309 117.032 45.2429 117.075 45.0189 117.16C44.7949 117.245 44.6029 117.347 44.4429 117.464C44.2936 117.581 44.1549 117.683 44.0269 117.768C43.9096 117.853 43.7763 117.896 43.6269 117.896H42.7949C42.6989 117.896 42.6136 117.864 42.5389 117.8C42.4643 117.725 42.4323 117.64 42.4429 117.544L42.9549 112.2C42.9656 112.072 43.0029 111.976 43.0669 111.912C43.1416 111.837 43.2376 111.8 43.3549 111.8H48.9389C49.0456 111.8 49.1309 111.837 49.1949 111.912C49.2696 111.976 49.3069 112.061 49.3069 112.168V112.792C49.3069 112.909 49.2696 113 49.1949 113.064C49.1309 113.128 49.0456 113.16 48.9389 113.16H44.3309L44.0269 116.312C44.1763 116.216 44.4163 116.104 44.7469 115.976C45.0776 115.837 45.5309 115.768 46.1069 115.768C46.6296 115.768 47.1203 115.848 47.5789 116.008C48.0483 116.168 48.4643 116.403 48.8269 116.712C49.1896 117.021 49.4723 117.4 49.6749 117.848C49.8776 118.285 49.9789 118.792 49.9789 119.368C49.9789 120.179 49.7976 120.867 49.4349 121.432C49.0829 121.997 48.5976 122.429 47.9789 122.728C47.3709 123.016 46.6723 123.16 45.8829 123.16ZM55.7829 123.16C55.0469 123.16 54.4229 123.048 53.9109 122.824C53.4096 122.589 52.9989 122.269 52.6789 121.864C52.3589 121.459 52.1243 120.995 51.9749 120.472C51.8363 119.949 51.7563 119.395 51.7349 118.808C51.7243 118.52 51.7136 118.216 51.7029 117.896C51.7029 117.576 51.7029 117.256 51.7029 116.936C51.7136 116.605 51.7243 116.291 51.7349 115.992C51.7456 115.405 51.8256 114.851 51.9749 114.328C52.1349 113.795 52.3696 113.331 52.6789 112.936C52.9989 112.531 53.4149 112.216 53.9269 111.992C54.4389 111.757 55.0576 111.64 55.7829 111.64C56.5189 111.64 57.1376 111.757 57.6389 111.992C58.1509 112.216 58.5669 112.531 58.8869 112.936C59.2069 113.331 59.4416 113.795 59.5909 114.328C59.7509 114.851 59.8363 115.405 59.8469 115.992C59.8576 116.291 59.8629 116.605 59.8629 116.936C59.8736 117.256 59.8736 117.576 59.8629 117.896C59.8629 118.216 59.8576 118.52 59.8469 118.808C59.8363 119.395 59.7509 119.949 59.5909 120.472C59.4416 120.995 59.2069 121.459 58.8869 121.864C58.5776 122.269 58.1669 122.589 57.6549 122.824C57.1536 123.048 56.5296 123.16 55.7829 123.16ZM55.7829 121.8C56.6149 121.8 57.2283 121.528 57.6229 120.984C58.0283 120.429 58.2363 119.677 58.2469 118.728C58.2683 118.419 58.2789 118.12 58.2789 117.832C58.2789 117.533 58.2789 117.24 58.2789 116.952C58.2789 116.653 58.2683 116.36 58.2469 116.072C58.2363 115.144 58.0283 114.403 57.6229 113.848C57.2283 113.283 56.6149 113 55.7829 113C54.9616 113 54.3483 113.283 53.9429 113.848C53.5483 114.403 53.3403 115.144 53.3189 116.072C53.3189 116.36 53.3136 116.653 53.3029 116.952C53.3029 117.24 53.3029 117.533 53.3029 117.832C53.3136 118.12 53.3189 118.419 53.3189 118.728C53.3403 119.677 53.5536 120.429 53.9589 120.984C54.3643 121.528 54.9723 121.8 55.7829 121.8ZM69.3331 123.16C68.5757 123.16 67.9197 123.016 67.3651 122.728C66.8211 122.429 66.3997 122.008 66.1011 121.464C65.8024 120.909 65.6424 120.248 65.6211 119.48C65.6104 119.32 65.6051 119.107 65.6051 118.84C65.6051 118.573 65.6104 118.36 65.6211 118.2C65.6424 117.432 65.8024 116.776 66.1011 116.232C66.3997 115.677 66.8211 115.256 67.3651 114.968C67.9197 114.669 68.5757 114.52 69.3331 114.52C69.9517 114.52 70.4797 114.605 70.9171 114.776C71.3651 114.947 71.7331 115.165 72.0211 115.432C72.3091 115.699 72.5224 115.987 72.6611 116.296C72.8104 116.605 72.8904 116.899 72.9011 117.176C72.9117 117.283 72.8797 117.368 72.8051 117.432C72.7304 117.496 72.6397 117.528 72.5331 117.528H71.7651C71.6584 117.528 71.5784 117.507 71.5251 117.464C71.4717 117.411 71.4184 117.325 71.3651 117.208C71.1731 116.685 70.9117 116.317 70.5811 116.104C70.2504 115.891 69.8397 115.784 69.3491 115.784C68.7091 115.784 68.1864 115.981 67.7811 116.376C67.3864 116.771 67.1731 117.405 67.1411 118.28C67.1304 118.664 67.1304 119.037 67.1411 119.4C67.1731 120.285 67.3864 120.925 67.7811 121.32C68.1864 121.704 68.7091 121.896 69.3491 121.896C69.8397 121.896 70.2504 121.789 70.5811 121.576C70.9117 121.363 71.1731 120.995 71.3651 120.472C71.4184 120.355 71.4717 120.275 71.5251 120.232C71.5784 120.179 71.6584 120.152 71.7651 120.152H72.5331C72.6397 120.152 72.7304 120.184 72.8051 120.248C72.8797 120.312 72.9117 120.397 72.9011 120.504C72.8904 120.728 72.8424 120.957 72.7571 121.192C72.6717 121.427 72.5331 121.667 72.3411 121.912C72.1597 122.147 71.9304 122.36 71.6531 122.552C71.3757 122.733 71.0397 122.883 70.6451 123C70.2611 123.107 69.8237 123.16 69.3331 123.16ZM75.3772 123C75.2599 123 75.1692 122.968 75.1052 122.904C75.0412 122.829 75.0092 122.739 75.0092 122.632V112.168C75.0092 112.061 75.0412 111.976 75.1052 111.912C75.1692 111.837 75.2599 111.8 75.3772 111.8H76.2252C76.3319 111.8 76.4172 111.837 76.4812 111.912C76.5452 111.976 76.5772 112.061 76.5772 112.168V121.608H81.9052C82.0225 121.608 82.1132 121.645 82.1772 121.72C82.2412 121.784 82.2732 121.875 82.2732 121.992V122.632C82.2732 122.739 82.2412 122.829 82.1772 122.904C82.1132 122.968 82.0225 123 81.9052 123H75.3772Z" fill="white"/>
</svg>
