<svg width="110" height="132" viewBox="0 0 110 132" fill="none" xmlns="http://www.w3.org/2000/svg">
<rect x="0.239136" y="113.348" width="109.761" height="18.6522" fill="#C3585D"/>
<rect x="0.239136" width="109.761" height="113.348" fill="#BA2128"/>
<path d="M20.2917 40.5991C19.2204 40.5991 18.2945 40.469 17.514 40.2089C16.7334 39.9487 16.083 39.612 15.5627 39.1988C15.0576 38.7703 14.675 38.3111 14.4148 37.8214C14.1547 37.3164 14.0169 36.819 14.0016 36.3292C14.0016 36.1915 14.0475 36.0844 14.1394 36.0078C14.2465 35.916 14.3689 35.8701 14.5067 35.8701H16.5727C16.7258 35.8701 16.8559 35.9007 16.963 35.9619C17.0701 36.0231 17.162 36.1456 17.2385 36.3292C17.3762 36.7424 17.5981 37.0715 17.9042 37.3164C18.2256 37.5612 18.5929 37.7372 19.0061 37.8444C19.4194 37.9362 19.8555 37.9821 20.3147 37.9821C21.2329 37.9821 21.9599 37.7678 22.4955 37.3393C23.0465 36.8955 23.322 36.268 23.322 35.4569C23.322 34.6457 23.0694 34.0642 22.5644 33.7122C22.0594 33.3449 21.3554 33.1612 20.4524 33.1612H18.0879C17.9195 33.1612 17.7818 33.1153 17.6747 33.0235C17.5675 32.9163 17.514 32.7786 17.514 32.6103V31.6461C17.514 31.493 17.5446 31.363 17.6058 31.2558C17.6823 31.1334 17.7588 31.0339 17.8354 30.9574L21.9446 26.94H15.379C15.2107 26.94 15.0729 26.8864 14.9658 26.7793C14.874 26.6722 14.828 26.5421 14.828 26.389V24.8739C14.828 24.7056 14.874 24.5678 14.9658 24.4607C15.0729 24.3536 15.2107 24.3 15.379 24.3H25.2274C25.3957 24.3 25.5334 24.3536 25.6406 24.4607C25.7477 24.5678 25.8013 24.7056 25.8013 24.8739V26.2513C25.8013 26.389 25.7707 26.5115 25.7094 26.6186C25.6482 26.7257 25.5794 26.8176 25.5028 26.8941L21.5314 30.9804L21.8068 31.0033C22.7404 31.0798 23.5668 31.2941 24.2861 31.6461C25.0207 31.9828 25.587 32.4802 25.9849 33.1383C26.3981 33.7963 26.6047 34.6228 26.6047 35.6176C26.6047 36.6583 26.3293 37.5536 25.7783 38.3035C25.2427 39.0381 24.5004 39.6044 23.5515 40.0023C22.6027 40.4002 21.516 40.5991 20.2917 40.5991ZM34.6368 40.6221C33.3207 40.6221 32.2111 40.4078 31.3081 39.9793C30.4052 39.5355 29.7165 38.9616 29.2421 38.2576C28.7829 37.5536 28.5381 36.8037 28.5074 36.0078C28.4921 35.8701 28.5304 35.763 28.6222 35.6864C28.7294 35.5946 28.8518 35.5487 28.9895 35.5487H31.1245C31.2928 35.5487 31.4306 35.587 31.5377 35.6635C31.6601 35.7247 31.752 35.8395 31.8132 36.0078C31.9662 36.467 32.1805 36.8419 32.456 37.1327C32.7467 37.4235 33.0758 37.6377 33.4431 37.7755C33.8257 37.9132 34.2236 37.9821 34.6368 37.9821C35.1878 37.9821 35.6852 37.875 36.129 37.6607C36.5881 37.4311 36.9554 37.0944 37.2309 36.6506C37.5064 36.2068 37.6441 35.6635 37.6441 35.0207C37.6441 34.4544 37.5141 33.9647 37.2539 33.5515C36.9937 33.1383 36.6341 32.8169 36.1749 32.5873C35.7311 32.3424 35.2184 32.22 34.6368 32.22C34.2083 32.22 33.8563 32.2736 33.5808 32.3807C33.3054 32.4878 33.0681 32.6103 32.8692 32.748C32.6855 32.8857 32.5172 33.0082 32.3641 33.1153C32.2264 33.2224 32.0657 33.276 31.8821 33.276H29.7701C29.6323 33.276 29.5099 33.2301 29.4027 33.1383C29.3109 33.0311 29.265 32.9087 29.265 32.771L30.0685 24.9198C30.0838 24.7209 30.1527 24.5678 30.2751 24.4607C30.3975 24.3536 30.5429 24.3 30.7113 24.3H39.3429C39.496 24.3 39.6261 24.3536 39.7332 24.4607C39.8403 24.5678 39.8939 24.6979 39.8939 24.851V26.389C39.8939 26.5421 39.8403 26.6722 39.7332 26.7793C39.6261 26.8864 39.496 26.94 39.3429 26.94H32.7085L32.3412 30.6819C32.6167 30.4983 32.984 30.3223 33.4431 30.1539C33.9022 29.9856 34.5374 29.9014 35.3485 29.9014C36.0831 29.9014 36.7794 30.0238 37.4375 30.2687C38.1109 30.4983 38.7078 30.8426 39.2281 31.3017C39.7485 31.7456 40.1541 32.2889 40.4448 32.9317C40.7509 33.5591 40.904 34.2784 40.904 35.0896C40.904 36.2068 40.6438 37.1786 40.1234 38.005C39.6031 38.8315 38.8761 39.4743 37.9426 39.9334C37.009 40.3925 35.9071 40.6221 34.6368 40.6221ZM49.3776 40.5991C48.291 40.5991 47.3651 40.4384 46.5999 40.117C45.8347 39.7957 45.2072 39.3518 44.7174 38.7856C44.2277 38.2193 43.8604 37.5689 43.6155 36.8343C43.3707 36.0844 43.2253 35.2885 43.1794 34.4468C43.164 34.0336 43.1487 33.5821 43.1334 33.0924C43.1334 32.5873 43.1334 32.0823 43.1334 31.5772C43.1487 31.0722 43.164 30.6054 43.1794 30.1769C43.21 29.3351 43.3554 28.547 43.6155 27.8123C43.8757 27.0624 44.2507 26.412 44.7404 25.861C45.2454 25.3101 45.8806 24.8739 46.6458 24.5525C47.411 24.2311 48.3216 24.0704 49.3776 24.0704C50.4489 24.0704 51.3672 24.2311 52.1324 24.5525C52.8976 24.8739 53.5251 25.3101 54.0148 25.861C54.5199 26.412 54.8948 27.0624 55.1397 27.8123C55.3999 28.547 55.5453 29.3351 55.5759 30.1769C55.6065 30.6054 55.6218 31.0722 55.6218 31.5772C55.6218 32.0823 55.6218 32.5873 55.6218 33.0924C55.6218 33.5821 55.6065 34.0336 55.5759 34.4468C55.5453 35.2885 55.4075 36.0844 55.1627 36.8343C54.9178 37.5689 54.5505 38.2193 54.0607 38.7856C53.571 39.3518 52.9359 39.7957 52.1554 40.117C51.3901 40.4384 50.4642 40.5991 49.3776 40.5991ZM49.3776 37.9591C50.3724 37.9591 51.0994 37.6377 51.5585 36.995C52.0329 36.3369 52.2778 35.4492 52.2931 34.332C52.3237 33.8882 52.339 33.4443 52.339 33.0005C52.339 32.5414 52.339 32.0823 52.339 31.6231C52.339 31.164 52.3237 30.7278 52.2931 30.3146C52.2778 29.228 52.0329 28.3557 51.5585 27.6976C51.0994 27.0242 50.3724 26.6875 49.3776 26.6875C48.3981 26.6875 47.6712 27.0242 47.1967 27.6976C46.7376 28.3557 46.4927 29.228 46.4621 30.3146C46.4621 30.7278 46.4545 31.164 46.4392 31.6231C46.4392 32.0823 46.4392 32.5414 46.4392 33.0005C46.4545 33.4443 46.4621 33.8882 46.4621 34.332C46.4927 35.4492 46.7453 36.3369 47.2197 36.995C47.6941 37.6377 48.4134 37.9591 49.3776 37.9591ZM64.2475 40.3696C64.0945 40.3696 63.9644 40.316 63.8573 40.2089C63.7501 40.1017 63.6966 39.9717 63.6966 39.8186V28.9831C63.6966 28.8301 63.7501 28.7 63.8573 28.5929C63.9644 28.4857 64.0945 28.4322 64.2475 28.4322H66.0381C66.1912 28.4322 66.3213 28.4857 66.4284 28.5929C66.5355 28.7 66.5891 28.8301 66.5891 28.9831V29.7637C66.9105 29.3351 67.339 28.9755 67.8747 28.6847C68.4256 28.3786 69.076 28.2179 69.826 28.2026C71.5707 28.172 72.7873 28.853 73.476 30.2457C73.828 29.6336 74.3331 29.1438 74.9912 28.7765C75.6646 28.3939 76.4068 28.2026 77.218 28.2026C78.0138 28.2026 78.7331 28.3863 79.3759 28.7536C80.034 29.1209 80.5467 29.6795 80.914 30.4294C81.2966 31.164 81.4879 32.0976 81.4879 33.2301V39.8186C81.4879 39.9717 81.4343 40.1017 81.3272 40.2089C81.22 40.316 81.09 40.3696 80.9369 40.3696H79.0545C78.9014 40.3696 78.7713 40.316 78.6642 40.2089C78.5571 40.1017 78.5035 39.9717 78.5035 39.8186V33.4137C78.5035 32.725 78.404 32.1817 78.2051 31.7838C78.0061 31.3706 77.7383 31.0798 77.4016 30.9115C77.0649 30.7431 76.69 30.659 76.2767 30.659C75.94 30.659 75.6033 30.7431 75.2667 30.9115C74.93 31.0798 74.6545 31.3706 74.4402 31.7838C74.226 32.1817 74.1188 32.725 74.1188 33.4137V39.8186C74.1188 39.9717 74.0653 40.1017 73.9581 40.2089C73.851 40.316 73.7209 40.3696 73.5679 40.3696H71.6854C71.5171 40.3696 71.3793 40.316 71.2722 40.2089C71.1804 40.1017 71.1345 39.9717 71.1345 39.8186V33.4137C71.1345 32.725 71.0273 32.1817 70.8131 31.7838C70.5988 31.3706 70.3233 31.0798 69.9867 30.9115C69.65 30.7431 69.2903 30.659 68.9077 30.659C68.5557 30.659 68.2113 30.7508 67.8747 30.9344C67.538 31.1028 67.2625 31.3859 67.0482 31.7838C66.834 32.1817 66.7268 32.725 66.7268 33.4137V39.8186C66.7268 39.9717 66.6733 40.1017 66.5661 40.2089C66.459 40.316 66.3289 40.3696 66.1759 40.3696H64.2475ZM85.2377 40.3696C85.0846 40.3696 84.9545 40.316 84.8474 40.2089C84.7403 40.1017 84.6867 39.9717 84.6867 39.8186V24.851C84.6867 24.6979 84.7403 24.5678 84.8474 24.4607C84.9545 24.3536 85.0846 24.3 85.2377 24.3H87.3726C87.5257 24.3 87.6558 24.3536 87.7629 24.4607C87.87 24.5678 87.9236 24.6979 87.9236 24.851V37.6377H95.2008C95.3692 37.6377 95.5069 37.6913 95.614 37.7984C95.7212 37.9056 95.7747 38.0433 95.7747 38.2117V39.8186C95.7747 39.9717 95.7212 40.1017 95.614 40.2089C95.5069 40.316 95.3692 40.3696 95.2008 40.3696H85.2377Z" fill="white"/>
<path d="M14.3173 57.0652C14.2503 57.0652 14.1967 57.0451 14.1566 57.005C14.1164 56.9648 14.0963 56.9112 14.0963 56.8443V50.2658C14.0963 50.1921 14.1164 50.1352 14.1566 50.095C14.1967 50.0549 14.2503 50.0348 14.3173 50.0348H16.9386C17.4073 50.0348 17.789 50.1185 18.0836 50.2859C18.3849 50.4533 18.6058 50.6742 18.7464 50.9487C18.887 51.2166 18.9574 51.5112 18.9574 51.8326C18.9574 52.1205 18.9105 52.3682 18.8167 52.5758C18.7297 52.7767 18.6159 52.9407 18.4753 53.0679C18.3414 53.1951 18.2074 53.2922 18.0735 53.3592C18.3414 53.4931 18.579 53.7073 18.7866 54.002C18.9942 54.2966 19.098 54.6548 19.098 55.0766C19.098 55.4114 19.0176 55.7328 18.8569 56.0408C18.7029 56.3421 18.4686 56.5898 18.1539 56.784C17.8459 56.9715 17.4642 57.0652 17.0089 57.0652H14.3173ZM14.729 56.4626H16.9085C17.404 56.4626 17.7856 56.332 18.0534 56.0709C18.328 55.8098 18.4652 55.4783 18.4652 55.0766C18.4652 54.6682 18.328 54.3367 18.0534 54.0823C17.7856 53.8212 17.404 53.6906 16.9085 53.6906H14.729V56.4626ZM14.729 53.088H16.808C17.3035 53.088 17.6785 52.9775 17.9329 52.7566C18.194 52.5356 18.3246 52.2276 18.3246 51.8326C18.3246 51.4375 18.194 51.1396 17.9329 50.9387C17.6785 50.7378 17.3035 50.6374 16.808 50.6374H14.729V53.088ZM20.7483 57.0652C20.6814 57.0652 20.6278 57.0451 20.5876 57.005C20.5474 56.9648 20.5274 56.9112 20.5274 56.8443V52.0636C20.5274 51.9966 20.5474 51.943 20.5876 51.9029C20.6278 51.8627 20.6814 51.8426 20.7483 51.8426H20.919C20.986 51.8426 21.0396 51.8627 21.0797 51.9029C21.1199 51.943 21.14 51.9966 21.14 52.0636V56.8443C21.14 56.9112 21.1199 56.9648 21.0797 57.005C21.0396 57.0451 20.986 57.0652 20.919 57.0652H20.7483ZM20.6378 50.768C20.5709 50.768 20.5173 50.7479 20.4771 50.7077C20.437 50.6675 20.4169 50.614 20.4169 50.547V50.1653C20.4169 50.0984 20.437 50.0448 20.4771 50.0047C20.5173 49.9578 20.5709 49.9343 20.6378 49.9343H21.0195C21.0864 49.9343 21.14 49.9578 21.1802 50.0047C21.227 50.0448 21.2505 50.0984 21.2505 50.1653V50.547C21.2505 50.614 21.227 50.6675 21.1802 50.7077C21.14 50.7479 21.0864 50.768 21.0195 50.768H20.6378ZM24.712 59.2748C24.2835 59.2748 23.932 59.2179 23.6575 59.104C23.3896 58.9902 23.1787 58.8496 23.0247 58.6822C22.8774 58.5215 22.7736 58.3575 22.7134 58.1901C22.6531 58.0294 22.6196 57.8988 22.6129 57.7984C22.6062 57.7314 22.6263 57.6745 22.6732 57.6277C22.7201 57.5875 22.7736 57.5674 22.8339 57.5674H22.9745C23.0281 57.5674 23.0749 57.5774 23.1151 57.5975C23.1553 57.6243 23.1888 57.6846 23.2156 57.7783C23.2557 57.8854 23.3193 58.0093 23.4064 58.1499C23.5001 58.2972 23.6441 58.4244 23.8382 58.5316C24.0391 58.6387 24.3136 58.6923 24.6618 58.6923C25.0301 58.6923 25.3381 58.6454 25.5858 58.5517C25.8336 58.4579 26.021 58.2905 26.1482 58.0495C26.2822 57.8151 26.3491 57.487 26.3491 57.0652V56.3722C26.1817 56.5999 25.9608 56.7907 25.6862 56.9447C25.4184 57.092 25.0769 57.1657 24.6618 57.1657C24.2735 57.1657 23.942 57.0953 23.6675 56.9547C23.3997 56.8141 23.1821 56.6267 23.0147 56.3923C22.8473 56.158 22.7234 55.8968 22.6431 55.6089C22.5627 55.321 22.5192 55.0297 22.5125 54.7351C22.5058 54.5477 22.5058 54.3602 22.5125 54.1727C22.5192 53.8781 22.5627 53.5868 22.6431 53.2989C22.7234 53.011 22.8473 52.7499 23.0147 52.5155C23.1821 52.2812 23.3997 52.0937 23.6675 51.9531C23.942 51.8125 24.2735 51.7422 24.6618 51.7422C25.0769 51.7422 25.4184 51.8192 25.6862 51.9732C25.9608 52.1272 26.1817 52.3147 26.3491 52.5356V52.0736C26.3491 52.0067 26.3692 51.9531 26.4094 51.9129C26.4496 51.866 26.5031 51.8426 26.5701 51.8426H26.7308C26.7977 51.8426 26.8513 51.866 26.8915 51.9129C26.9383 51.9531 26.9618 52.0067 26.9618 52.0736V56.9648C26.9618 57.3933 26.8982 57.7817 26.7709 58.1298C26.6437 58.478 26.4161 58.7559 26.088 58.9634C25.7666 59.171 25.3079 59.2748 24.712 59.2748ZM24.7221 56.5831C25.1037 56.5831 25.4117 56.4927 25.6461 56.312C25.8804 56.1312 26.0512 55.9069 26.1583 55.639C26.2721 55.3645 26.3357 55.09 26.3491 54.8155C26.3558 54.715 26.3592 54.5945 26.3592 54.4539C26.3592 54.3133 26.3558 54.1928 26.3491 54.0923C26.3357 53.8178 26.2721 53.5467 26.1583 53.2788C26.0512 53.0043 25.8804 52.7767 25.6461 52.5959C25.4117 52.4151 25.1037 52.3247 24.7221 52.3247C24.3337 52.3247 24.0224 52.4117 23.788 52.5858C23.5604 52.7599 23.3963 52.9876 23.2959 53.2688C23.1955 53.55 23.1386 53.8513 23.1252 54.1727C23.1185 54.3602 23.1185 54.5477 23.1252 54.7351C23.1386 55.0565 23.1955 55.3578 23.2959 55.639C23.3963 55.9203 23.5604 56.1479 23.788 56.322C24.0224 56.4961 24.3337 56.5831 24.7221 56.5831ZM33.1673 57.1657C32.6986 57.1657 32.3002 57.0753 31.9721 56.8945C31.644 56.707 31.393 56.4392 31.2189 56.091C31.0515 55.7428 30.9611 55.331 30.9477 54.8557C30.941 54.7552 30.9377 54.6213 30.9377 54.4539C30.9377 54.2865 30.941 54.1526 30.9477 54.0522C30.9611 53.5701 31.0515 53.1583 31.2189 52.8168C31.393 52.4687 31.644 52.2042 31.9721 52.0234C32.3002 51.8359 32.6986 51.7422 33.1673 51.7422C33.5222 51.7422 33.8268 51.7924 34.0813 51.8928C34.3424 51.9866 34.5567 52.1138 34.724 52.2745C34.8914 52.4285 35.0187 52.5992 35.1057 52.7867C35.1927 52.9742 35.2396 53.1583 35.2463 53.3391C35.253 53.406 35.2329 53.4596 35.186 53.4998C35.1392 53.54 35.0856 53.56 35.0253 53.56H34.8847C34.8178 53.56 34.7676 53.5467 34.7341 53.5199C34.7073 53.4864 34.6772 53.4295 34.6437 53.3491C34.5031 52.9675 34.3089 52.703 34.0612 52.5557C33.8201 52.4017 33.5222 52.3247 33.1673 52.3247C32.712 52.3247 32.3337 52.4653 32.0324 52.7465C31.7378 53.021 31.5804 53.473 31.5603 54.1024C31.547 54.3367 31.547 54.5711 31.5603 54.8054C31.5804 55.4348 31.7378 55.8901 32.0324 56.1713C32.3337 56.4459 32.712 56.5831 33.1673 56.5831C33.5222 56.5831 33.8201 56.5095 34.0612 56.3622C34.3089 56.2082 34.5031 55.9403 34.6437 55.5587C34.6772 55.4783 34.7073 55.4248 34.7341 55.398C34.7676 55.3645 34.8178 55.3478 34.8847 55.3478H35.0253C35.0856 55.3478 35.1392 55.3679 35.186 55.408C35.2329 55.4482 35.253 55.5018 35.2463 55.5687C35.2396 55.716 35.2095 55.8633 35.1559 56.0107C35.1023 56.158 35.0187 56.3019 34.9048 56.4425C34.7977 56.5831 34.6638 56.707 34.5031 56.8141C34.3424 56.9213 34.1482 57.005 33.9206 57.0652C33.6996 57.1322 33.4485 57.1657 33.1673 57.1657ZM37.9795 57.1657C37.6581 57.1657 37.3601 57.0987 37.0856 56.9648C36.8178 56.8309 36.6002 56.6534 36.4328 56.4325C36.2654 56.2048 36.1817 55.9504 36.1817 55.6692C36.1817 55.2139 36.3658 54.849 36.7341 54.5744C37.1023 54.2999 37.5811 54.1225 38.1703 54.0421L39.7572 53.8212V53.4697C39.7572 53.1148 39.6467 52.8369 39.4257 52.636C39.2115 52.4285 38.8666 52.3247 38.3912 52.3247C38.0431 52.3247 37.7619 52.395 37.5476 52.5356C37.3333 52.6695 37.186 52.847 37.1057 53.0679C37.0722 53.1683 37.0086 53.2186 36.9149 53.2186H36.7542C36.6738 53.2186 36.6169 53.1985 36.5834 53.1583C36.5499 53.1114 36.5332 53.0579 36.5332 52.9976C36.5332 52.9039 36.5667 52.7867 36.6336 52.6461C36.7073 52.5055 36.8178 52.3682 36.9651 52.2343C37.1124 52.0937 37.3032 51.9765 37.5376 51.8828C37.7719 51.789 38.0565 51.7422 38.3912 51.7422C38.7863 51.7422 39.111 51.7957 39.3655 51.9029C39.6266 52.01 39.8275 52.1506 39.9681 52.3247C40.1154 52.4921 40.2192 52.6796 40.2794 52.8871C40.3397 53.0947 40.3698 53.2989 40.3698 53.4998V56.8443C40.3698 56.9112 40.3497 56.9648 40.3096 57.005C40.2694 57.0451 40.2158 57.0652 40.1489 57.0652H39.9781C39.9112 57.0652 39.8576 57.0451 39.8174 57.005C39.7772 56.9648 39.7572 56.9112 39.7572 56.8443V56.3722C39.6768 56.4927 39.563 56.6133 39.4157 56.7338C39.2684 56.8543 39.0776 56.9581 38.8432 57.0451C38.6156 57.1255 38.3276 57.1657 37.9795 57.1657ZM38.0799 56.5831C38.3879 56.5831 38.6691 56.5162 38.9236 56.3823C39.178 56.2483 39.3789 56.0441 39.5262 55.7696C39.6802 55.4884 39.7572 55.1369 39.7572 54.715V54.3736L38.4616 54.5543C37.9125 54.628 37.4974 54.7552 37.2162 54.936C36.9349 55.1168 36.7943 55.3444 36.7943 55.619C36.7943 55.8399 36.8579 56.0207 36.9852 56.1613C37.1124 56.3019 37.2731 56.409 37.4672 56.4827C37.6681 56.5497 37.8723 56.5831 38.0799 56.5831ZM42.179 57.0652C42.112 57.0652 42.0585 57.0451 42.0183 57.005C41.9781 56.9648 41.958 56.9112 41.958 56.8443V52.0636C41.958 51.9966 41.9781 51.943 42.0183 51.9029C42.0585 51.8627 42.112 51.8426 42.179 51.8426H42.3497C42.4167 51.8426 42.4702 51.8627 42.5104 51.9029C42.5506 51.943 42.5707 51.9966 42.5707 52.0636V52.5356C42.7515 52.3013 42.9691 52.1104 43.2235 51.9631C43.4846 51.8158 43.8295 51.7422 44.258 51.7422C44.7133 51.7422 45.0916 51.8426 45.3929 52.0435C45.7009 52.2377 45.9285 52.5055 46.0758 52.847C46.2298 53.1817 46.3068 53.5634 46.3068 53.9919V56.8443C46.3068 56.9112 46.2868 56.9648 46.2466 57.005C46.2064 57.0451 46.1528 57.0652 46.0859 57.0652H45.9151C45.8482 57.0652 45.7946 57.0451 45.7545 57.005C45.7143 56.9648 45.6942 56.9112 45.6942 56.8443V54.0421C45.6942 53.5065 45.5636 53.088 45.3025 52.7867C45.0414 52.4787 44.6597 52.3247 44.1575 52.3247C43.6821 52.3247 43.2971 52.4787 43.0025 52.7867C42.7146 53.088 42.5707 53.5065 42.5707 54.0421V56.8443C42.5707 56.9112 42.5506 56.9648 42.5104 57.005C42.4702 57.0451 42.4167 57.0652 42.3497 57.0652H42.179Z" fill="white"/>
<path d="M14.3173 78.587C14.2503 78.587 14.1967 78.5669 14.1566 78.5267C14.1164 78.4865 14.0963 78.433 14.0963 78.366V71.7875C14.0963 71.7139 14.1164 71.657 14.1566 71.6168C14.1967 71.5766 14.2503 71.5565 14.3173 71.5565H18.2342C18.3079 71.5565 18.3648 71.5766 18.405 71.6168C18.4451 71.657 18.4652 71.7139 18.4652 71.7875V71.9382C18.4652 72.0051 18.4451 72.0587 18.405 72.0989C18.3648 72.139 18.3079 72.1591 18.2342 72.1591H14.729V74.7202H18.0133C18.0869 74.7202 18.1438 74.7403 18.184 74.7805C18.2242 74.8207 18.2443 74.8776 18.2443 74.9512V75.1019C18.2443 75.1688 18.2242 75.2224 18.184 75.2626C18.1438 75.3027 18.0869 75.3228 18.0133 75.3228H14.729V77.9844H18.3146C18.3882 77.9844 18.4451 78.0044 18.4853 78.0446C18.5255 78.0848 18.5456 78.1417 18.5456 78.2154V78.366C18.5456 78.433 18.5255 78.4865 18.4853 78.5267C18.4451 78.5669 18.3882 78.587 18.3146 78.587H14.3173ZM22.0611 78.587C21.9741 78.587 21.9038 78.5669 21.8502 78.5267C21.7966 78.4865 21.7531 78.4263 21.7196 78.3459L19.3895 71.8679C19.3761 71.8277 19.3694 71.7909 19.3694 71.7574C19.3694 71.7038 19.3895 71.657 19.4297 71.6168C19.4699 71.5766 19.5168 71.5565 19.5703 71.5565H19.7812C19.8482 71.5565 19.8984 71.5766 19.9319 71.6168C19.9721 71.6503 19.9955 71.6804 20.0022 71.7072L22.2017 77.8538L24.4012 71.7072C24.4146 71.6804 24.4381 71.6503 24.4715 71.6168C24.505 71.5766 24.5552 71.5565 24.6222 71.5565H24.8331C24.8867 71.5565 24.9335 71.5766 24.9737 71.6168C25.0139 71.657 25.034 71.7038 25.034 71.7574C25.034 71.7909 25.0273 71.8277 25.0139 71.8679L22.6838 78.3459C22.657 78.4263 22.6168 78.4865 22.5633 78.5267C22.5097 78.5669 22.4361 78.587 22.3423 78.587H22.0611ZM26.5676 78.587C26.5006 78.587 26.447 78.5669 26.4069 78.5267C26.3667 78.4865 26.3466 78.433 26.3466 78.366V71.7875C26.3466 71.7139 26.3667 71.657 26.4069 71.6168C26.447 71.5766 26.5006 71.5565 26.5676 71.5565H30.4845C30.5582 71.5565 30.6151 71.5766 30.6553 71.6168C30.6954 71.657 30.7155 71.7139 30.7155 71.7875V71.9382C30.7155 72.0051 30.6954 72.0587 30.6553 72.0989C30.6151 72.139 30.5582 72.1591 30.4845 72.1591H26.9793V74.7202H30.2636C30.3372 74.7202 30.3941 74.7403 30.4343 74.7805C30.4745 74.8207 30.4946 74.8776 30.4946 74.9512V75.1019C30.4946 75.1688 30.4745 75.2224 30.4343 75.2626C30.3941 75.3027 30.3372 75.3228 30.2636 75.3228H26.9793V77.9844H30.5649C30.6385 77.9844 30.6954 78.0044 30.7356 78.0446C30.7758 78.0848 30.7959 78.1417 30.7959 78.2154V78.366C30.7959 78.433 30.7758 78.4865 30.7356 78.5267C30.6954 78.5669 30.6385 78.587 30.5649 78.587H26.5676ZM32.5113 78.587C32.4443 78.587 32.3907 78.5669 32.3506 78.5267C32.3104 78.4865 32.2903 78.433 32.2903 78.366V71.7875C32.2903 71.7139 32.3104 71.657 32.3506 71.6168C32.3907 71.5766 32.4443 71.5565 32.5113 71.5565H34.8514C35.5544 71.5565 36.1135 71.7239 36.5287 72.0587C36.9505 72.3935 37.1614 72.9024 37.1614 73.5853C37.1614 74.121 37.0275 74.5495 36.7597 74.8709C36.4918 75.1923 36.1202 75.4099 35.6448 75.5237L37.2618 78.2756C37.2819 78.3158 37.292 78.3526 37.292 78.3861C37.292 78.4397 37.2719 78.4865 37.2317 78.5267C37.1915 78.5669 37.1447 78.587 37.0911 78.587H36.9706C36.8634 78.587 36.7831 78.5602 36.7295 78.5066C36.676 78.4464 36.6291 78.3827 36.5889 78.3158L34.992 75.6141H32.923V78.366C32.923 78.433 32.903 78.4865 32.8628 78.5267C32.8226 78.5669 32.7657 78.587 32.692 78.587H32.5113ZM32.923 75.0115H34.8012C35.3837 75.0115 35.8156 74.8943 36.0968 74.66C36.3847 74.4189 36.5287 74.0607 36.5287 73.5853C36.5287 73.1099 36.3847 72.755 36.0968 72.5207C35.8156 72.2797 35.3837 72.1591 34.8012 72.1591H32.923V75.0115ZM40.6084 78.587C40.5415 78.587 40.4879 78.5669 40.4477 78.5267C40.4076 78.4865 40.3875 78.433 40.3875 78.366V75.9054L37.9369 71.888C37.9302 71.8679 37.9201 71.8478 37.9067 71.8277C37.9 71.8076 37.8967 71.7842 37.8967 71.7574C37.8967 71.7038 37.9168 71.657 37.9569 71.6168C37.9971 71.5766 38.044 71.5565 38.0976 71.5565H38.2984C38.3453 71.5565 38.3888 71.5699 38.429 71.5967C38.4692 71.6168 38.5026 71.6536 38.5294 71.7072L40.7089 75.2525L42.8883 71.7072C42.9218 71.6536 42.9552 71.6168 42.9887 71.5967C43.0289 71.5699 43.0724 71.5565 43.1193 71.5565H43.3202C43.3737 71.5565 43.4206 71.5766 43.4608 71.6168C43.5009 71.657 43.521 71.7038 43.521 71.7574C43.521 71.7842 43.5177 71.8076 43.511 71.8277C43.5043 71.8478 43.4942 71.8679 43.4809 71.888L41.0302 75.9054V78.366C41.0302 78.433 41.0102 78.4865 40.97 78.5267C40.9298 78.5669 40.8729 78.587 40.7992 78.587H40.6084ZM46.9111 78.6874C46.3554 78.6874 45.8833 78.5903 45.495 78.3961C45.1066 78.1953 44.8087 77.8906 44.6011 77.4822C44.3935 77.067 44.2797 76.5448 44.2596 75.9154C44.2529 75.6141 44.2496 75.3329 44.2496 75.0717C44.2496 74.8106 44.2529 74.5294 44.2596 74.2281C44.2797 73.6054 44.4002 73.0898 44.6212 72.6814C44.8421 72.2663 45.1468 71.9583 45.5351 71.7574C45.9302 71.5565 46.3888 71.4561 46.9111 71.4561C47.4334 71.4561 47.8887 71.5565 48.277 71.7574C48.6721 71.9583 48.9801 72.2663 49.201 72.6814C49.4287 73.0898 49.5492 73.6054 49.5626 74.2281C49.576 74.5294 49.5827 74.8106 49.5827 75.0717C49.5827 75.3329 49.576 75.6141 49.5626 75.9154C49.5492 76.5448 49.4354 77.067 49.2211 77.4822C49.0135 77.8906 48.7156 78.1953 48.3272 78.3961C47.9389 78.5903 47.4668 78.6874 46.9111 78.6874ZM46.9111 78.0848C47.4869 78.0848 47.959 77.9107 48.3272 77.5625C48.7022 77.2144 48.9031 76.6486 48.9298 75.8652C48.9432 75.5639 48.9499 75.2994 48.9499 75.0717C48.9499 74.8441 48.9432 74.5796 48.9298 74.2783C48.9164 73.756 48.8194 73.3309 48.6386 73.0028C48.4645 72.6747 48.2268 72.437 47.9255 72.2897C47.6309 72.1357 47.2927 72.0587 46.9111 72.0587C46.5361 72.0587 46.198 72.1357 45.8967 72.2897C45.6021 72.437 45.3644 72.6747 45.1836 73.0028C45.0095 73.3309 44.9124 73.756 44.8924 74.2783C44.8857 74.5796 44.8823 74.8441 44.8823 75.0717C44.8823 75.2994 44.8857 75.5639 44.8924 75.8652C44.9191 76.6486 45.12 77.2144 45.495 77.5625C45.8699 77.9107 46.342 78.0848 46.9111 78.0848ZM51.4016 78.587C51.3347 78.587 51.2811 78.5669 51.2409 78.5267C51.2008 78.4865 51.1807 78.433 51.1807 78.366V71.7875C51.1807 71.7139 51.2008 71.657 51.2409 71.6168C51.2811 71.5766 51.3347 71.5565 51.4016 71.5565H51.6125C51.6795 71.5565 51.7297 71.5733 51.7632 71.6067C51.7967 71.6402 51.8168 71.6637 51.8235 71.677L55.5295 77.3416V71.7875C55.5295 71.7139 55.5496 71.657 55.5898 71.6168C55.6299 71.5766 55.6835 71.5565 55.7505 71.5565H55.9312C56.0049 71.5565 56.0618 71.5766 56.102 71.6168C56.1422 71.657 56.1622 71.7139 56.1622 71.7875V78.356C56.1622 78.4229 56.1422 78.4798 56.102 78.5267C56.0618 78.5669 56.0082 78.587 55.9413 78.587H55.7203C55.6534 78.587 55.6032 78.5702 55.5697 78.5367C55.5429 78.5033 55.5228 78.4798 55.5094 78.4664L51.8134 72.822V78.366C51.8134 78.433 51.7933 78.4865 51.7532 78.5267C51.713 78.5669 51.6561 78.587 51.5824 78.587H51.4016ZM58.2673 78.587C58.2003 78.587 58.1468 78.5669 58.1066 78.5267C58.0664 78.4865 58.0463 78.433 58.0463 78.366V71.7875C58.0463 71.7139 58.0664 71.657 58.1066 71.6168C58.1468 71.5766 58.2003 71.5565 58.2673 71.5565H62.1842C62.2579 71.5565 62.3148 71.5766 62.355 71.6168C62.3952 71.657 62.4152 71.7139 62.4152 71.7875V71.9382C62.4152 72.0051 62.3952 72.0587 62.355 72.0989C62.3148 72.139 62.2579 72.1591 62.1842 72.1591H58.6791V74.7202H61.9633C62.0369 74.7202 62.0939 74.7403 62.134 74.7805C62.1742 74.8207 62.1943 74.8776 62.1943 74.9512V75.1019C62.1943 75.1688 62.1742 75.2224 62.134 75.2626C62.0939 75.3027 62.0369 75.3228 61.9633 75.3228H58.6791V77.9844H62.2646C62.3382 77.9844 62.3952 78.0044 62.4353 78.0446C62.4755 78.0848 62.4956 78.1417 62.4956 78.2154V78.366C62.4956 78.433 62.4755 78.4865 62.4353 78.5267C62.3952 78.5669 62.3382 78.587 62.2646 78.587H58.2673ZM63.8293 73.1434C63.7758 73.1434 63.7356 73.1233 63.7088 73.0831C63.6887 73.043 63.682 72.9927 63.6887 72.9325L63.8796 71.7273C63.8929 71.6469 63.9164 71.5833 63.9499 71.5364C63.99 71.4829 64.0503 71.4561 64.1306 71.4561H64.5826C64.6295 71.4561 64.6663 71.4728 64.6931 71.5063C64.7199 71.5398 64.7332 71.5766 64.7332 71.6168C64.7332 71.677 64.7199 71.7373 64.6931 71.7976L64.2612 72.9325C64.2344 72.9994 64.2009 73.053 64.1608 73.0932C64.1273 73.1267 64.0737 73.1434 64.0001 73.1434H63.8293ZM68.1589 78.6874C67.6165 78.6874 67.1545 78.6004 66.7729 78.4263C66.3979 78.2522 66.11 78.0279 65.9091 77.7534C65.7083 77.4788 65.6011 77.1876 65.5877 76.8796C65.5877 76.826 65.6078 76.7791 65.648 76.739C65.6882 76.6988 65.7384 76.6787 65.7986 76.6787H65.9995C66.0665 76.6787 66.1167 76.6988 66.1502 76.739C66.1903 76.7791 66.2138 76.826 66.2205 76.8796C66.2473 77.067 66.3309 77.2545 66.4716 77.442C66.6122 77.6228 66.8197 77.7768 67.0943 77.904C67.3688 78.0245 67.7236 78.0848 68.1589 78.0848C68.815 78.0848 69.2938 77.9676 69.5951 77.7333C69.8964 77.4922 70.047 77.1708 70.047 76.7691C70.047 76.5013 69.9667 76.287 69.806 76.1263C69.652 75.9589 69.4143 75.8116 69.0929 75.6844C68.7715 75.5505 68.3597 75.4032 67.8576 75.2425C67.3822 75.0885 66.9905 74.9311 66.6825 74.7704C66.3745 74.603 66.1468 74.4022 65.9995 74.1678C65.8589 73.9335 65.7886 73.6322 65.7886 73.2639C65.7886 72.9224 65.879 72.6178 66.0598 72.35C66.2406 72.0754 66.5017 71.8578 66.8432 71.6971C67.1913 71.5364 67.6132 71.4561 68.1086 71.4561C68.5037 71.4561 68.8485 71.5097 69.1431 71.6168C69.4377 71.7239 69.6821 71.8679 69.8763 72.0487C70.0705 72.2227 70.2178 72.4136 70.3182 72.6211C70.4186 72.822 70.4722 73.0195 70.4789 73.2137C70.4789 73.2606 70.4622 73.3074 70.4287 73.3543C70.3952 73.3945 70.3416 73.4146 70.268 73.4146H70.0671C70.0336 73.4146 69.9901 73.4012 69.9366 73.3744C69.8897 73.3476 69.8596 73.294 69.8462 73.2137C69.806 72.8789 69.6286 72.6044 69.3139 72.3901C69.0059 72.1692 68.6041 72.0587 68.1086 72.0587C67.6132 72.0587 67.2081 72.1558 66.8934 72.35C66.5787 72.5441 66.4213 72.8488 66.4213 73.2639C66.4213 73.5317 66.4916 73.7527 66.6323 73.9268C66.7729 74.0942 66.9938 74.2448 67.2951 74.3787C67.5964 74.506 67.9848 74.6466 68.4602 74.8006C68.9623 74.9613 69.3775 75.122 69.7056 75.2827C70.0336 75.4434 70.278 75.6409 70.4387 75.8752C70.5994 76.1029 70.6798 76.4008 70.6798 76.7691C70.6798 77.1775 70.576 77.5257 70.3684 77.8136C70.1676 78.0948 69.8796 78.3124 69.5047 78.4664C69.1297 78.6137 68.6811 78.6874 68.1589 78.6874ZM14.3173 90.587C14.2503 90.587 14.1967 90.5669 14.1566 90.5267C14.1164 90.4865 14.0963 90.433 14.0963 90.366V83.7875C14.0963 83.7139 14.1164 83.657 14.1566 83.6168C14.1967 83.5766 14.2503 83.5565 14.3173 83.5565H18.194C18.2677 83.5565 18.3246 83.5766 18.3648 83.6168C18.405 83.657 18.425 83.7139 18.425 83.7875V83.9382C18.425 84.0051 18.405 84.0587 18.3648 84.0989C18.3246 84.139 18.2677 84.1591 18.194 84.1591H14.729V86.8608H17.9932C18.0668 86.8608 18.1237 86.8809 18.1639 86.9211C18.2041 86.9613 18.2242 87.0182 18.2242 87.0918V87.2425C18.2242 87.3094 18.2041 87.363 18.1639 87.4032C18.1237 87.4434 18.0668 87.4634 17.9932 87.4634H14.729V90.366C14.729 90.433 14.709 90.4865 14.6688 90.5267C14.6286 90.5669 14.5717 90.587 14.498 90.587H14.3173ZM18.8709 90.587C18.8173 90.587 18.7704 90.5669 18.7303 90.5267C18.6901 90.4865 18.67 90.4397 18.67 90.3861C18.67 90.3526 18.6767 90.3158 18.6901 90.2756L21.2311 83.7574C21.2579 83.6904 21.2914 83.6402 21.3315 83.6067C21.3784 83.5733 21.442 83.5565 21.5224 83.5565H21.8638C21.9442 83.5565 22.0044 83.5733 22.0446 83.6067C22.0915 83.6402 22.1283 83.6904 22.1551 83.7574L24.6961 90.2756C24.7095 90.3158 24.7162 90.3526 24.7162 90.3861C24.7162 90.4397 24.6961 90.4865 24.6559 90.5267C24.6158 90.5669 24.5689 90.587 24.5153 90.587H24.3144C24.2475 90.587 24.1973 90.5702 24.1638 90.5367C24.1303 90.4966 24.1069 90.4631 24.0935 90.4363L23.4708 88.8294H19.9154L19.2927 90.4363C19.286 90.4631 19.2626 90.4966 19.2224 90.5367C19.1889 90.5702 19.1387 90.587 19.0718 90.587H18.8709ZM20.1564 88.2267H23.2298L21.6931 84.2696L20.1564 88.2267ZM27.5634 90.587C27.4764 90.587 27.4061 90.5669 27.3525 90.5267C27.299 90.4865 27.2554 90.4263 27.222 90.3459L24.8919 83.8679C24.8785 83.8277 24.8718 83.7909 24.8718 83.7574C24.8718 83.7038 24.8919 83.657 24.932 83.6168C24.9722 83.5766 25.0191 83.5565 25.0727 83.5565H25.2836C25.3505 83.5565 25.4007 83.5766 25.4342 83.6168C25.4744 83.6503 25.4978 83.6804 25.5045 83.7072L27.704 89.8538L29.9036 83.7072C29.917 83.6804 29.9404 83.6503 29.9739 83.6168C30.0073 83.5766 30.0576 83.5565 30.1245 83.5565H30.3354C30.389 83.5565 30.4359 83.5766 30.476 83.6168C30.5162 83.657 30.5363 83.7038 30.5363 83.7574C30.5363 83.7909 30.5296 83.8277 30.5162 83.8679L28.1861 90.3459C28.1593 90.4263 28.1192 90.4865 28.0656 90.5267C28.012 90.5669 27.9384 90.587 27.8447 90.587H27.5634ZM34.0429 90.6874C33.4872 90.6874 33.0151 90.5903 32.6268 90.3961C32.2384 90.1953 31.9405 89.8906 31.7329 89.4822C31.5253 89.067 31.4115 88.5448 31.3914 87.9154C31.3847 87.6141 31.3814 87.3329 31.3814 87.0717C31.3814 86.8106 31.3847 86.5294 31.3914 86.2281C31.4115 85.6054 31.532 85.0898 31.753 84.6814C31.9739 84.2663 32.2786 83.9583 32.6669 83.7574C33.062 83.5565 33.5206 83.4561 34.0429 83.4561C34.5652 83.4561 35.0205 83.5565 35.4088 83.7574C35.8038 83.9583 36.1118 84.2663 36.3328 84.6814C36.5605 85.0898 36.681 85.6054 36.6944 86.2281C36.7078 86.5294 36.7145 86.8106 36.7145 87.0717C36.7145 87.3329 36.7078 87.6141 36.6944 87.9154C36.681 88.5448 36.5672 89.067 36.3529 89.4822C36.1453 89.8906 35.8474 90.1953 35.459 90.3961C35.0707 90.5903 34.5986 90.6874 34.0429 90.6874ZM34.0429 90.0848C34.6187 90.0848 35.0908 89.9107 35.459 89.5625C35.834 89.2144 36.0348 88.6486 36.0616 87.8652C36.075 87.5639 36.0817 87.2994 36.0817 87.0717C36.0817 86.8441 36.075 86.5796 36.0616 86.2783C36.0482 85.756 35.9512 85.3309 35.7704 85.0028C35.5963 84.6747 35.3586 84.437 35.0573 84.2897C34.7627 84.1357 34.4245 84.0587 34.0429 84.0587C33.6679 84.0587 33.3298 84.1357 33.0285 84.2897C32.7339 84.437 32.4962 84.6747 32.3154 85.0028C32.1413 85.3309 32.0442 85.756 32.0242 86.2783C32.0175 86.5796 32.0141 86.8441 32.0141 87.0717C32.0141 87.2994 32.0175 87.5639 32.0242 87.8652C32.0509 88.6486 32.2518 89.2144 32.6268 89.5625C33.0017 89.9107 33.4738 90.0848 34.0429 90.0848ZM40.8434 90.6874C40.3011 90.6874 39.8357 90.587 39.4474 90.3861C39.0657 90.1852 38.7711 89.8772 38.5636 89.4621C38.356 89.047 38.2522 88.5147 38.2522 87.8652V83.7875C38.2522 83.7139 38.2723 83.657 38.3125 83.6168C38.3526 83.5766 38.4062 83.5565 38.4732 83.5565H38.6539C38.7276 83.5565 38.7845 83.5766 38.8247 83.6168C38.8649 83.657 38.8849 83.7139 38.8849 83.7875V87.8953C38.8849 88.6452 39.059 89.1976 39.4072 89.5525C39.7621 89.9074 40.2408 90.0848 40.8434 90.0848C41.4393 90.0848 41.9114 89.9074 42.2596 89.5525C42.6144 89.1976 42.7919 88.6452 42.7919 87.8953V83.7875C42.7919 83.7139 42.8119 83.657 42.8521 83.6168C42.899 83.5766 42.9559 83.5565 43.0229 83.5565H43.2036C43.2706 83.5565 43.3242 83.5766 43.3643 83.6168C43.4045 83.657 43.4246 83.7139 43.4246 83.7875V87.8652C43.4246 88.5147 43.3208 89.047 43.1133 89.4621C42.9124 89.8772 42.6211 90.1852 42.2395 90.3861C41.8578 90.587 41.3925 90.6874 40.8434 90.6874ZM45.4775 90.587C45.4106 90.587 45.357 90.5669 45.3169 90.5267C45.2767 90.4865 45.2566 90.433 45.2566 90.366V83.7875C45.2566 83.7139 45.2767 83.657 45.3169 83.6168C45.357 83.5766 45.4106 83.5565 45.4775 83.5565H47.8177C48.5207 83.5565 49.0798 83.7239 49.4949 84.0587C49.9168 84.3935 50.1277 84.9024 50.1277 85.5853C50.1277 86.121 49.9938 86.5495 49.7259 86.8709C49.4581 87.1923 49.0865 87.4099 48.6111 87.5237L50.2281 90.2756C50.2482 90.3158 50.2582 90.3526 50.2582 90.3861C50.2582 90.4397 50.2382 90.4865 50.198 90.5267C50.1578 90.5669 50.1109 90.587 50.0574 90.587H49.9369C49.8297 90.587 49.7494 90.5602 49.6958 90.5066C49.6422 90.4464 49.5954 90.3827 49.5552 90.3158L47.9583 87.6141H45.8893V90.366C45.8893 90.433 45.8692 90.4865 45.8291 90.5267C45.7889 90.5669 45.732 90.587 45.6583 90.587H45.4775ZM45.8893 87.0115H47.7675C48.35 87.0115 48.7819 86.8943 49.0631 86.66C49.351 86.4189 49.4949 86.0607 49.4949 85.5853C49.4949 85.1099 49.351 84.755 49.0631 84.5207C48.7819 84.2797 48.35 84.1591 47.7675 84.1591H45.8893V87.0115ZM51.9018 90.587C51.8349 90.587 51.7813 90.5669 51.7411 90.5267C51.701 90.4865 51.6809 90.433 51.6809 90.366V83.7775C51.6809 83.7105 51.701 83.657 51.7411 83.6168C51.7813 83.5766 51.8349 83.5565 51.9018 83.5565H52.0927C52.1596 83.5565 52.2132 83.5766 52.2534 83.6168C52.2935 83.657 52.3136 83.7105 52.3136 83.7775V90.366C52.3136 90.433 52.2935 90.4865 52.2534 90.5267C52.2132 90.5669 52.1596 90.587 52.0927 90.587H51.9018ZM55.9592 90.587C55.8922 90.587 55.8387 90.5669 55.7985 90.5267C55.7583 90.4865 55.7382 90.433 55.7382 90.366V84.1591H53.7496C53.6827 84.1591 53.6291 84.139 53.5889 84.0989C53.5487 84.0587 53.5287 84.0051 53.5287 83.9382V83.7875C53.5287 83.7139 53.5487 83.657 53.5889 83.6168C53.6291 83.5766 53.6827 83.5565 53.7496 83.5565H58.3495C58.4232 83.5565 58.4801 83.5766 58.5203 83.6168C58.5604 83.657 58.5805 83.7139 58.5805 83.7875V83.9382C58.5805 84.0051 58.5604 84.0587 58.5203 84.0989C58.4801 84.139 58.4232 84.1591 58.3495 84.1591H56.371V90.366C56.371 90.433 56.3509 90.4865 56.3107 90.5267C56.2705 90.5669 56.2136 90.587 56.14 90.587H55.9592ZM60.0131 90.587C59.9462 90.587 59.8926 90.5669 59.8524 90.5267C59.8123 90.4865 59.7922 90.433 59.7922 90.366V83.7875C59.7922 83.7139 59.8123 83.657 59.8524 83.6168C59.8926 83.5766 59.9462 83.5565 60.0131 83.5565H63.9301C64.0037 83.5565 64.0606 83.5766 64.1008 83.6168C64.141 83.657 64.1611 83.7139 64.1611 83.7875V83.9382C64.1611 84.0051 64.141 84.0587 64.1008 84.0989C64.0606 84.139 64.0037 84.1591 63.9301 84.1591H60.4249V86.7202H63.7091C63.7828 86.7202 63.8397 86.7403 63.8799 86.7805C63.92 86.8207 63.9401 86.8776 63.9401 86.9512V87.1019C63.9401 87.1688 63.92 87.2224 63.8799 87.2626C63.8397 87.3027 63.7828 87.3228 63.7091 87.3228H60.4249V89.9844H64.0104C64.0841 89.9844 64.141 90.0044 64.1812 90.0446C64.2213 90.0848 64.2414 90.1417 64.2414 90.2154V90.366C64.2414 90.433 64.2213 90.4865 64.1812 90.5267C64.141 90.5669 64.0841 90.587 64.0104 90.587H60.0131Z" fill="white"/>
</svg>
