<svg width="117" height="137" viewBox="0 0 117 137" fill="none" xmlns="http://www.w3.org/2000/svg">
<rect width="117" height="98" fill="#BA2128"/>
<path d="M25.9553 35.16C24.9739 35.16 24.1579 34.9787 23.5073 34.616C22.8673 34.2533 22.3819 33.7467 22.0513 33.096C21.7206 32.4453 21.5393 31.688 21.5073 30.824C21.4966 30.3867 21.4913 29.9173 21.4913 29.416C21.4913 28.9147 21.4966 28.4347 21.5073 27.976C21.5393 27.112 21.7206 26.3547 22.0513 25.704C22.3819 25.0533 22.8673 24.5467 23.5073 24.184C24.1579 23.8213 24.9739 23.64 25.9553 23.64C26.6913 23.64 27.3366 23.7413 27.8913 23.944C28.4459 24.1467 28.9046 24.4187 29.2673 24.76C29.6406 25.1013 29.9233 25.4853 30.1153 25.912C30.3073 26.328 30.4139 26.76 30.4353 27.208C30.4459 27.304 30.4139 27.384 30.3393 27.448C30.2753 27.512 30.1953 27.544 30.0993 27.544H29.2193C29.1233 27.544 29.0379 27.5173 28.9633 27.464C28.8993 27.4107 28.8513 27.3147 28.8193 27.176C28.6379 26.344 28.2966 25.7733 27.7953 25.464C27.3046 25.1547 26.6859 25 25.9393 25C25.0859 25 24.4086 25.2453 23.9073 25.736C23.4059 26.216 23.1339 26.9893 23.0913 28.056C23.0593 28.9307 23.0593 29.8267 23.0913 30.744C23.1339 31.8107 23.4059 32.5893 23.9073 33.08C24.4086 33.56 25.0859 33.8 25.9393 33.8C26.6859 33.8 27.3046 33.6453 27.7953 33.336C28.2966 33.0267 28.6379 32.456 28.8193 31.624C28.8513 31.4853 28.8993 31.3893 28.9633 31.336C29.0379 31.2827 29.1233 31.256 29.2193 31.256H30.0993C30.1953 31.256 30.2753 31.288 30.3393 31.352C30.4139 31.416 30.4459 31.496 30.4353 31.592C30.4139 32.04 30.3073 32.4773 30.1153 32.904C29.9233 33.32 29.6406 33.6987 29.2673 34.04C28.9046 34.3813 28.4459 34.6533 27.8913 34.856C27.3366 35.0587 26.6913 35.16 25.9553 35.16ZM32.7395 35C32.6328 35 32.5422 34.968 32.4675 34.904C32.4035 34.8293 32.3715 34.7387 32.3715 34.632V27.048C32.3715 26.9413 32.4035 26.856 32.4675 26.792C32.5422 26.7173 32.6328 26.68 32.7395 26.68H33.5075C33.6142 26.68 33.6995 26.7173 33.7635 26.792C33.8275 26.856 33.8595 26.9413 33.8595 27.048V34.632C33.8595 34.7387 33.8275 34.8293 33.7635 34.904C33.6995 34.968 33.6142 35 33.5075 35H32.7395ZM32.6115 25.128C32.5048 25.128 32.4142 25.096 32.3395 25.032C32.2755 24.9573 32.2435 24.8667 32.2435 24.76V23.896C32.2435 23.7893 32.2755 23.704 32.3395 23.64C32.4142 23.5653 32.5048 23.528 32.6115 23.528H33.6195C33.7262 23.528 33.8115 23.5653 33.8755 23.64C33.9502 23.704 33.9875 23.7893 33.9875 23.896V24.76C33.9875 24.8667 33.9502 24.9573 33.8755 25.032C33.8115 25.096 33.7262 25.128 33.6195 25.128H32.6115ZM39.4945 35C38.8972 35 38.4118 34.888 38.0385 34.664C37.6652 34.4293 37.3932 34.104 37.2225 33.688C37.0518 33.2613 36.9665 32.76 36.9665 32.184V27.96H35.7185C35.6118 27.96 35.5212 27.928 35.4465 27.864C35.3825 27.7893 35.3505 27.6987 35.3505 27.592V27.048C35.3505 26.9413 35.3825 26.856 35.4465 26.792C35.5212 26.7173 35.6118 26.68 35.7185 26.68H36.9665V24.008C36.9665 23.9013 36.9985 23.816 37.0625 23.752C37.1372 23.6773 37.2278 23.64 37.3345 23.64H38.0865C38.1932 23.64 38.2785 23.6773 38.3425 23.752C38.4172 23.816 38.4545 23.9013 38.4545 24.008V26.68H40.4385C40.5452 26.68 40.6305 26.7173 40.6945 26.792C40.7692 26.856 40.8065 26.9413 40.8065 27.048V27.592C40.8065 27.6987 40.7692 27.7893 40.6945 27.864C40.6305 27.928 40.5452 27.96 40.4385 27.96H38.4545V32.072C38.4545 32.5733 38.5398 32.968 38.7105 33.256C38.8812 33.544 39.1852 33.688 39.6225 33.688H40.5985C40.7052 33.688 40.7905 33.7253 40.8545 33.8C40.9292 33.864 40.9665 33.9493 40.9665 34.056V34.632C40.9665 34.7387 40.9292 34.8293 40.8545 34.904C40.7905 34.968 40.7052 35 40.5985 35H39.4945ZM42.8645 35C42.7578 35 42.6672 34.968 42.5925 34.904C42.5285 34.8293 42.4965 34.7387 42.4965 34.632V27.064C42.4965 26.9573 42.5285 26.8667 42.5925 26.792C42.6672 26.7173 42.7578 26.68 42.8645 26.68H43.6005C43.7072 26.68 43.7978 26.7173 43.8725 26.792C43.9472 26.8667 43.9845 26.9573 43.9845 27.064V27.768C44.1978 27.4053 44.4912 27.1333 44.8645 26.952C45.2378 26.7707 45.6858 26.68 46.2085 26.68H46.8485C46.9552 26.68 47.0405 26.7173 47.1045 26.792C47.1685 26.856 47.2005 26.9413 47.2005 27.048V27.704C47.2005 27.8107 47.1685 27.896 47.1045 27.96C47.0405 28.024 46.9552 28.056 46.8485 28.056H45.8885C45.3125 28.056 44.8592 28.2267 44.5285 28.568C44.1978 28.8987 44.0325 29.352 44.0325 29.928V34.632C44.0325 34.7387 43.9952 34.8293 43.9205 34.904C43.8458 34.968 43.7552 35 43.6485 35H42.8645ZM48.9426 35C48.836 35 48.7453 34.968 48.6706 34.904C48.6066 34.8293 48.5746 34.7387 48.5746 34.632V27.048C48.5746 26.9413 48.6066 26.856 48.6706 26.792C48.7453 26.7173 48.836 26.68 48.9426 26.68H49.7106C49.8173 26.68 49.9026 26.7173 49.9666 26.792C50.0306 26.856 50.0626 26.9413 50.0626 27.048V34.632C50.0626 34.7387 50.0306 34.8293 49.9666 34.904C49.9026 34.968 49.8173 35 49.7106 35H48.9426ZM48.8146 25.128C48.708 25.128 48.6173 25.096 48.5426 25.032C48.4786 24.9573 48.4466 24.8667 48.4466 24.76V23.896C48.4466 23.7893 48.4786 23.704 48.5426 23.64C48.6173 23.5653 48.708 23.528 48.8146 23.528H49.8226C49.9293 23.528 50.0146 23.5653 50.0786 23.64C50.1533 23.704 50.1906 23.7893 50.1906 23.896V24.76C50.1906 24.8667 50.1533 24.9573 50.0786 25.032C50.0146 25.096 49.9293 25.128 49.8226 25.128H48.8146ZM55.8409 35.16C55.0835 35.16 54.4275 35.016 53.8729 34.728C53.3289 34.4293 52.9075 34.008 52.6089 33.464C52.3102 32.9093 52.1502 32.248 52.1289 31.48C52.1182 31.32 52.1129 31.1067 52.1129 30.84C52.1129 30.5733 52.1182 30.36 52.1289 30.2C52.1502 29.432 52.3102 28.776 52.6089 28.232C52.9075 27.6773 53.3289 27.256 53.8729 26.968C54.4275 26.6693 55.0835 26.52 55.8409 26.52C56.4595 26.52 56.9875 26.6053 57.4249 26.776C57.8729 26.9467 58.2409 27.1653 58.5289 27.432C58.8169 27.6987 59.0302 27.9867 59.1689 28.296C59.3182 28.6053 59.3982 28.8987 59.4089 29.176C59.4195 29.2827 59.3875 29.368 59.3129 29.432C59.2382 29.496 59.1475 29.528 59.0409 29.528H58.2729C58.1662 29.528 58.0862 29.5067 58.0329 29.464C57.9795 29.4107 57.9262 29.3253 57.8729 29.208C57.6809 28.6853 57.4195 28.3173 57.0889 28.104C56.7582 27.8907 56.3475 27.784 55.8569 27.784C55.2169 27.784 54.6942 27.9813 54.2889 28.376C53.8942 28.7707 53.6809 29.4053 53.6489 30.28C53.6382 30.664 53.6382 31.0373 53.6489 31.4C53.6809 32.2853 53.8942 32.9253 54.2889 33.32C54.6942 33.704 55.2169 33.896 55.8569 33.896C56.3475 33.896 56.7582 33.7893 57.0889 33.576C57.4195 33.3627 57.6809 32.9947 57.8729 32.472C57.9262 32.3547 57.9795 32.2747 58.0329 32.232C58.0862 32.1787 58.1662 32.152 58.2729 32.152H59.0409C59.1475 32.152 59.2382 32.184 59.3129 32.248C59.3875 32.312 59.4195 32.3973 59.4089 32.504C59.3982 32.728 59.3502 32.9573 59.2649 33.192C59.1795 33.4267 59.0409 33.6667 58.8489 33.912C58.6675 34.1467 58.4382 34.36 58.1609 34.552C57.8835 34.7333 57.5475 34.8827 57.1529 35C56.7689 35.1067 56.3315 35.16 55.8409 35.16ZM64.265 35C64.1797 35 64.105 34.968 64.041 34.904C63.977 34.84 63.945 34.7653 63.945 34.68C63.945 34.6267 63.9503 34.568 63.961 34.504L67.929 24.152C67.9717 24.0453 68.0303 23.96 68.105 23.896C68.1797 23.832 68.2917 23.8 68.441 23.8H69.529C69.6677 23.8 69.7743 23.832 69.849 23.896C69.9343 23.96 69.9983 24.0453 70.041 24.152L73.993 34.504C74.0143 34.568 74.025 34.6267 74.025 34.68C74.025 34.7653 73.993 34.84 73.929 34.904C73.865 34.968 73.7903 35 73.705 35H72.889C72.761 35 72.665 34.968 72.601 34.904C72.5477 34.84 72.5103 34.7813 72.489 34.728L71.609 32.456H66.361L65.481 34.728C65.4703 34.7813 65.433 34.84 65.369 34.904C65.305 34.968 65.209 35 65.081 35H64.265ZM66.825 31.08H71.145L68.985 25.4L66.825 31.08ZM78.794 35.16C78.0367 35.16 77.3807 35.016 76.826 34.728C76.282 34.4293 75.8607 34.008 75.562 33.464C75.2633 32.9093 75.1033 32.248 75.082 31.48C75.0713 31.32 75.066 31.1067 75.066 30.84C75.066 30.5733 75.0713 30.36 75.082 30.2C75.1033 29.432 75.2633 28.776 75.562 28.232C75.8607 27.6773 76.282 27.256 76.826 26.968C77.3807 26.6693 78.0367 26.52 78.794 26.52C79.4127 26.52 79.9407 26.6053 80.378 26.776C80.826 26.9467 81.194 27.1653 81.482 27.432C81.77 27.6987 81.9833 27.9867 82.122 28.296C82.2713 28.6053 82.3513 28.8987 82.362 29.176C82.3727 29.2827 82.3407 29.368 82.266 29.432C82.1913 29.496 82.1007 29.528 81.994 29.528H81.226C81.1193 29.528 81.0393 29.5067 80.986 29.464C80.9327 29.4107 80.8793 29.3253 80.826 29.208C80.634 28.6853 80.3727 28.3173 80.042 28.104C79.7113 27.8907 79.3007 27.784 78.81 27.784C78.17 27.784 77.6473 27.9813 77.242 28.376C76.8473 28.7707 76.634 29.4053 76.602 30.28C76.5913 30.664 76.5913 31.0373 76.602 31.4C76.634 32.2853 76.8473 32.9253 77.242 33.32C77.6473 33.704 78.17 33.896 78.81 33.896C79.3007 33.896 79.7113 33.7893 80.042 33.576C80.3727 33.3627 80.634 32.9947 80.826 32.472C80.8793 32.3547 80.9327 32.2747 80.986 32.232C81.0393 32.1787 81.1193 32.152 81.226 32.152H81.994C82.1007 32.152 82.1913 32.184 82.266 32.248C82.3407 32.312 82.3727 32.3973 82.362 32.504C82.3513 32.728 82.3033 32.9573 82.218 33.192C82.1327 33.4267 81.994 33.6667 81.802 33.912C81.6207 34.1467 81.3913 34.36 81.114 34.552C80.8367 34.7333 80.5007 34.8827 80.106 35C79.722 35.1067 79.2847 35.16 78.794 35.16ZM84.6301 35C84.5235 35 84.4328 34.968 84.3581 34.904C84.2941 34.8293 84.2621 34.7387 84.2621 34.632V27.048C84.2621 26.9413 84.2941 26.856 84.3581 26.792C84.4328 26.7173 84.5235 26.68 84.6301 26.68H85.3981C85.5048 26.68 85.5901 26.7173 85.6541 26.792C85.7181 26.856 85.7501 26.9413 85.7501 27.048V34.632C85.7501 34.7387 85.7181 34.8293 85.6541 34.904C85.5901 34.968 85.5048 35 85.3981 35H84.6301ZM84.5021 25.128C84.3955 25.128 84.3048 25.096 84.2301 25.032C84.1661 24.9573 84.1341 24.8667 84.1341 24.76V23.896C84.1341 23.7893 84.1661 23.704 84.2301 23.64C84.3048 23.5653 84.3955 23.528 84.5021 23.528H85.5101C85.6168 23.528 85.7021 23.5653 85.7661 23.64C85.8408 23.704 85.8781 23.7893 85.8781 23.896V24.76C85.8781 24.8667 85.8408 24.9573 85.7661 25.032C85.7021 25.096 85.6168 25.128 85.5101 25.128H84.5021ZM91.1771 35.16C90.5905 35.16 90.0838 35.0587 89.6571 34.856C89.2305 34.6427 88.8785 34.36 88.6011 34.008C88.3345 33.6453 88.1318 33.2347 87.9931 32.776C87.8651 32.3173 87.7905 31.832 87.7691 31.32C87.7585 31.1493 87.7531 30.9893 87.7531 30.84C87.7531 30.6907 87.7585 30.5307 87.7691 30.36C87.7905 29.8587 87.8651 29.3787 87.9931 28.92C88.1318 28.4613 88.3345 28.0507 88.6011 27.688C88.8785 27.3253 89.2305 27.0427 89.6571 26.84C90.0838 26.6267 90.5905 26.52 91.1771 26.52C91.8065 26.52 92.3291 26.632 92.7451 26.856C93.1611 27.08 93.5025 27.3573 93.7691 27.688V24.008C93.7691 23.9013 93.8011 23.816 93.8651 23.752C93.9398 23.6773 94.0305 23.64 94.1371 23.64H94.9051C95.0118 23.64 95.0971 23.6773 95.1611 23.752C95.2358 23.816 95.2731 23.9013 95.2731 24.008V34.632C95.2731 34.7387 95.2358 34.8293 95.1611 34.904C95.0971 34.968 95.0118 35 94.9051 35H94.1851C94.0678 35 93.9771 34.968 93.9131 34.904C93.8491 34.8293 93.8171 34.7387 93.8171 34.632V33.96C93.5505 34.3013 93.2038 34.5893 92.7771 34.824C92.3505 35.048 91.8171 35.16 91.1771 35.16ZM91.5131 33.864C92.0465 33.864 92.4731 33.7413 92.7931 33.496C93.1131 33.2507 93.3531 32.9413 93.5131 32.568C93.6731 32.184 93.7585 31.7947 93.7691 31.4C93.7798 31.2293 93.7851 31.0267 93.7851 30.792C93.7851 30.5467 93.7798 30.3387 93.7691 30.168C93.7585 29.7947 93.6678 29.4267 93.4971 29.064C93.3371 28.7013 93.0918 28.4027 92.7611 28.168C92.4411 27.9333 92.0251 27.816 91.5131 27.816C90.9691 27.816 90.5371 27.9387 90.2171 28.184C89.8971 28.4187 89.6678 28.7333 89.5291 29.128C89.3905 29.512 89.3105 29.928 89.2891 30.376C89.2785 30.6853 89.2785 30.9947 89.2891 31.304C89.3105 31.752 89.3905 32.1733 89.5291 32.568C89.6678 32.952 89.8971 33.2667 90.2171 33.512C90.5371 33.7467 90.9691 33.864 91.5131 33.864Z" fill="white"/>
<path d="M32.309 72.24C31.157 72.24 30.165 72.08 29.333 71.76C28.517 71.424 27.837 70.968 27.293 70.392C26.765 69.8 26.365 69.12 26.093 68.352C25.837 67.568 25.685 66.736 25.637 65.856C25.621 65.424 25.605 64.944 25.589 64.416C25.589 63.872 25.589 63.328 25.589 62.784C25.605 62.24 25.621 61.744 25.637 61.296C25.669 60.416 25.821 59.592 26.093 58.824C26.381 58.056 26.797 57.384 27.341 56.808C27.885 56.232 28.565 55.784 29.381 55.464C30.213 55.128 31.189 54.96 32.309 54.96C33.429 54.96 34.397 55.128 35.213 55.464C36.029 55.784 36.709 56.232 37.253 56.808C37.797 57.384 38.205 58.056 38.477 58.824C38.765 59.592 38.933 60.416 38.981 61.296C38.997 61.744 39.005 62.24 39.005 62.784C39.021 63.328 39.021 63.872 39.005 64.416C39.005 64.944 38.997 65.424 38.981 65.856C38.933 66.736 38.773 67.568 38.501 68.352C38.229 69.12 37.821 69.8 37.277 70.392C36.749 70.968 36.069 71.424 35.237 71.76C34.421 72.08 33.445 72.24 32.309 72.24ZM32.309 69.12C33.237 69.12 33.917 68.816 34.349 68.208C34.781 67.6 35.013 66.776 35.045 65.736C35.061 65.272 35.069 64.792 35.069 64.296C35.085 63.8 35.085 63.304 35.069 62.808C35.069 62.312 35.061 61.848 35.045 61.416C35.013 60.424 34.781 59.616 34.349 58.992C33.917 58.368 33.237 58.048 32.309 58.032C31.365 58.048 30.677 58.368 30.245 58.992C29.829 59.616 29.605 60.424 29.573 61.416C29.557 61.848 29.541 62.312 29.525 62.808C29.525 63.304 29.525 63.8 29.525 64.296C29.541 64.792 29.557 65.272 29.573 65.736C29.605 66.776 29.837 67.6 30.269 68.208C30.701 68.816 31.381 69.12 32.309 69.12ZM42.0813 72C41.9053 72 41.7613 71.944 41.6493 71.832C41.5373 71.72 41.4813 71.576 41.4813 71.4V68.712C41.4813 68.536 41.5373 68.392 41.6493 68.28C41.7613 68.168 41.9053 68.112 42.0813 68.112H44.7693C44.9453 68.112 45.0893 68.168 45.2013 68.28C45.3133 68.392 45.3693 68.536 45.3693 68.712V71.4C45.3693 71.576 45.3133 71.72 45.2013 71.832C45.0893 71.944 44.9453 72 44.7693 72H42.0813ZM49.4281 72C49.2841 72 49.1641 71.952 49.0681 71.856C48.9721 71.744 48.9241 71.616 48.9241 71.472C48.9241 71.408 48.9401 71.336 48.9721 71.256L54.6361 58.416H47.2681C47.1081 58.416 46.9641 58.36 46.8361 58.248C46.7241 58.136 46.6681 58 46.6681 57.84V55.8C46.6681 55.624 46.7241 55.48 46.8361 55.368C46.9641 55.256 47.1081 55.2 47.2681 55.2H58.1401C58.3321 55.2 58.4761 55.256 58.5721 55.368C58.6841 55.48 58.7401 55.624 58.7401 55.8V57.6C58.7401 57.84 58.7161 58.04 58.6681 58.2C58.6361 58.344 58.5801 58.496 58.5001 58.656L52.8601 71.424C52.8121 71.52 52.7241 71.64 52.5961 71.784C52.4841 71.928 52.3001 72 52.0441 72H49.4281ZM71.7318 72.24C70.5638 72.24 69.5318 72.024 68.6358 71.592C67.7558 71.16 67.0598 70.536 66.5478 69.72C66.0358 68.888 65.7558 67.896 65.7078 66.744C65.6918 66.488 65.6838 66.168 65.6838 65.784C65.6838 65.384 65.6918 65.056 65.7078 64.8C65.7558 63.632 66.0278 62.64 66.5238 61.824C67.0358 60.992 67.7398 60.36 68.6358 59.928C69.5318 59.496 70.5638 59.28 71.7318 59.28C72.8038 59.28 73.7158 59.432 74.4678 59.736C75.2198 60.024 75.8358 60.392 76.3158 60.84C76.7958 61.288 77.1478 61.76 77.3718 62.256C77.6118 62.736 77.7398 63.16 77.7558 63.528C77.7718 63.688 77.7158 63.832 77.5878 63.96C77.4758 64.072 77.3398 64.128 77.1798 64.128H74.6118C74.4518 64.128 74.3238 64.088 74.2278 64.008C74.1478 63.912 74.0678 63.784 73.9878 63.624C73.7638 63.064 73.4758 62.664 73.1238 62.424C72.7718 62.184 72.3318 62.064 71.8038 62.064C71.0838 62.064 70.5158 62.296 70.0998 62.76C69.6838 63.224 69.4598 63.944 69.4278 64.92C69.4118 65.544 69.4118 66.112 69.4278 66.624C69.4758 67.616 69.6998 68.336 70.0998 68.784C70.5158 69.232 71.0838 69.456 71.8038 69.456C72.3638 69.456 72.8118 69.336 73.1478 69.096C73.4838 68.856 73.7638 68.456 73.9878 67.896C74.0518 67.736 74.1318 67.616 74.2278 67.536C74.3238 67.44 74.4518 67.392 74.6118 67.392H77.1798C77.3398 67.392 77.4758 67.456 77.5878 67.584C77.7158 67.696 77.7718 67.832 77.7558 67.992C77.7398 68.264 77.6598 68.584 77.5158 68.952C77.3878 69.32 77.1718 69.696 76.8678 70.08C76.5798 70.464 76.2038 70.824 75.7398 71.16C75.2758 71.48 74.7078 71.744 74.0358 71.952C73.3798 72.144 72.6118 72.24 71.7318 72.24ZM80.9737 72C80.7977 72 80.6537 71.944 80.5417 71.832C80.4297 71.72 80.3737 71.576 80.3737 71.4V55.8C80.3737 55.624 80.4297 55.48 80.5417 55.368C80.6537 55.256 80.7977 55.2 80.9737 55.2H83.6377C83.8137 55.2 83.9577 55.256 84.0697 55.368C84.1817 55.48 84.2377 55.624 84.2377 55.8V68.784H91.6777C91.8537 68.784 91.9977 68.84 92.1097 68.952C92.2217 69.064 92.2777 69.208 92.2777 69.384V71.4C92.2777 71.576 92.2217 71.72 92.1097 71.832C91.9977 71.944 91.8537 72 91.6777 72H80.9737Z" fill="white"/>
<rect width="117" height="39" transform="translate(0 98)" fill="#C4585D"/>
<path d="M38.7832 123C38.6765 123 38.5859 122.968 38.5112 122.904C38.4472 122.829 38.4152 122.739 38.4152 122.632V113.672L35.7592 115.72C35.6739 115.784 35.5832 115.811 35.4872 115.8C35.3912 115.789 35.3112 115.741 35.2472 115.656L34.8312 115.128C34.7672 115.032 34.7405 114.936 34.7512 114.84C34.7725 114.744 34.8259 114.664 34.9112 114.6L38.3992 111.912C38.4739 111.859 38.5432 111.827 38.6072 111.816C38.6712 111.805 38.7405 111.8 38.8152 111.8H39.6312C39.7379 111.8 39.8232 111.837 39.8872 111.912C39.9512 111.976 39.9832 112.061 39.9832 112.168V122.632C39.9832 122.739 39.9512 122.829 39.8872 122.904C39.8232 122.968 39.7379 123 39.6312 123H38.7832ZM45.8829 123.16C45.0403 123.16 44.3256 123.016 43.7389 122.728C43.1629 122.429 42.7203 122.045 42.4109 121.576C42.1123 121.107 41.9523 120.611 41.9309 120.088C41.9203 119.992 41.9469 119.917 42.0109 119.864C42.0749 119.811 42.1549 119.784 42.2509 119.784H43.1149C43.2109 119.784 43.2963 119.805 43.3709 119.848C43.4456 119.891 43.5043 119.981 43.5469 120.12C43.6536 120.515 43.8243 120.84 44.0589 121.096C44.3043 121.341 44.5816 121.523 44.8909 121.64C45.2109 121.747 45.5416 121.8 45.8829 121.8C46.3416 121.8 46.7576 121.709 47.1309 121.528C47.5149 121.336 47.8189 121.059 48.0429 120.696C48.2669 120.323 48.3789 119.875 48.3789 119.352C48.3789 118.872 48.2669 118.461 48.0429 118.12C47.8296 117.768 47.5309 117.501 47.1469 117.32C46.7736 117.128 46.3523 117.032 45.8829 117.032C45.5309 117.032 45.2429 117.075 45.0189 117.16C44.7949 117.245 44.6029 117.347 44.4429 117.464C44.2936 117.581 44.1549 117.683 44.0269 117.768C43.9096 117.853 43.7763 117.896 43.6269 117.896H42.7949C42.6989 117.896 42.6136 117.864 42.5389 117.8C42.4643 117.725 42.4323 117.64 42.4429 117.544L42.9549 112.2C42.9656 112.072 43.0029 111.976 43.0669 111.912C43.1416 111.837 43.2376 111.8 43.3549 111.8H48.9389C49.0456 111.8 49.1309 111.837 49.1949 111.912C49.2696 111.976 49.3069 112.061 49.3069 112.168V112.792C49.3069 112.909 49.2696 113 49.1949 113.064C49.1309 113.128 49.0456 113.16 48.9389 113.16H44.3309L44.0269 116.312C44.1763 116.216 44.4163 116.104 44.7469 115.976C45.0776 115.837 45.5309 115.768 46.1069 115.768C46.6296 115.768 47.1203 115.848 47.5789 116.008C48.0483 116.168 48.4643 116.403 48.8269 116.712C49.1896 117.021 49.4723 117.4 49.6749 117.848C49.8776 118.285 49.9789 118.792 49.9789 119.368C49.9789 120.179 49.7976 120.867 49.4349 121.432C49.0829 121.997 48.5976 122.429 47.9789 122.728C47.3709 123.016 46.6723 123.16 45.8829 123.16ZM55.7829 123.16C55.0469 123.16 54.4229 123.048 53.9109 122.824C53.4096 122.589 52.9989 122.269 52.6789 121.864C52.3589 121.459 52.1243 120.995 51.9749 120.472C51.8363 119.949 51.7563 119.395 51.7349 118.808C51.7243 118.52 51.7136 118.216 51.7029 117.896C51.7029 117.576 51.7029 117.256 51.7029 116.936C51.7136 116.605 51.7243 116.291 51.7349 115.992C51.7456 115.405 51.8256 114.851 51.9749 114.328C52.1349 113.795 52.3696 113.331 52.6789 112.936C52.9989 112.531 53.4149 112.216 53.9269 111.992C54.4389 111.757 55.0576 111.64 55.7829 111.64C56.5189 111.64 57.1376 111.757 57.6389 111.992C58.1509 112.216 58.5669 112.531 58.8869 112.936C59.2069 113.331 59.4416 113.795 59.5909 114.328C59.7509 114.851 59.8363 115.405 59.8469 115.992C59.8576 116.291 59.8629 116.605 59.8629 116.936C59.8736 117.256 59.8736 117.576 59.8629 117.896C59.8629 118.216 59.8576 118.52 59.8469 118.808C59.8363 119.395 59.7509 119.949 59.5909 120.472C59.4416 120.995 59.2069 121.459 58.8869 121.864C58.5776 122.269 58.1669 122.589 57.6549 122.824C57.1536 123.048 56.5296 123.16 55.7829 123.16ZM55.7829 121.8C56.6149 121.8 57.2283 121.528 57.6229 120.984C58.0283 120.429 58.2363 119.677 58.2469 118.728C58.2683 118.419 58.2789 118.12 58.2789 117.832C58.2789 117.533 58.2789 117.24 58.2789 116.952C58.2789 116.653 58.2683 116.36 58.2469 116.072C58.2363 115.144 58.0283 114.403 57.6229 113.848C57.2283 113.283 56.6149 113 55.7829 113C54.9616 113 54.3483 113.283 53.9429 113.848C53.5483 114.403 53.3403 115.144 53.3189 116.072C53.3189 116.36 53.3136 116.653 53.3029 116.952C53.3029 117.24 53.3029 117.533 53.3029 117.832C53.3136 118.12 53.3189 118.419 53.3189 118.728C53.3403 119.677 53.5536 120.429 53.9589 120.984C54.3643 121.528 54.9723 121.8 55.7829 121.8ZM69.3331 123.16C68.5757 123.16 67.9197 123.016 67.3651 122.728C66.8211 122.429 66.3997 122.008 66.1011 121.464C65.8024 120.909 65.6424 120.248 65.6211 119.48C65.6104 119.32 65.6051 119.107 65.6051 118.84C65.6051 118.573 65.6104 118.36 65.6211 118.2C65.6424 117.432 65.8024 116.776 66.1011 116.232C66.3997 115.677 66.8211 115.256 67.3651 114.968C67.9197 114.669 68.5757 114.52 69.3331 114.52C69.9517 114.52 70.4797 114.605 70.9171 114.776C71.3651 114.947 71.7331 115.165 72.0211 115.432C72.3091 115.699 72.5224 115.987 72.6611 116.296C72.8104 116.605 72.8904 116.899 72.9011 117.176C72.9117 117.283 72.8797 117.368 72.8051 117.432C72.7304 117.496 72.6397 117.528 72.5331 117.528H71.7651C71.6584 117.528 71.5784 117.507 71.5251 117.464C71.4717 117.411 71.4184 117.325 71.3651 117.208C71.1731 116.685 70.9117 116.317 70.5811 116.104C70.2504 115.891 69.8397 115.784 69.3491 115.784C68.7091 115.784 68.1864 115.981 67.7811 116.376C67.3864 116.771 67.1731 117.405 67.1411 118.28C67.1304 118.664 67.1304 119.037 67.1411 119.4C67.1731 120.285 67.3864 120.925 67.7811 121.32C68.1864 121.704 68.7091 121.896 69.3491 121.896C69.8397 121.896 70.2504 121.789 70.5811 121.576C70.9117 121.363 71.1731 120.995 71.3651 120.472C71.4184 120.355 71.4717 120.275 71.5251 120.232C71.5784 120.179 71.6584 120.152 71.7651 120.152H72.5331C72.6397 120.152 72.7304 120.184 72.8051 120.248C72.8797 120.312 72.9117 120.397 72.9011 120.504C72.8904 120.728 72.8424 120.957 72.7571 121.192C72.6717 121.427 72.5331 121.667 72.3411 121.912C72.1597 122.147 71.9304 122.36 71.6531 122.552C71.3757 122.733 71.0397 122.883 70.6451 123C70.2611 123.107 69.8237 123.16 69.3331 123.16ZM75.3772 123C75.2599 123 75.1692 122.968 75.1052 122.904C75.0412 122.829 75.0092 122.739 75.0092 122.632V112.168C75.0092 112.061 75.0412 111.976 75.1052 111.912C75.1692 111.837 75.2599 111.8 75.3772 111.8H76.2252C76.3319 111.8 76.4172 111.837 76.4812 111.912C76.5452 111.976 6.5772 112.061 76.5772 112.168V121.608H81.9052C82.0225 121.608 82.1132 121.645 82.1772 121.72C82.2412 121.784 82.2732 121.875 82.2732 121.992V122.632C82.2732 122.739 82.2412 122.829 82.1772 122.904C82.1132 122.968 82.0225 123 81.9052 123H75.3772Z" fill="white"/>
</svg>
