<svg width="117" height="137" viewBox="0 0 117 137" fill="none" xmlns="http://www.w3.org/2000/svg">
<rect width="117" height="98" fill="#BA2128"/>
<path d="M32.9474 35.16C31.9661 35.16 31.1501 34.9787 30.4994 34.616C29.8594 34.2533 29.3741 33.7467 29.0434 33.096C28.7128 32.4453 28.5314 31.688 28.4994 30.824C28.4888 30.3867 28.4834 29.9173 28.4834 29.416C28.4834 28.9147 28.4888 28.4347 28.4994 27.976C28.5314 27.112 28.7128 26.3547 29.0434 25.704C29.3741 25.0533 29.8594 24.5467 30.4994 24.184C31.1501 23.8213 31.9661 23.64 32.9474 23.64C33.6834 23.64 34.3288 23.7413 34.8834 23.944C35.4381 24.1467 35.8968 24.4187 36.2594 24.76C36.6328 25.1013 36.9154 25.4853 37.1074 25.912C37.2994 26.328 37.4061 26.76 37.4274 27.208C37.4381 27.304 37.4061 27.384 37.3314 27.448C37.2674 27.512 37.1874 27.544 37.0914 27.544H36.2114C36.1154 27.544 36.0301 27.5173 35.9554 27.464C35.8914 27.4107 35.8434 27.3147 35.8114 27.176C35.6301 26.344 35.2888 25.7733 34.7874 25.464C34.2968 25.1547 33.6781 25 32.9314 25C32.0781 25 31.4008 25.2453 30.8994 25.736C30.3981 26.216 30.1261 26.9893 30.0834 28.056C30.0514 28.9307 30.0514 29.8267 30.0834 30.744C30.1261 31.8107 30.3981 32.5893 30.8994 33.08C31.4008 33.56 32.0781 33.8 32.9314 33.8C33.6781 33.8 34.2968 33.6453 34.7874 33.336C35.2888 33.0267 35.6301 32.456 35.8114 31.624C35.8434 31.4853 35.8914 31.3893 35.9554 31.336C36.0301 31.2827 36.1154 31.256 36.2114 31.256H37.0914C37.1874 31.256 37.2674 31.288 37.3314 31.352C37.4061 31.416 37.4381 31.496 37.4274 31.592C37.4061 32.04 37.2994 32.4773 37.1074 32.904C36.9154 33.32 36.6328 33.6987 36.2594 34.04C35.8968 34.3813 35.4381 34.6533 34.8834 34.856C34.3288 35.0587 33.6834 35.16 32.9474 35.16ZM41.6837 35.16C41.1504 35.16 40.665 35.0533 40.2277 34.84C39.7904 34.6267 39.4384 34.3387 39.1717 33.976C38.905 33.6133 38.7717 33.2027 38.7717 32.744C38.7717 32.008 39.0704 31.4213 39.6677 30.984C40.265 30.5467 41.0437 30.2587 42.0037 30.12L44.3877 29.784V29.32C44.3877 28.808 44.2384 28.408 43.9397 28.12C43.6517 27.832 43.177 27.688 42.5157 27.688C42.0357 27.688 41.6464 27.784 41.3477 27.976C41.0597 28.168 40.857 28.4133 40.7397 28.712C40.6757 28.872 40.5637 28.952 40.4037 28.952H39.6837C39.5664 28.952 39.4757 28.92 39.4117 28.856C39.3584 28.7813 39.3317 28.696 39.3317 28.6C39.3317 28.44 39.3904 28.2427 39.5077 28.008C39.6357 27.7733 39.8277 27.544 40.0837 27.32C40.3397 27.096 40.665 26.9093 41.0597 26.76C41.465 26.6 41.9557 26.52 42.5317 26.52C43.1717 26.52 43.7104 26.6053 44.1477 26.776C44.585 26.936 44.9264 27.1547 45.1717 27.432C45.4277 27.7093 45.609 28.024 45.7157 28.376C45.833 28.728 45.8917 29.0853 45.8917 29.448V34.632C45.8917 34.7387 45.8544 34.8293 45.7797 34.904C45.7157 34.968 45.6304 35 45.5237 35H44.7877C44.6704 35 44.5797 34.968 44.5157 34.904C44.4517 34.8293 44.4197 34.7387 44.4197 34.632V33.944C44.281 34.136 44.0944 34.328 43.8597 34.52C43.625 34.7013 43.3317 34.856 42.9797 34.984C42.6277 35.1013 42.1957 35.16 41.6837 35.16ZM42.0197 33.96C42.457 33.96 42.857 33.8693 43.2197 33.688C43.5824 33.496 43.865 33.2027 44.0677 32.808C44.281 32.4133 44.3877 31.9173 44.3877 31.32V30.872L42.5317 31.144C41.7744 31.2507 41.2037 31.432 40.8197 31.688C40.4357 31.9333 40.2437 32.248 40.2437 32.632C40.2437 32.9307 40.329 33.1813 40.4997 33.384C40.681 33.576 40.905 33.72 41.1717 33.816C41.449 33.912 41.7317 33.96 42.0197 33.96ZM49.3137 35C49.207 35 49.1164 34.968 49.0417 34.904C48.9777 34.8293 48.9457 34.7387 48.9457 34.632V27.96H47.5857C47.479 27.96 47.3884 27.928 47.3137 27.864C47.2497 27.7893 47.2177 27.6987 47.2177 27.592V27.048C47.2177 26.9413 47.2497 26.856 47.3137 26.792C47.3884 26.7173 47.479 26.68 47.5857 26.68H48.9457V25.88C48.9457 25.336 49.0364 24.8613 49.2177 24.456C49.399 24.04 49.687 23.72 50.0817 23.496C50.487 23.272 51.0257 23.16 51.6977 23.16H52.6577C52.7644 23.16 52.8497 23.1973 52.9137 23.272C52.9777 23.336 53.0097 23.4213 53.0097 23.528V24.072C53.0097 24.1787 52.9777 24.2693 52.9137 24.344C52.8497 24.408 52.7644 24.44 52.6577 24.44H51.7297C51.2284 24.44 50.887 24.5733 50.7057 24.84C50.5244 25.096 50.4337 25.4693 50.4337 25.96V26.68H53.8577V25.88C53.8577 25.336 53.943 24.8613 54.1137 24.456C54.295 24.04 54.583 23.72 54.9777 23.496C55.383 23.272 55.9217 23.16 56.5937 23.16H57.5537C57.6604 23.16 57.7457 23.1973 57.8097 23.272C57.8844 23.336 57.9217 23.4213 57.9217 23.528V24.072C57.9217 24.1787 57.8844 24.2693 57.8097 24.344C57.7457 24.408 57.6604 24.44 57.5537 24.44H56.6257C56.1244 24.44 55.783 24.5733 55.6017 24.84C55.4204 25.096 55.3297 25.4693 55.3297 25.96V26.68H57.3937C57.5004 26.68 57.5857 26.7173 57.6497 26.792C57.7244 26.856 57.7617 26.9413 57.7617 27.048V27.592C57.7617 27.6987 57.7244 27.7893 57.6497 27.864C57.5857 27.928 57.5004 27.96 57.3937 27.96H55.3297V34.632C55.3297 34.7387 55.2977 34.8293 55.2337 34.904C55.1697 34.968 55.079 35 54.9617 35H54.2257C54.119 35 54.0284 34.968 53.9537 34.904C53.8897 34.8293 53.8577 34.7387 53.8577 34.632V27.96H50.4337V34.632C50.4337 34.7387 50.3964 34.8293 50.3217 34.904C50.2577 34.968 50.1724 35 50.0657 35H49.3137ZM62.3319 35.16C61.2333 35.16 60.3586 34.824 59.7079 34.152C59.0573 33.4693 58.6999 32.5413 58.6359 31.368C58.6253 31.2293 58.6199 31.0533 58.6199 30.84C58.6199 30.616 58.6253 30.4347 58.6359 30.296C58.6786 29.5387 58.8546 28.8773 59.1639 28.312C59.4733 27.736 59.8946 27.2933 60.4279 26.984C60.9719 26.6747 61.6066 26.52 62.3319 26.52C63.1426 26.52 63.8199 26.6907 64.3639 27.032C64.9186 27.3733 65.3399 27.8587 65.6279 28.488C65.9159 29.1173 66.0599 29.8533 66.0599 30.696V30.968C66.0599 31.0853 66.0226 31.176 65.9479 31.24C65.8839 31.304 65.7986 31.336 65.6919 31.336H60.1559C60.1559 31.3467 60.1559 31.368 60.1559 31.4C60.1559 31.432 60.1559 31.4587 60.1559 31.48C60.1773 31.9173 60.2733 32.328 60.4439 32.712C60.6146 33.0853 60.8599 33.3893 61.1799 33.624C61.4999 33.8587 61.8839 33.976 62.3319 33.976C62.7159 33.976 63.0359 33.9173 63.2919 33.8C63.5479 33.6827 63.7559 33.5547 63.9159 33.416C64.0759 33.2667 64.1826 33.1547 64.2359 33.08C64.3319 32.9413 64.4066 32.8613 64.4599 32.84C64.5133 32.808 64.5986 32.792 64.7159 32.792H65.4839C65.5906 32.792 65.6759 32.824 65.7399 32.888C65.8146 32.9413 65.8466 33.0213 65.8359 33.128C65.8253 33.288 65.7399 33.4853 65.5799 33.72C65.4199 33.944 65.1906 34.168 64.8919 34.392C64.5933 34.616 64.2306 34.8027 63.8039 34.952C63.3773 35.0907 62.8866 35.16 62.3319 35.16ZM60.1559 30.232H64.5399V30.184C64.5399 29.704 64.4493 29.2773 64.2679 28.904C64.0973 28.5307 63.8466 28.2373 63.5159 28.024C63.1853 27.8 62.7906 27.688 62.3319 27.688C61.8733 27.688 61.4786 27.8 61.1479 28.024C60.8279 28.2373 60.5826 28.5307 60.4119 28.904C60.2413 29.2773 60.1559 29.704 60.1559 30.184V30.232ZM68.3411 35C68.2344 35 68.1437 34.968 68.0691 34.904C68.0051 34.8293 67.9731 34.7387 67.9731 34.632V27.048C67.9731 26.9413 68.0051 26.856 68.0691 26.792C68.1437 26.7173 68.2344 26.68 68.3411 26.68H69.1091C69.2157 26.68 69.3011 26.7173 69.3651 26.792C69.4291 26.856 69.4611 26.9413 69.4611 27.048V34.632C69.4611 34.7387 69.4291 34.8293 69.3651 34.904C69.3011 34.968 69.2157 35 69.1091 35H68.3411ZM68.2131 25.128C68.1064 25.128 68.0157 25.096 67.9411 25.032C67.8771 24.9573 67.8451 24.8667 67.8451 24.76V23.896C67.8451 23.7893 67.8771 23.704 67.9411 23.64C68.0157 23.5653 68.1064 23.528 68.2131 23.528H69.2211C69.3277 23.528 69.4131 23.5653 69.4771 23.64C69.5517 23.704 69.5891 23.7893 69.5891 23.896V24.76C69.5891 24.8667 69.5517 24.9573 69.4771 25.032C69.4131 25.096 69.3277 25.128 69.2211 25.128H68.2131ZM72.3723 35C72.2656 35 72.175 34.968 72.1003 34.904C72.0363 34.8293 72.0043 34.7387 72.0043 34.632V27.048C72.0043 26.9413 72.0363 26.856 72.1003 26.792C72.175 26.7173 72.2656 26.68 72.3723 26.68H73.1243C73.231 26.68 73.3163 26.7173 73.3803 26.792C73.455 26.856 73.4923 26.9413 73.4923 27.048V27.752C73.7696 27.3893 74.1163 27.096 74.5323 26.872C74.959 26.6373 75.503 26.52 76.1643 26.52C76.8576 26.52 77.4443 26.6747 77.9243 26.984C78.415 27.2827 78.783 27.704 79.0283 28.248C79.2736 28.7813 79.3963 29.4053 79.3963 30.12V34.632C79.3963 34.7387 79.3643 34.8293 79.3003 34.904C79.2363 34.968 79.151 35 79.0443 35H78.2443C78.1376 35 78.047 34.968 77.9723 34.904C77.9083 34.8293 77.8763 34.7387 77.8763 34.632V30.2C77.8763 29.4533 77.695 28.872 77.3323 28.456C76.9696 28.0293 76.4363 27.816 75.7323 27.816C75.071 27.816 74.5376 28.0293 74.1323 28.456C73.7376 28.872 73.5403 29.4533 73.5403 30.2V34.632C73.5403 34.7387 73.503 34.8293 73.4283 34.904C73.3643 34.968 73.279 35 73.1723 35H72.3723ZM85.0194 35.16C83.9208 35.16 83.0461 34.824 82.3954 34.152C81.7448 33.4693 81.3874 32.5413 81.3234 31.368C81.3128 31.2293 81.3074 31.0533 81.3074 30.84C81.3074 30.616 81.3128 30.4347 81.3234 30.296C81.3661 29.5387 81.5421 28.8773 81.8514 28.312C82.1608 27.736 82.5821 27.2933 83.1154 26.984C83.6594 26.6747 84.2941 26.52 85.0194 26.52C85.8301 26.52 86.5074 26.6907 87.0514 27.032C87.6061 27.3733 88.0274 27.8587 88.3154 28.488C88.6034 29.1173 88.7474 29.8533 88.7474 30.696V30.968C88.7474 31.0853 88.7101 31.176 88.6354 31.24C88.5714 31.304 88.4861 31.336 88.3794 31.336H82.8434C82.8434 31.3467 82.8434 31.368 82.8434 31.4C82.8434 31.432 82.8434 31.4587 82.8434 31.48C82.8648 31.9173 82.9608 32.328 83.1314 32.712C83.3021 33.0853 83.5474 33.3893 83.8674 33.624C84.1874 33.8587 84.5714 33.976 85.0194 33.976C85.4034 33.976 85.7234 33.9173 85.9794 33.8C86.2354 33.6827 86.4434 33.5547 86.6034 33.416C86.7634 33.2667 86.8701 33.1547 86.9234 33.08C87.0194 32.9413 87.0941 32.8613 87.1474 32.84C87.2008 32.808 87.2861 32.792 87.4034 32.792H88.1714C88.2781 32.792 88.3634 32.824 88.4274 32.888C88.5021 32.9413 88.5341 33.0213 88.5234 33.128C88.5128 33.288 88.4274 33.4853 88.2674 33.72C88.1074 33.944 87.8781 34.168 87.5794 34.392C87.2808 34.616 86.9181 34.8027 86.4914 34.952C86.0648 35.0907 85.5741 35.16 85.0194 35.16ZM82.8434 30.232H87.2274V30.184C87.2274 29.704 87.1368 29.2773 86.9554 28.904C86.7848 28.5307 86.5341 28.2373 86.2034 28.024C85.8728 27.8 85.4781 27.688 85.0194 27.688C84.5608 27.688 84.1661 27.8 83.8354 28.024C83.5154 28.2373 83.2701 28.5307 83.0994 28.904C82.9288 29.2773 82.8434 29.704 82.8434 30.184V30.232Z" fill="white"/>
<path d="M41.6519 72C41.4919 72 41.3479 71.944 41.2199 71.832C41.1079 71.72 41.0519 71.576 41.0519 71.4V59.472L37.5959 62.136C37.4519 62.248 37.2999 62.288 37.1399 62.256C36.9959 62.224 36.8679 62.136 36.7559 61.992L35.5559 60.432C35.4599 60.288 35.4199 60.136 35.4359 59.976C35.4679 59.816 35.5559 59.688 35.6999 59.592L41.1719 55.368C41.2679 55.304 41.3559 55.264 41.4359 55.248C41.5319 55.216 41.6359 55.2 41.7479 55.2H44.2919C44.4519 55.2 44.5879 55.256 44.6999 55.368C44.8119 55.48 44.8679 55.624 44.8679 55.8V71.4C44.8679 71.576 44.8119 71.72 44.6999 71.832C44.5879 71.944 44.4519 72 44.2919 72H41.6519ZM48.1203 72C47.9443 72 47.8003 71.944 47.6883 71.832C47.5763 71.72 47.5203 71.576 47.5203 71.4V69.96C47.5203 69.832 47.5523 69.664 47.6163 69.456C47.6963 69.232 47.8643 69.016 48.1203 68.808L51.2883 65.664C52.4563 64.768 53.4003 64.008 54.1203 63.384C54.8563 62.76 55.4003 62.192 55.7523 61.68C56.1043 61.168 56.2803 60.672 56.2803 60.192C56.2803 59.568 56.1043 59.056 55.7523 58.656C55.4163 58.24 54.8643 58.032 54.0963 58.032C53.5843 58.032 53.1523 58.144 52.8003 58.368C52.4643 58.576 52.2003 58.856 52.0083 59.208C51.8163 59.56 51.6883 59.944 51.6243 60.36C51.5763 60.568 51.4723 60.712 51.3123 60.792C51.1683 60.872 51.0163 60.912 50.8563 60.912H48.3123C48.1523 60.912 48.0243 60.864 47.9283 60.768C47.8323 60.656 47.7843 60.536 47.7843 60.408C47.8003 59.672 47.9523 58.976 48.2403 58.32C48.5443 57.664 48.9683 57.08 49.5123 56.568C50.0563 56.056 50.7123 55.656 51.4803 55.368C52.2483 55.064 53.1203 54.912 54.0963 54.912C55.4403 54.912 56.5683 55.136 57.4803 55.584C58.3923 56.016 59.0803 56.616 59.5443 57.384C60.0083 58.152 60.2403 59.04 60.2403 60.048C60.2403 60.816 60.0803 61.528 59.7603 62.184C59.4563 62.84 59.0083 63.472 58.4163 64.08C57.8243 64.672 57.1203 65.288 56.3043 65.928L53.4723 68.76H60.0003C60.1763 68.76 60.3203 68.816 60.4323 68.928C60.5443 69.04 60.6003 69.184 60.6003 69.36V71.4C60.6003 71.576 60.5443 71.72 60.4323 71.832C60.3203 71.944 60.1763 72 60.0003 72H48.1203ZM74.3641 77.28C73.1801 77.28 72.1961 77.12 71.4121 76.8C70.6281 76.496 70.0041 76.12 69.5401 75.672C69.0921 75.24 68.7721 74.808 68.5801 74.376C68.3881 73.944 68.2841 73.608 68.2681 73.368C68.2521 73.192 68.3081 73.048 68.4361 72.936C68.5641 72.824 68.7081 72.768 68.8681 72.768H71.4361C71.5801 72.768 71.7001 72.8 71.7961 72.864C71.9081 72.944 71.9961 73.072 72.0601 73.248C72.1401 73.44 72.2521 73.64 72.3961 73.848C72.5401 74.072 72.7561 74.256 73.0441 74.4C73.3481 74.544 73.7481 74.616 74.2441 74.616C74.8041 74.616 75.2681 74.536 75.6361 74.376C76.0041 74.216 76.2761 73.944 76.4521 73.56C76.6441 73.176 76.7401 72.656 76.7401 72V70.392C76.3561 70.808 75.8681 71.152 75.2761 71.424C74.7001 71.696 73.9881 71.832 73.1401 71.832C72.3081 71.832 71.5721 71.704 70.9321 71.448C70.3081 71.176 69.7881 70.8 69.3721 70.32C68.9561 69.824 68.6361 69.232 68.4121 68.544C68.1881 67.856 68.0601 67.08 68.0281 66.216C68.0121 65.784 68.0121 65.36 68.0281 64.944C68.0601 64.112 68.1881 63.352 68.4121 62.664C68.6361 61.976 68.9561 61.384 69.3721 60.888C69.7881 60.376 70.3081 59.984 70.9321 59.712C71.5721 59.424 72.3081 59.28 73.1401 59.28C74.0201 59.28 74.7721 59.448 75.3961 59.784C76.0201 60.12 76.5321 60.536 76.9321 61.032V60.12C76.9321 59.96 76.9881 59.824 77.1001 59.712C77.2121 59.584 77.3481 59.52 77.5081 59.52H79.8601C80.0201 59.52 80.1561 59.584 80.2681 59.712C80.3961 59.824 80.4601 59.96 80.4601 60.12L80.4841 71.664C80.4841 72.864 80.2521 73.88 79.7881 74.712C79.3241 75.544 78.6361 76.176 77.7241 76.608C76.8281 77.056 75.7081 77.28 74.3641 77.28ZM74.2441 69.024C74.8201 69.024 75.2841 68.896 75.6361 68.64C76.0041 68.368 76.2761 68.032 76.4521 67.632C76.6281 67.216 76.7241 66.784 76.7401 66.336C76.7561 66.16 76.7641 65.912 76.7641 65.592C76.7641 65.256 76.7561 65 76.7401 64.824C76.7241 64.376 76.6281 63.952 76.4521 63.552C76.2761 63.136 76.0041 62.8 75.6361 62.544C75.2841 62.288 74.8201 62.16 74.2441 62.16C73.6361 62.16 73.1561 62.296 72.8041 62.568C72.4521 62.824 72.1961 63.168 72.0361 63.6C71.8761 64.032 71.7801 64.504 71.7481 65.016C71.7321 65.4 71.7321 65.776 71.7481 66.144C71.7801 66.672 71.8761 67.152 72.0361 67.584C72.1961 68.016 72.4521 68.368 72.8041 68.64C73.1561 68.896 73.6361 69.024 74.2441 69.024Z" fill="white"/>
<rect width="117" height="39" transform="translate(0 98)" fill="#C4585D"/>
<path d="M38.7832 123C38.6765 123 38.5859 122.968 38.5112 122.904C38.4472 122.829 38.4152 122.739 38.4152 122.632V113.672L35.7592 115.72C35.6739 115.784 35.5832 115.811 35.4872 115.8C35.3912 115.789 35.3112 115.741 35.2472 115.656L34.8312 115.128C34.7672 115.032 34.7405 114.936 34.7512 114.84C34.7725 114.744 34.8259 114.664 34.9112 114.6L38.3992 111.912C38.4739 111.859 38.5432 111.827 38.6072 111.816C38.6712 111.805 38.7405 111.8 38.8152 111.8H39.6312C39.7379 111.8 39.8232 111.837 39.8872 111.912C39.9512 111.976 39.9832 112.061 39.9832 112.168V122.632C39.9832 122.739 39.9512 122.829 39.8872 122.904C39.8232 122.968 39.7379 123 39.6312 123H38.7832ZM45.8829 123.16C45.0403 123.16 44.3256 123.016 43.7389 122.728C43.1629 122.429 42.7203 122.045 42.4109 121.576C42.1123 121.107 41.9523 120.611 41.9309 120.088C41.9203 119.992 41.9469 119.917 42.0109 119.864C42.0749 119.811 42.1549 119.784 42.2509 119.784H43.1149C43.2109 119.784 43.2963 119.805 43.3709 119.848C43.4456 119.891 43.5043 119.981 43.5469 120.12C43.6536 120.515 43.8243 120.84 44.0589 121.096C44.3043 121.341 44.5816 121.523 44.8909 121.64C45.2109 121.747 45.5416 121.8 45.8829 121.8C46.3416 121.8 46.7576 121.709 47.1309 121.528C47.5149 121.336 47.8189 121.059 48.0429 120.696C48.2669 120.323 48.3789 119.875 48.3789 119.352C48.3789 118.872 48.2669 118.461 48.0429 118.12C47.8296 117.768 47.5309 117.501 47.1469 117.32C46.7736 117.128 46.3523 117.032 45.8829 117.032C45.5309 117.032 45.2429 117.075 45.0189 117.16C44.7949 117.245 44.6029 117.347 44.4429 117.464C44.2936 117.581 44.1549 117.683 44.0269 117.768C43.9096 117.853 43.7763 117.896 43.6269 117.896H42.7949C42.6989 117.896 42.6136 117.864 42.5389 117.8C42.4643 117.725 42.4323 117.64 42.4429 117.544L42.9549 112.2C42.9656 112.072 43.0029 111.976 43.0669 111.912C43.1416 111.837 43.2376 111.8 43.3549 111.8H48.9389C49.0456 111.8 49.1309 111.837 49.1949 111.912C49.2696 111.976 49.3069 112.061 49.3069 112.168V112.792C49.3069 112.909 49.2696 113 49.1949 113.064C49.1309 113.128 49.0456 113.16 48.9389 113.16H44.3309L44.0269 116.312C44.1763 116.216 44.4163 116.104 44.7469 115.976C45.0776 115.837 45.5309 115.768 46.1069 115.768C46.6296 115.768 47.1203 115.848 47.5789 116.008C48.0483 116.168 48.4643 116.403 48.8269 116.712C49.1896 117.021 49.4723 117.4 49.6749 117.848C49.8776 118.285 49.9789 118.792 49.9789 119.368C49.9789 120.179 49.7976 120.867 49.4349 121.432C49.0829 121.997 48.5976 122.429 47.9789 122.728C47.3709 123.016 46.6723 123.16 45.8829 123.16ZM55.7829 123.16C55.0469 123.16 54.4229 123.048 53.9109 122.824C53.4096 122.589 52.9989 122.269 52.6789 121.864C52.3589 121.459 52.1243 120.995 51.9749 120.472C51.8363 119.949 51.7563 119.395 51.7349 118.808C51.7243 118.52 51.7136 118.216 51.7029 117.896C51.7029 117.576 51.7029 117.256 51.7029 116.936C51.7136 116.605 51.7243 116.291 51.7349 115.992C51.7456 115.405 51.8256 114.851 51.9749 114.328C52.1349 113.795 52.3696 113.331 52.6789 112.936C52.9989 112.531 53.4149 112.216 53.9269 111.992C54.4389 111.757 55.0576 111.64 55.7829 111.64C56.5189 111.64 57.1376 111.757 57.6389 111.992C58.1509 112.216 58.5669 112.531 58.8869 112.936C59.2069 113.331 59.4416 113.795 59.5909 114.328C59.7509 114.851 59.8363 115.405 59.8469 115.992C59.8576 116.291 59.8629 116.605 59.8629 116.936C59.8736 117.256 59.8736 117.576 59.8629 117.896C59.8629 118.216 59.8576 118.52 59.8469 118.808C59.8363 119.395 59.7509 119.949 59.5909 120.472C59.4416 120.995 59.2069 121.459 58.8869 121.864C58.5776 122.269 58.1669 122.589 57.6549 122.824C57.1536 123.048 56.5296 123.16 55.7829 123.16ZM55.7829 121.8C56.6149 121.8 57.2283 121.528 57.6229 120.984C58.0283 120.429 58.2363 119.677 58.2469 118.728C58.2683 118.419 58.2789 118.12 58.2789 117.832C58.2789 117.533 58.2789 117.24 58.2789 116.952C58.2789 116.653 58.2683 116.36 58.2469 116.072C58.2363 115.144 58.0283 114.403 57.6229 113.848C57.2283 113.283 56.6149 113 55.7829 113C54.9616 113 54.3483 113.283 53.9429 113.848C53.5483 114.403 53.3403 115.144 53.3189 116.072C53.3189 116.36 53.3136 116.653 53.3029 116.952C53.3029 117.24 53.3029 117.533 53.3029 117.832C53.3136 118.12 53.3189 118.419 53.3189 118.728C53.3403 119.677 53.5536 120.429 53.9589 120.984C54.3643 121.528 54.9723 121.8 55.7829 121.8ZM69.3331 123.16C68.5757 123.16 67.9197 123.016 67.3651 122.728C66.8211 122.429 66.3997 122.008 66.1011 121.464C65.8024 120.909 65.6424 120.248 65.6211 119.48C65.6104 119.32 65.6051 119.107 65.6051 118.84C65.6051 118.573 65.6104 118.36 65.6211 118.2C65.6424 117.432 65.8024 116.776 66.1011 116.232C66.3997 115.677 66.8211 115.256 67.3651 114.968C67.9197 114.669 68.5757 114.52 69.3331 114.52C69.9517 114.52 70.4797 114.605 70.9171 114.776C71.3651 114.947 71.7331 115.165 72.0211 115.432C72.3091 115.699 72.5224 115.987 72.6611 116.296C72.8104 116.605 72.8904 116.899 72.9011 117.176C72.9117 117.283 72.8797 117.368 72.8051 117.432C72.7304 117.496 72.6397 117.528 72.5331 117.528H71.7651C71.6584 117.528 71.5784 117.507 71.5251 117.464C71.4717 117.411 71.4184 117.325 71.3651 117.208C71.1731 116.685 70.9117 116.317 70.5811 116.104C70.2504 115.891 69.8397 115.784 69.3491 115.784C68.7091 115.784 68.1864 115.981 67.7811 116.376C67.3864 116.771 67.1731 117.405 67.1411 118.28C67.1304 118.664 67.1304 119.037 67.1411 119.4C67.1731 120.285 67.3864 120.925 67.7811 121.32C68.1864 121.704 68.7091 121.896 69.3491 121.896C69.8397 121.896 70.2504 121.789 70.5811 121.576C70.9117 121.363 71.1731 120.995 71.3651 120.472C71.4184 120.355 71.4717 120.275 71.5251 120.232C71.5784 120.179 71.6584 120.152 71.7651 120.152H72.5331C72.6397 120.152 72.7304 120.184 72.8051 120.248C72.8797 120.312 72.9117 120.397 72.9011 120.504C72.8904 120.728 72.8424 120.957 72.7571 121.192C72.6717 121.427 72.5331 121.667 72.3411 121.912C72.1597 122.147 71.9304 122.36 71.6531 122.552C71.3757 122.733 71.0397 122.883 70.6451 123C70.2611 123.107 69.8237 123.16 69.3331 123.16ZM75.3772 123C75.2599 123 75.1692 122.968 75.1052 122.904C75.0412 122.829 75.0092 122.739 75.0092 122.632V112.168C75.0092 112.061 75.0412 111.976 75.1052 111.912C75.1692 111.837 75.2599 111.8 75.3772 111.8H76.2252C76.3319 111.8 76.4172 111.837 76.4812 111.912C76.5452 111.976 76.5772 112.061 76.5772 112.168V121.608H81.9052C82.0225 121.608 82.1132 121.645 82.1772 121.72C82.2412 121.784 82.2732 121.875 82.2732 121.992V122.632C82.2732 122.739 82.2412 122.829 82.1772 122.904C82.1132 122.968 82.0225 123 81.9052 123H75.3772Z" fill="white"/>
</svg>
