<svg width="117" height="137" viewBox="0 0 117 137" fill="none" xmlns="http://www.w3.org/2000/svg">
<rect width="117" height="98" fill="#BA2128"/>
<path d="M27.1584 35C27.0411 35 26.9504 34.968 26.8864 34.904C26.8224 34.8293 26.7904 34.7387 26.7904 34.632V24.184C26.7904 24.0667 26.8224 23.976 26.8864 23.912C26.9504 23.8373 27.0411 23.8 27.1584 23.8H33.6864C33.8038 23.8 33.8944 23.8373 33.9584 23.912C34.0224 23.976 34.0544 24.0667 34.0544 24.184V24.824C34.0544 24.9413 34.0224 25.032 33.9584 25.096C33.8944 25.16 33.8038 25.192 33.6864 25.192H28.3424V28.92H33.3664C33.4838 28.92 33.5744 28.9573 33.6384 29.032C33.7024 29.096 33.7344 29.1867 33.7344 29.304V29.944C33.7344 30.0507 33.7024 30.1413 33.6384 30.216C33.5744 30.28 33.4838 30.312 33.3664 30.312H28.3424V34.632C28.3424 34.7387 28.3051 34.8293 28.2304 34.904C28.1664 34.968 28.0758 35 27.9584 35H27.1584ZM36.0754 35C35.9688 35 35.8781 34.968 35.8034 34.904C35.7394 34.8293 35.7074 34.7387 35.7074 34.632V27.064C35.7074 26.9573 35.7394 26.8667 35.8034 26.792C35.8781 26.7173 35.9688 26.68 36.0754 26.68H36.8114C36.9181 26.68 37.0088 26.7173 37.0834 26.792C37.1581 26.8667 37.1954 26.9573 37.1954 27.064V27.768C37.4088 27.4053 37.7021 27.1333 38.0754 26.952C38.4488 26.7707 38.8968 26.68 39.4194 26.68H40.0594C40.1661 26.68 40.2514 26.7173 40.3154 26.792C40.3794 26.856 40.4114 26.9413 40.4114 27.048V27.704C40.4114 27.8107 40.3794 27.896 40.3154 27.96C40.2514 28.024 40.1661 28.056 40.0594 28.056H39.0994C38.5234 28.056 38.0701 28.2267 37.7394 28.568C37.4088 28.8987 37.2434 29.352 37.2434 29.928V34.632C37.2434 34.7387 37.2061 34.8293 37.1314 34.904C37.0568 34.968 36.9661 35 36.8594 35H36.0754ZM44.8896 35.16C44.2069 35.16 43.6256 35.0107 43.1456 34.712C42.6762 34.4027 42.3189 33.976 42.0736 33.432C41.8282 32.888 41.7056 32.264 41.7056 31.56V27.048C41.7056 26.9413 41.7376 26.856 41.8016 26.792C41.8762 26.7173 41.9669 26.68 42.0736 26.68H42.8736C42.9802 26.68 43.0656 26.7173 43.1296 26.792C43.2042 26.856 43.2416 26.9413 43.2416 27.048V31.48C43.2416 33.0693 43.9349 33.864 45.3216 33.864C45.9829 33.864 46.5109 33.656 46.9056 33.24C47.3109 32.8133 47.5136 32.2267 47.5136 31.48V27.048C47.5136 26.9413 47.5456 26.856 47.6096 26.792C47.6842 26.7173 47.7749 26.68 47.8816 26.68H48.6656C48.7829 26.68 48.8736 26.7173 48.9376 26.792C49.0016 26.856 49.0336 26.9413 49.0336 27.048V34.632C49.0336 34.7387 49.0016 34.8293 48.9376 34.904C48.8736 34.968 48.7829 35 48.6656 35H47.9296C47.8229 35 47.7322 34.968 47.6576 34.904C47.5936 34.8293 47.5616 34.7387 47.5616 34.632V33.928C47.2736 34.3013 46.9216 34.6 46.5056 34.824C46.1002 35.048 45.5616 35.16 44.8896 35.16ZM54.7706 35.16C54.0132 35.16 53.3572 35.016 52.8026 34.728C52.2586 34.4293 51.8372 34.008 51.5386 33.464C51.2399 32.9093 51.0799 32.248 51.0586 31.48C51.0479 31.32 51.0426 31.1067 51.0426 30.84C51.0426 30.5733 51.0479 30.36 51.0586 30.2C51.0799 29.432 51.2399 28.776 51.5386 28.232C51.8372 27.6773 52.2586 27.256 52.8026 26.968C53.3572 26.6693 54.0132 26.52 54.7706 26.52C55.3892 26.52 55.9172 26.6053 56.3546 26.776C56.8026 26.9467 57.1706 27.1653 57.4586 27.432C57.7466 27.6987 57.9599 27.9867 58.0986 28.296C58.2479 28.6053 58.3279 28.8987 58.3386 29.176C58.3492 29.2827 58.3172 29.368 58.2426 29.432C58.1679 29.496 58.0772 29.528 57.9706 29.528H57.2026C57.0959 29.528 57.0159 29.5067 56.9626 29.464C56.9092 29.4107 56.8559 29.3253 56.8026 29.208C56.6106 28.6853 56.3492 28.3173 56.0186 28.104C55.6879 27.8907 55.2772 27.784 54.7866 27.784C54.1466 27.784 53.6239 27.9813 53.2186 28.376C52.8239 28.7707 52.6106 29.4053 52.5786 30.28C52.5679 30.664 52.5679 31.0373 52.5786 31.4C52.6106 32.2853 52.8239 32.9253 53.2186 33.32C53.6239 33.704 54.1466 33.896 54.7866 33.896C55.2772 33.896 55.6879 33.7893 56.0186 33.576C56.3492 33.3627 56.6106 32.9947 56.8026 32.472C56.8559 32.3547 56.9092 32.2747 56.9626 32.232C57.0159 32.1787 57.0959 32.152 57.2026 32.152H57.9706C58.0772 32.152 58.1679 32.184 58.2426 32.248C58.3172 32.312 58.3492 32.3973 58.3386 32.504C58.3279 32.728 58.2799 32.9573 58.1946 33.192C58.1092 33.4267 57.9706 33.6667 57.7786 33.912C57.5972 34.1467 57.3679 34.36 57.0906 34.552C56.8132 34.7333 56.4772 34.8827 56.0826 35C55.6986 35.1067 55.2612 35.16 54.7706 35.16ZM63.4867 35C62.8894 35 62.404 34.888 62.0307 34.664C61.6574 34.4293 61.3854 34.104 61.2147 33.688C61.044 33.2613 60.9587 32.76 60.9587 32.184V27.96H59.7107C59.604 27.96 59.5134 27.928 59.4387 27.864C59.3747 27.7893 59.3427 27.6987 59.3427 27.592V27.048C59.3427 26.9413 59.3747 26.856 59.4387 26.792C59.5134 26.7173 59.604 26.68 59.7107 26.68H60.9587V24.008C60.9587 23.9013 60.9907 23.816 61.0547 23.752C61.1294 23.6773 61.22 23.64 61.3267 23.64H62.0787C62.1854 23.64 62.2707 23.6773 62.3347 23.752C62.4094 23.816 62.4467 23.9013 62.4467 24.008V26.68H64.4307C64.5374 26.68 64.6227 26.7173 64.6867 26.792C64.7614 26.856 64.7987 26.9413 64.7987 27.048V27.592C64.7987 27.6987 64.7614 27.7893 64.6867 27.864C64.6227 27.928 64.5374 27.96 64.4307 27.96H62.4467V32.072C62.4467 32.5733 62.532 32.968 62.7027 33.256C62.8734 33.544 63.1774 33.688 63.6147 33.688H64.5907C64.6974 33.688 64.7827 33.7253 64.8467 33.8C64.9214 33.864 64.9587 33.9493 64.9587 34.056V34.632C64.9587 34.7387 64.9214 34.8293 64.8467 34.904C64.7827 34.968 64.6974 35 64.5907 35H63.4867ZM69.8967 35.16C69.086 35.16 68.4087 35.0053 67.8647 34.696C67.3207 34.3867 66.9047 33.96 66.6167 33.416C66.3287 32.8613 66.1687 32.232 66.1367 31.528C66.126 31.3467 66.1207 31.1173 66.1207 30.84C66.1207 30.552 66.126 30.3227 66.1367 30.152C66.1687 29.4373 66.3287 28.808 66.6167 28.264C66.9154 27.72 67.3367 27.2933 67.8807 26.984C68.4247 26.6747 69.0967 26.52 69.8967 26.52C70.6967 26.52 71.3687 26.6747 71.9127 26.984C72.4567 27.2933 72.8727 27.72 73.1607 28.264C73.4594 28.808 73.6247 29.4373 73.6567 30.152C73.6674 30.3227 73.6727 30.552 73.6727 30.84C73.6727 31.1173 73.6674 31.3467 73.6567 31.528C73.6247 32.232 73.4647 32.8613 73.1767 33.416C72.8887 33.96 72.4727 34.3867 71.9287 34.696C71.3847 35.0053 70.7074 35.16 69.8967 35.16ZM69.8967 33.928C70.558 33.928 71.086 33.72 71.4807 33.304C71.8754 32.8773 72.0887 32.2587 72.1207 31.448C72.1314 31.288 72.1367 31.0853 72.1367 30.84C72.1367 30.5947 72.1314 30.392 72.1207 30.232C72.0887 29.4213 71.8754 28.808 71.4807 28.392C71.086 27.9653 70.558 27.752 69.8967 27.752C69.2354 27.752 68.702 27.9653 68.2967 28.392C67.902 28.808 67.694 29.4213 67.6727 30.232C67.662 30.392 67.6567 30.5947 67.6567 30.84C67.6567 31.0853 67.662 31.288 67.6727 31.448C67.694 32.2587 67.902 32.8773 68.2967 33.304C68.702 33.72 69.2354 33.928 69.8967 33.928ZM78.5562 35.16C77.9589 35.16 77.4469 35.0853 77.0202 34.936C76.5935 34.7867 76.2469 34.6053 75.9802 34.392C75.7135 34.1787 75.5109 33.9653 75.3722 33.752C75.2442 33.5387 75.1749 33.368 75.1642 33.24C75.1535 33.1227 75.1909 33.032 75.2762 32.968C75.3615 32.904 75.4469 32.872 75.5322 32.872H76.2362C76.3002 32.872 76.3482 32.8827 76.3802 32.904C76.4229 32.9147 76.4762 32.9573 76.5402 33.032C76.6789 33.1813 76.8335 33.3307 77.0042 33.48C77.1749 33.6293 77.3829 33.752 77.6282 33.848C77.8842 33.944 78.1989 33.992 78.5722 33.992C79.1162 33.992 79.5642 33.8907 79.9162 33.688C80.2682 33.4747 80.4442 33.1653 80.4442 32.76C80.4442 32.4933 80.3695 32.28 80.2202 32.12C80.0815 31.96 79.8255 31.816 79.4522 31.688C79.0895 31.56 78.5882 31.4267 77.9482 31.288C77.3082 31.1387 76.8015 30.9573 76.4282 30.744C76.0549 30.52 75.7882 30.2587 75.6282 29.96C75.4682 29.6507 75.3882 29.304 75.3882 28.92C75.3882 28.5253 75.5055 28.1467 75.7402 27.784C75.9749 27.4107 76.3162 27.1067 76.7642 26.872C77.2229 26.6373 77.7935 26.52 78.4762 26.52C79.0309 26.52 79.5055 26.5893 79.9002 26.728C80.2949 26.8667 80.6202 27.0427 80.8762 27.256C81.1322 27.4587 81.3242 27.6613 81.4522 27.864C81.5802 28.0667 81.6495 28.2373 81.6602 28.376C81.6709 28.4827 81.6389 28.5733 81.5642 28.648C81.4895 28.712 81.4042 28.744 81.3082 28.744H80.6362C80.5615 28.744 80.4975 28.728 80.4442 28.696C80.4015 28.664 80.3589 28.6267 80.3162 28.584C80.2095 28.4453 80.0815 28.3067 79.9322 28.168C79.7935 28.0293 79.6069 27.9173 79.3722 27.832C79.1482 27.736 78.8495 27.688 78.4762 27.688C77.9429 27.688 77.5429 27.8 77.2762 28.024C77.0095 28.248 76.8762 28.5307 76.8762 28.872C76.8762 29.0747 76.9349 29.256 77.0522 29.416C77.1695 29.576 77.3935 29.72 77.7242 29.848C78.0549 29.976 78.5455 30.1147 79.1962 30.264C79.9002 30.4027 80.4549 30.5893 80.8602 30.824C81.2655 31.0587 81.5535 31.3307 81.7242 31.64C81.8949 31.9493 81.9802 32.3067 81.9802 32.712C81.9802 33.16 81.8469 33.5707 81.5802 33.944C81.3242 34.3173 80.9402 34.616 80.4282 34.84C79.9269 35.0533 79.3029 35.16 78.5562 35.16ZM87.1444 35.16C86.0458 35.16 85.1711 34.824 84.5204 34.152C83.8698 33.4693 83.5124 32.5413 83.4484 31.368C83.4378 31.2293 83.4324 31.0533 83.4324 30.84C83.4324 30.616 83.4378 30.4347 83.4484 30.296C83.4911 29.5387 83.6671 28.8773 83.9764 28.312C84.2858 27.736 84.7071 27.2933 85.2404 26.984C85.7844 26.6747 86.4191 26.52 87.1444 26.52C87.9551 26.52 88.6324 26.6907 89.1764 27.032C89.7311 27.3733 90.1524 27.8587 90.4404 28.488C90.7284 29.1173 90.8724 29.8533 90.8724 30.696V30.968C90.8724 31.0853 90.8351 31.176 90.7604 31.24C90.6964 31.304 90.6111 31.336 90.5044 31.336H84.9684C84.9684 31.3467 84.9684 31.368 84.9684 31.4C84.9684 31.432 84.9684 31.4587 84.9684 31.48C84.9898 31.9173 85.0858 32.328 85.2564 32.712C85.4271 33.0853 85.6724 33.3893 85.9924 33.624C86.3124 33.8587 86.6964 33.976 87.1444 33.976C87.5284 33.976 87.8484 33.9173 88.1044 33.8C88.3604 33.6827 88.5684 33.5547 88.7284 33.416C88.8884 33.2667 88.9951 33.1547 89.0484 33.08C89.1444 32.9413 89.2191 32.8613 89.2724 32.84C89.3258 32.808 89.4111 32.792 89.5284 32.792H90.2964C90.4031 32.792 90.4884 32.824 90.5524 32.888C90.6271 32.9413 90.6591 33.0213 90.6484 33.128C90.6378 33.288 90.5524 33.4853 90.3924 33.72C90.2324 33.944 90.0031 34.168 89.7044 34.392C89.4058 34.616 89.0431 34.8027 88.6164 34.952C88.1898 35.0907 87.6991 35.16 87.1444 35.16ZM84.9684 30.232H89.3524V30.184C89.3524 29.704 89.2618 29.2773 89.0804 28.904C88.9098 28.5307 88.6591 28.2373 88.3284 28.024C87.9978 27.8 87.6031 27.688 87.1444 27.688C86.6858 27.688 86.2911 27.8 85.9604 28.024C85.6404 28.2373 85.3951 28.5307 85.2244 28.904C85.0538 29.2773 84.9684 29.704 84.9684 30.184V30.232Z" fill="white"/>
<path d="M29.0539 72C28.8779 72 28.7339 71.944 28.6219 71.832C28.5099 71.72 28.4539 71.576 28.4539 71.4V69.96C28.4539 69.832 28.4859 69.664 28.5499 69.456C28.6299 69.232 28.7979 69.016 29.0539 68.808L32.2219 65.664C33.3899 64.768 34.3339 64.008 35.0539 63.384C35.7899 62.76 36.3339 62.192 36.6859 61.68C37.0379 61.168 37.2139 60.672 37.2139 60.192C37.2139 59.568 37.0379 59.056 36.6859 58.656C36.3499 58.24 35.7979 58.032 35.0299 58.032C34.5179 58.032 34.0859 58.144 33.7339 58.368C33.3979 58.576 33.1339 58.856 32.9419 59.208C32.7499 59.56 32.6219 59.944 32.5579 60.36C32.5099 60.568 32.4059 60.712 32.2459 60.792C32.1019 60.872 31.9499 60.912 31.7899 60.912H29.2459C29.0859 60.912 28.9579 60.864 28.8619 60.768C28.7659 60.656 28.7179 60.536 28.7179 60.408C28.7339 59.672 28.8859 58.976 29.1739 58.32C29.4779 57.664 29.9019 57.08 30.4459 56.568C30.9899 56.056 31.6459 55.656 32.4139 55.368C33.1819 55.064 34.0539 54.912 35.0299 54.912C36.3739 54.912 37.5019 55.136 38.4139 55.584C39.3259 56.016 40.0139 56.616 40.4779 57.384C40.9419 58.152 41.1739 59.04 41.1739 60.048C41.1739 60.816 41.0139 61.528 40.6939 62.184C40.3899 62.84 39.9419 63.472 39.3499 64.08C38.7579 64.672 38.0539 65.288 37.2379 65.928L34.4059 68.76H40.9339C41.1099 68.76 41.2539 68.816 41.3659 68.928C41.4779 69.04 41.5339 69.184 41.5339 69.36V71.4C41.5339 71.576 41.4779 71.72 41.3659 71.832C41.2539 71.944 41.1099 72 40.9339 72H29.0539ZM49.2808 72C49.1208 72 48.9768 71.944 48.8488 71.832C48.7368 71.72 48.6808 71.576 48.6808 71.4V59.472L45.2248 62.136C45.0808 62.248 44.9288 62.288 44.7688 62.256C44.6248 62.224 44.4968 62.136 44.3848 61.992L43.1848 60.432C43.0888 60.288 43.0488 60.136 43.0648 59.976C43.0968 59.816 43.1848 59.688 43.3288 59.592L48.8008 55.368C48.8968 55.304 48.9848 55.264 49.0648 55.248C49.1608 55.216 49.2648 55.2 49.3768 55.2H51.9208C52.0808 55.2 52.2168 55.256 52.3288 55.368C52.4408 55.48 52.4968 55.624 52.4968 55.8V71.4C52.4968 71.576 52.4408 71.72 52.3288 71.832C52.2168 71.944 52.0808 72 51.9208 72H49.2808ZM61.6292 72.264C60.1892 72.264 58.9812 72.032 58.0052 71.568C57.0292 71.104 56.2852 70.496 55.7732 69.744C55.2772 68.992 55.0132 68.192 54.9812 67.344C54.9812 67.2 55.0292 67.08 55.1252 66.984C55.2212 66.888 55.3412 66.84 55.4852 66.84H58.1972C58.3892 66.84 58.5412 66.888 58.6532 66.984C58.7812 67.064 58.8772 67.176 58.9412 67.32C59.1012 67.752 59.3092 68.104 59.5652 68.376C59.8372 68.648 60.1492 68.848 60.5012 68.976C60.8532 69.104 61.2292 69.168 61.6292 69.168C62.1412 69.168 62.6132 69.064 63.0452 68.856C63.4772 68.632 63.8212 68.312 64.0772 67.896C64.3332 67.48 64.4612 66.968 64.4612 66.36C64.4612 65.832 64.3412 65.368 64.1012 64.968C63.8612 64.568 63.5252 64.256 63.0932 64.032C62.6612 63.808 62.1732 63.696 61.6292 63.696C61.2132 63.696 60.8692 63.744 60.5972 63.84C60.3412 63.936 60.1252 64.056 59.9492 64.2C59.7732 64.328 59.6132 64.448 59.4692 64.56C59.3252 64.656 59.1652 64.704 58.9892 64.704H56.3252C56.1812 64.704 56.0532 64.656 55.9412 64.56C55.8452 64.448 55.7972 64.32 55.7972 64.176L56.6372 55.896C56.6692 55.672 56.7492 55.504 56.8772 55.392C57.0212 55.264 57.1892 55.2 57.3812 55.2H66.6932C66.8692 55.2 67.0132 55.256 67.1252 55.368C67.2372 55.48 67.2932 55.624 67.2932 55.8V57.72C67.2932 57.88 67.2372 58.016 67.1252 58.128C67.0132 58.24 66.8692 58.296 66.6932 58.296H59.7572L59.3972 61.824C59.7172 61.616 60.1092 61.432 60.5732 61.272C61.0532 61.096 61.7172 61.008 62.5652 61.008C63.3332 61.008 64.0612 61.136 64.7492 61.392C65.4532 61.632 66.0772 61.992 66.6212 62.472C67.1652 62.952 67.5892 63.528 67.8932 64.2C68.2132 64.856 68.3732 65.608 68.3732 66.456C68.3732 67.608 68.1012 68.624 67.5572 69.504C67.0132 70.368 66.2372 71.048 65.2292 71.544C64.2212 72.024 63.0212 72.264 61.6292 72.264ZM81.9461 77.28C80.7621 77.28 79.7781 77.12 78.9941 76.8C78.2101 76.496 77.5861 76.12 77.1221 75.672C76.6741 75.24 76.3541 74.808 76.1621 74.376C75.9701 73.944 75.8661 73.608 75.8501 73.368C75.8341 73.192 75.8901 73.048 76.0181 72.936C76.1461 72.824 76.2901 72.768 76.4501 72.768H79.0181C79.1621 72.768 79.2821 72.8 79.3781 72.864C79.4901 72.944 79.5781 73.072 79.6421 73.248C79.7221 73.44 79.8341 73.64 79.9781 73.848C80.1221 74.072 80.3381 74.256 80.6261 74.4C80.9301 74.544 81.3301 74.616 81.8261 74.616C82.3861 74.616 82.8501 74.536 83.2181 74.376C83.5861 74.216 83.8581 73.944 84.0341 73.56C84.2261 73.176 84.3221 72.656 84.3221 72V70.392C83.9381 70.808 83.4501 71.152 82.8581 71.424C82.2821 71.696 81.5701 71.832 80.7221 71.832C79.8901 71.832 79.1541 71.704 78.5141 71.448C77.8901 71.176 77.3701 70.8 76.9541 70.32C76.5381 69.824 76.2181 69.232 75.9941 68.544C75.7701 67.856 75.6421 67.08 75.6101 66.216C75.5941 65.784 75.5941 65.36 75.6101 64.944C75.6421 64.112 75.7701 63.352 75.9941 62.664C76.2181 61.976 76.5381 61.384 76.9541 60.888C77.3701 60.376 77.8901 59.984 78.5141 59.712C79.1541 59.424 79.8901 59.28 80.7221 59.28C81.6021 59.28 82.3541 59.448 82.9781 59.784C83.6021 60.12 84.1141 60.536 84.5141 61.032V60.12C84.5141 59.96 84.5701 59.824 84.6821 59.712C84.7941 59.584 84.9301 59.52 85.0901 59.52H87.4421C87.6021 59.52 87.7381 59.584 87.8501 59.712C87.9781 59.824 88.0421 59.96 88.0421 60.12L88.0661 71.664C88.0661 72.864 87.8341 73.88 87.3701 74.712C86.9061 75.544 86.2181 76.176 85.3061 76.608C84.4101 77.056 83.2901 77.28 81.9461 77.28ZM81.8261 69.024C82.4021 69.024 82.8661 68.896 83.2181 68.64C83.5861 68.368 83.8581 68.032 84.0341 67.632C84.2101 67.216 84.3061 66.784 84.3221 66.336C84.3381 66.16 84.3461 65.912 84.3461 65.592C84.3461 65.256 84.3381 65 84.3221 64.824C84.3061 64.376 84.2101 63.952 84.0341 63.552C83.8581 63.136 83.5861 62.8 83.2181 62.544C82.8661 62.288 82.4021 62.16 81.8261 62.16C81.2181 62.16 80.7381 62.296 80.3861 62.568C80.0341 62.824 79.7781 63.168 79.6181 63.6C79.4581 64.032 79.3621 64.504 79.3301 65.016C79.3141 65.4 79.3141 65.776 79.3301 66.144C79.3621 66.672 79.4581 67.152 79.6181 67.584C79.7781 68.016 80.0341 68.368 80.3861 68.64C80.7381 68.896 81.2181 69.024 81.8261 69.024Z" fill="white"/>
<rect width="117" height="39" transform="translate(0 98)" fill="#C4585D"/>
<path d="M38.7832 123C38.6765 123 38.5859 122.968 38.5112 122.904C38.4472 122.829 38.4152 122.739 38.4152 122.632V113.672L35.7592 115.72C35.6739 115.784 35.5832 115.811 35.4872 115.8C35.3912 115.789 35.3112 115.741 35.2472 115.656L34.8312 115.128C34.7672 115.032 34.7405 114.936 34.7512 114.84C34.7725 114.744 34.8259 114.664 34.9112 114.6L38.3992 111.912C38.4739 111.859 38.5432 111.827 38.6072 111.816C38.6712 111.805 38.7405 111.8 38.8152 111.8H39.6312C39.7379 111.8 39.8232 111.837 39.8872 111.912C39.9512 111.976 39.9832 112.061 39.9832 112.168V122.632C39.9832 122.739 39.9512 122.829 39.8872 122.904C39.8232 122.968 39.7379 123 39.6312 123H38.7832ZM45.8829 123.16C45.0403 123.16 44.3256 123.016 43.7389 122.728C43.1629 122.429 42.7203 122.045 42.4109 121.576C42.1123 121.107 41.9523 120.611 41.9309 120.088C41.9203 119.992 41.9469 119.917 42.0109 119.864C42.0749 119.811 42.1549 119.784 42.2509 119.784H43.1149C43.2109 119.784 43.2963 119.805 43.3709 119.848C43.4456 119.891 43.5043 119.981 43.5469 120.12C43.6536 120.515 43.8243 120.84 44.0589 121.096C44.3043 121.341 44.5816 121.523 44.8909 121.64C45.2109 121.747 45.5416 121.8 45.8829 121.8C46.3416 121.8 46.7576 121.709 47.1309 121.528C47.5149 121.336 47.8189 121.059 48.0429 120.696C48.2669 120.323 48.3789 119.875 48.3789 119.352C48.3789 118.872 48.2669 118.461 48.0429 118.12C47.8296 117.768 47.5309 117.501 47.1469 117.32C46.7736 117.128 46.3523 117.032 45.8829 117.032C45.5309 117.032 45.2429 117.075 45.0189 117.16C44.7949 117.245 44.6029 117.347 44.4429 117.464C44.2936 117.581 44.1549 117.683 44.0269 117.768C43.9096 117.853 43.7763 117.896 43.6269 117.896H42.7949C42.6989 117.896 42.6136 117.864 42.5389 117.8C42.4643 117.725 42.4323 117.64 42.4429 117.544L42.9549 112.2C42.9656 112.072 43.0029 111.976 43.0669 111.912C43.1416 111.837 43.2376 111.8 43.3549 111.8H48.9389C49.0456 111.8 49.1309 111.837 49.1949 111.912C49.2696 111.976 49.3069 112.061 49.3069 112.168V112.792C49.3069 112.909 49.2696 113 49.1949 113.064C49.1309 113.128 49.0456 113.16 48.9389 113.16H44.3309L44.0269 116.312C44.1763 116.216 44.4163 116.104 44.7469 115.976C45.0776 115.837 45.5309 115.768 46.1069 115.768C46.6296 115.768 47.1203 115.848 47.5789 116.008C48.0483 116.168 48.4643 116.403 48.8269 116.712C49.1896 117.021 49.4723 117.4 49.6749 117.848C49.8776 118.285 49.9789 118.792 49.9789 119.368C49.9789 120.179 49.7976 120.867 49.4349 121.432C49.0829 121.997 48.5976 122.429 47.9789 122.728C47.3709 123.016 46.6723 123.16 45.8829 123.16ZM55.7829 123.16C55.0469 123.16 54.4229 123.048 53.9109 122.824C53.4096 122.589 52.9989 122.269 52.6789 121.864C52.3589 121.459 52.1243 120.995 51.9749 120.472C51.8363 119.949 51.7563 119.395 51.7349 118.808C51.7243 118.52 51.7136 118.216 51.7029 117.896C51.7029 117.576 51.7029 117.256 51.7029 116.936C51.7136 116.605 51.7243 116.291 51.7349 115.992C51.7456 115.405 51.8256 114.851 51.9749 114.328C52.1349 113.795 52.3696 113.331 52.6789 112.936C52.9989 112.531 53.4149 112.216 53.9269 111.992C54.4389 111.757 55.0576 111.64 55.7829 111.64C56.5189 111.64 57.1376 111.757 57.6389 111.992C58.1509 112.216 58.5669 112.531 58.8869 112.936C59.2069 113.331 59.4416 113.795 59.5909 114.328C59.7509 114.851 59.8363 115.405 59.8469 115.992C59.8576 116.291 59.8629 116.605 59.8629 116.936C59.8736 117.256 59.8736 117.576 59.8629 117.896C59.8629 118.216 59.8576 118.52 59.8469 118.808C59.8363 119.395 59.7509 119.949 59.5909 120.472C59.4416 120.995 59.2069 121.459 58.8869 121.864C58.5776 122.269 58.1669 122.589 57.6549 122.824C57.1536 123.048 56.5296 123.16 55.7829 123.16ZM55.7829 121.8C56.6149 121.8 57.2283 121.528 57.6229 120.984C58.0283 120.429 58.2363 119.677 58.2469 118.728C58.2683 118.419 58.2789 118.12 58.2789 117.832C58.2789 117.533 58.2789 117.24 58.2789 116.952C58.2789 116.653 58.2683 116.36 58.2469 116.072C58.2363 115.144 58.0283 114.403 57.6229 113.848C57.2283 113.283 56.6149 113 55.7829 113C54.9616 113 54.3483 113.283 53.9429 113.848C53.5483 114.403 53.3403 115.144 53.3189 116.072C53.3189 116.36 53.3136 116.653 53.3029 116.952C53.3029 117.24 53.3029 117.533 53.3029 117.832C53.3136 118.12 53.3189 118.419 53.3189 118.728C53.3403 119.677 53.5536 120.429 53.9589 120.984C54.3643 121.528 54.9723 121.8 55.7829 121.8ZM69.3331 123.16C68.5757 123.16 67.9197 123.016 67.3651 122.728C66.8211 122.429 66.3997 122.008 66.1011 121.464C65.8024 120.909 65.6424 120.248 65.6211 119.48C65.6104 119.32 65.6051 119.107 65.6051 118.84C65.6051 118.573 65.6104 118.36 65.6211 118.2C65.6424 117.432 65.8024 116.776 66.1011 116.232C66.3997 115.677 66.8211 115.256 67.3651 114.968C67.9197 114.669 68.5757 114.52 69.3331 114.52C69.9517 114.52 70.4797 114.605 70.9171 114.776C71.3651 114.947 71.7331 115.165 72.0211 115.432C72.3091 115.699 72.5224 115.987 72.6611 116.296C72.8104 116.605 72.8904 116.899 72.9011 117.176C72.9117 117.283 72.8797 117.368 72.8051 117.432C72.7304 117.496 72.6397 117.528 72.5331 117.528H71.7651C71.6584 117.528 71.5784 117.507 71.5251 117.464C71.4717 117.411 71.4184 117.325 71.3651 117.208C71.1731 116.685 70.9117 116.317 70.5811 116.104C70.2504 115.891 69.8397 115.784 69.3491 115.784C68.7091 115.784 68.1864 115.981 67.7811 116.376C67.3864 116.771 67.1731 117.405 67.1411 118.28C67.1304 118.664 67.1304 119.037 67.1411 119.4C67.1731 120.285 67.3864 120.925 67.7811 121.32C68.1864 121.704 68.7091 121.896 69.3491 121.896C69.8397 121.896 70.2504 121.789 70.5811 121.576C70.9117 121.363 71.1731 120.995 71.3651 120.472C71.4184 120.355 71.4717 120.275 71.5251 120.232C71.5784 120.179 71.6584 120.152 71.7651 120.152H72.5331C72.6397 120.152 72.7304 120.184 72.8051 120.248C72.8797 120.312 72.9117 120.397 72.9011 120.504C72.8904 120.728 72.8424 120.957 72.7571 121.192C72.6717 121.427 72.5331 121.667 72.3411 121.912C72.1597 122.147 71.9304 122.36 71.6531 122.552C71.3757 122.733 71.0397 122.883 70.6451 123C70.2611 123.107 69.8237 123.16 69.3331 123.16ZM75.3772 123C75.2599 123 75.1692 122.968 75.1052 122.904C75.0412 122.829 75.0092 122.739 75.0092 122.632V112.168C75.0092 112.061 75.0412 111.976 75.1052 111.912C75.1692 111.837 75.2599 111.8 75.3772 111.8H76.2252C76.3319 111.8 76.4172 111.837 76.4812 111.912C76.5452 111.976 76.5772 112.061 76.5772 112.168V121.608H81.9052C82.0225 121.608 82.1132 121.645 82.1772 121.72C82.2412 121.784 82.2732 121.875 82.2732 121.992V122.632C82.2732 122.739 82.2412 122.829 82.1772 122.904C82.1132 122.968 82.0225 123 81.9052 123H75.3772Z" fill="white"/>
</svg>
