<svg width="117" height="137" viewBox="0 0 117 137" fill="none" xmlns="http://www.w3.org/2000/svg">
<rect width="117" height="98" fill="#BA2128"/>
<path d="M18.742 35.16C17.814 35.16 17.0353 35.0213 16.406 34.744C15.7767 34.456 15.2913 34.088 14.95 33.64C14.6193 33.1813 14.4433 32.696 14.422 32.184C14.422 32.0987 14.454 32.024 14.518 31.96C14.5927 31.8853 14.678 31.848 14.774 31.848H15.59C15.718 31.848 15.814 31.88 15.878 31.944C15.942 32.008 15.9847 32.0827 16.006 32.168C16.0593 32.424 16.1873 32.68 16.39 32.936C16.6033 33.1813 16.8967 33.3893 17.27 33.56C17.654 33.72 18.1447 33.8 18.742 33.8C19.6593 33.8 20.3313 33.64 20.758 33.32C21.1953 32.9893 21.414 32.552 21.414 32.008C21.414 31.6347 21.2967 31.336 21.062 31.112C20.838 30.8773 20.4913 30.6693 20.022 30.488C19.5527 30.3067 18.9447 30.1093 18.198 29.896C17.4193 29.672 16.774 29.4267 16.262 29.16C15.75 28.8933 15.366 28.5627 15.11 28.168C14.8647 27.7733 14.742 27.272 14.742 26.664C14.742 26.088 14.8967 25.576 15.206 25.128C15.5153 24.6693 15.958 24.3067 16.534 24.04C17.1207 23.7733 17.83 23.64 18.662 23.64C19.3233 23.64 19.8993 23.7307 20.39 23.912C20.8913 24.0827 21.3073 24.3173 21.638 24.616C21.9687 24.904 22.2193 25.2187 22.39 25.56C22.5607 25.8907 22.6513 26.216 22.662 26.536C22.662 26.6107 22.6353 26.6853 22.582 26.76C22.5287 26.824 22.4433 26.856 22.326 26.856H21.478C21.4033 26.856 21.3233 26.8347 21.238 26.792C21.1633 26.7493 21.1047 26.6693 21.062 26.552C20.998 26.1147 20.7527 25.7467 20.326 25.448C19.8993 25.1493 19.3447 25 18.662 25C17.9687 25 17.4033 25.1333 16.966 25.4C16.5393 25.6667 16.326 26.0827 16.326 26.648C16.326 27.0107 16.4273 27.3147 16.63 27.56C16.8327 27.7947 17.1527 28.0027 17.59 28.184C18.0273 28.3653 18.598 28.5573 19.302 28.76C20.1553 28.9947 20.854 29.2453 21.398 29.512C21.942 29.768 22.342 30.0933 22.598 30.488C22.8647 30.872 22.998 31.368 22.998 31.976C22.998 32.648 22.822 33.224 22.47 33.704C22.118 34.1733 21.622 34.536 20.982 34.792C20.3527 35.0373 19.606 35.16 18.742 35.16ZM27.9911 35.16C27.3085 35.16 26.7271 35.0107 26.2471 34.712C25.7778 34.4027 25.4205 33.976 25.1751 33.432C24.9298 32.888 24.8071 32.264 24.8071 31.56V27.048C24.8071 26.9413 24.8391 26.856 24.9031 26.792C24.9778 26.7173 25.0685 26.68 25.1751 26.68H25.9751C26.0818 26.68 26.1671 26.7173 26.2311 26.792C26.3058 26.856 26.3431 26.9413 26.3431 27.048V31.48C26.3431 33.0693 27.0365 33.864 28.4231 33.864C29.0845 33.864 29.6125 33.656 30.0071 33.24C30.4125 32.8133 30.6151 32.2267 30.6151 31.48V27.048C30.6151 26.9413 30.6471 26.856 30.7111 26.792C30.7858 26.7173 30.8765 26.68 30.9831 26.68H31.7671C31.8845 26.68 31.9751 26.7173 32.0391 26.792C32.1031 26.856 32.1351 26.9413 32.1351 27.048V34.632C32.1351 34.7387 32.1031 34.8293 32.0391 34.904C31.9751 34.968 31.8845 35 31.7671 35H31.0311C30.9245 35 30.8338 34.968 30.7591 34.904C30.6951 34.8293 30.6631 34.7387 30.6631 34.632V33.928C30.3751 34.3013 30.0231 34.6 29.6071 34.824C29.2018 35.048 28.6631 35.16 27.9911 35.16ZM37.9201 38.52C37.1948 38.52 36.5975 38.424 36.1281 38.232C35.6695 38.04 35.3068 37.8053 35.0401 37.528C34.7841 37.2613 34.5975 36.9893 34.4801 36.712C34.3735 36.4453 34.3148 36.232 34.3041 36.072C34.2935 35.9653 34.3255 35.8747 34.4001 35.8C34.4855 35.7253 34.5761 35.688 34.6721 35.688H35.4401C35.5361 35.688 35.6161 35.7093 35.6801 35.752C35.7441 35.7947 35.7975 35.8853 35.8401 36.024C35.9041 36.184 36.0001 36.36 36.1281 36.552C36.2561 36.7547 36.4535 36.9253 36.7201 37.064C36.9868 37.2133 37.3601 37.288 37.8401 37.288C38.3415 37.288 38.7628 37.2187 39.1041 37.08C39.4455 36.952 39.7015 36.7173 39.8721 36.376C40.0535 36.0453 40.1441 35.5867 40.1441 35V33.912C39.8881 34.2427 39.5521 34.52 39.1361 34.744C38.7201 34.9573 38.1975 35.064 37.5681 35.064C36.9708 35.064 36.4588 34.9627 36.0321 34.76C35.6055 34.5467 35.2535 34.264 34.9761 33.912C34.7095 33.5493 34.5068 33.1387 34.3681 32.68C34.2401 32.2213 34.1655 31.7413 34.1441 31.24C34.1335 30.9413 34.1335 30.648 34.1441 30.36C34.1655 29.8587 34.2401 29.3787 34.3681 28.92C34.5068 28.4613 34.7095 28.0507 34.9761 27.688C35.2535 27.3253 35.6055 27.0427 36.0321 26.84C36.4588 26.6267 36.9708 26.52 37.5681 26.52C38.2081 26.52 38.7361 26.6427 39.1521 26.888C39.5788 27.1227 39.9255 27.4107 40.1921 27.752V27.064C40.1921 26.9573 40.2241 26.8667 40.2881 26.792C40.3628 26.7173 40.4535 26.68 40.5601 26.68H41.2961C41.4028 26.68 41.4935 26.7173 41.5681 26.792C41.6428 26.8667 41.6801 26.9573 41.6801 27.064V34.824C41.6801 35.5387 41.5575 36.1733 41.3121 36.728C41.0775 37.2827 40.6828 37.72 40.1281 38.04C39.5841 38.36 38.8481 38.52 37.9201 38.52ZM37.8881 33.784C38.4215 33.784 38.8481 33.6613 39.1681 33.416C39.4988 33.1707 39.7388 32.8613 39.8881 32.488C40.0481 32.1147 40.1335 31.736 40.1441 31.352C40.1548 31.2027 40.1601 31.0213 40.1601 30.808C40.1601 30.584 40.1548 30.3973 40.1441 30.248C40.1335 29.864 40.0481 29.4853 39.8881 29.112C39.7388 28.7387 39.4988 28.4293 39.1681 28.184C38.8481 27.9387 38.4215 27.816 37.8881 27.816C37.3548 27.816 36.9281 27.9387 36.6081 28.184C36.2881 28.4187 36.0588 28.7333 35.9201 29.128C35.7815 29.512 35.7015 29.928 35.6801 30.376C35.6695 30.6533 35.6695 30.936 35.6801 31.224C35.7015 31.672 35.7815 32.0933 35.9201 32.488C36.0588 32.872 36.2881 33.1867 36.6081 33.432C36.9281 33.6667 37.3548 33.784 37.8881 33.784ZM46.379 35.16C45.8457 35.16 45.3603 35.0533 44.923 34.84C44.4857 34.6267 44.1337 34.3387 43.867 33.976C43.6003 33.6133 43.467 33.2027 43.467 32.744C43.467 32.008 43.7657 31.4213 44.363 30.984C44.9603 30.5467 45.739 30.2587 46.699 30.12L49.083 29.784V29.32C49.083 28.808 48.9337 28.408 48.635 28.12C48.347 27.832 47.8723 27.688 47.211 27.688C46.731 27.688 46.3417 27.784 46.043 27.976C45.755 28.168 45.5523 28.4133 45.435 28.712C45.371 28.872 45.259 28.952 45.099 28.952H44.379C44.2617 28.952 44.171 28.92 44.107 28.856C44.0537 28.7813 44.027 28.696 44.027 28.6C44.027 28.44 44.0857 28.2427 44.203 28.008C44.331 27.7733 44.523 27.544 44.779 27.32C45.035 27.096 45.3603 26.9093 45.755 26.76C46.1603 26.6 46.651 26.52 47.227 26.52C47.867 26.52 48.4057 26.6053 48.843 26.776C49.2803 26.936 49.6217 27.1547 49.867 27.432C50.123 27.7093 50.3043 28.024 50.411 28.376C50.5283 28.728 50.587 29.0853 50.587 29.448V34.632C50.587 34.7387 50.5497 34.8293 50.475 34.904C50.411 34.968 50.3257 35 50.219 35H49.483C49.3657 35 49.275 34.968 49.211 34.904C49.147 34.8293 49.115 34.7387 49.115 34.632V33.944C48.9763 34.136 48.7897 34.328 48.555 34.52C48.3203 34.7013 48.027 34.856 47.675 34.984C47.323 35.1013 46.891 35.16 46.379 35.16ZM46.715 33.96C47.1523 33.96 47.5523 33.8693 47.915 33.688C48.2777 33.496 48.5603 33.2027 48.763 32.808C48.9763 32.4133 49.083 31.9173 49.083 31.32V30.872L47.227 31.144C46.4697 31.2507 45.899 31.432 45.515 31.688C45.131 31.9333 44.939 32.248 44.939 32.632C44.939 32.9307 45.0243 33.1813 45.195 33.384C45.3763 33.576 45.6003 33.72 45.867 33.816C46.1443 33.912 46.427 33.96 46.715 33.96ZM53.2551 35C53.1485 35 53.0578 34.968 52.9831 34.904C52.9191 34.8293 52.8871 34.7387 52.8871 34.632V27.064C52.8871 26.9573 52.9191 26.8667 52.9831 26.792C53.0578 26.7173 53.1485 26.68 53.2551 26.68H53.9911C54.0978 26.68 54.1885 26.7173 54.2631 26.792C54.3378 26.8667 54.3751 26.9573 54.3751 27.064V27.768C54.5885 27.4053 54.8818 27.1333 55.2551 26.952C55.6285 26.7707 56.0765 26.68 56.5991 26.68H57.2391C57.3458 26.68 57.4311 26.7173 57.4951 26.792C57.5591 26.856 57.5911 26.9413 57.5911 27.048V27.704C57.5911 27.8107 57.5591 27.896 57.4951 27.96C57.4311 28.024 57.3458 28.056 57.2391 28.056H56.2791C55.7031 28.056 55.2498 28.2267 54.9191 28.568C54.5885 28.8987 54.4231 29.352 54.4231 29.928V34.632C54.4231 34.7387 54.3858 34.8293 54.3111 34.904C54.2365 34.968 54.1458 35 54.0391 35H53.2551ZM65.3921 35.16C64.7948 35.16 64.2828 35.0853 63.8561 34.936C63.4295 34.7867 63.0828 34.6053 62.8161 34.392C62.5495 34.1787 62.3468 33.9653 62.2081 33.752C62.0801 33.5387 62.0108 33.368 62.0001 33.24C61.9895 33.1227 62.0268 33.032 62.1121 32.968C62.1975 32.904 62.2828 32.872 62.3681 32.872H63.0721C63.1361 32.872 63.1841 32.8827 63.2161 32.904C63.2588 32.9147 63.3121 32.9573 63.3761 33.032C63.5148 33.1813 63.6695 33.3307 63.8401 33.48C64.0108 33.6293 64.2188 33.752 64.4641 33.848C64.7201 33.944 65.0348 33.992 65.4081 33.992C65.9521 33.992 66.4001 33.8907 66.7521 33.688C67.1041 33.4747 67.2801 33.1653 67.2801 32.76C67.2801 32.4933 67.2055 32.28 67.0561 32.12C66.9175 31.96 66.6615 31.816 66.2881 31.688C65.9255 31.56 65.4241 31.4267 64.7841 31.288C64.1441 31.1387 63.6375 30.9573 63.2641 30.744C62.8908 30.52 62.6241 30.2587 62.4641 29.96C62.3041 29.6507 62.2241 29.304 62.2241 28.92C62.2241 28.5253 62.3415 28.1467 62.5761 27.784C62.8108 27.4107 63.1521 27.1067 63.6001 26.872C64.0588 26.6373 64.6295 26.52 65.3121 26.52C65.8668 26.52 66.3415 26.5893 66.7361 26.728C67.1308 26.8667 67.4561 27.0427 67.7121 27.256C67.9681 27.4587 68.1601 27.6613 68.2881 27.864C68.4161 28.0667 68.4855 28.2373 68.4961 28.376C68.5068 28.4827 68.4748 28.5733 68.4001 28.648C68.3255 28.712 68.2401 28.744 68.1441 28.744H67.4721C67.3975 28.744 67.3335 28.728 67.2801 28.696C67.2375 28.664 67.1948 28.6267 67.1521 28.584C67.0455 28.4453 66.9175 28.3067 66.7681 28.168C66.6295 28.0293 66.4428 27.9173 66.2081 27.832C65.9841 27.736 65.6855 27.688 65.3121 27.688C64.7788 27.688 64.3788 27.8 64.1121 28.024C63.8455 28.248 63.7121 28.5307 63.7121 28.872C63.7121 29.0747 63.7708 29.256 63.8881 29.416C64.0055 29.576 64.2295 29.72 64.5601 29.848C64.8908 29.976 65.3815 30.1147 66.0321 30.264C66.7361 30.4027 67.2908 30.5893 67.6961 30.824C68.1015 31.0587 68.3895 31.3307 68.5601 31.64C68.7308 31.9493 68.8161 32.3067 68.8161 32.712C68.8161 33.16 68.6828 33.5707 68.4161 33.944C68.1601 34.3173 67.7761 34.616 67.2641 34.84C66.7628 35.0533 66.1388 35.16 65.3921 35.16ZM71.8431 38.04C71.7578 38.04 71.6831 38.008 71.6191 37.944C71.5551 37.88 71.5231 37.8053 71.5231 37.72C71.5231 37.6773 71.5285 37.6347 71.5391 37.592C71.5498 37.5493 71.5711 37.496 71.6031 37.432L72.8351 34.504L69.7791 27.288C69.7258 27.16 69.6991 27.0693 69.6991 27.016C69.6991 26.92 69.7311 26.84 69.7951 26.776C69.8591 26.712 69.9391 26.68 70.0351 26.68H70.8191C70.9258 26.68 71.0111 26.7067 71.0751 26.76C71.1391 26.8133 71.1818 26.8773 71.2031 26.952L73.6351 32.776L76.1311 26.952C76.1631 26.8773 76.2058 26.8133 76.2591 26.76C76.3231 26.7067 76.4138 26.68 76.5311 26.68H77.2831C77.3791 26.68 77.4591 26.712 77.5231 26.776C77.5871 26.84 77.6191 26.9147 77.6191 27C77.6191 27.0533 77.5925 27.1493 77.5391 27.288L72.9951 37.768C72.9631 37.8427 72.9151 37.9067 72.8511 37.96C72.7978 38.0133 72.7125 38.04 72.5951 38.04H71.8431ZM79.5676 35C79.461 35 79.3703 34.968 79.2956 34.904C79.2316 34.8293 79.1996 34.7387 79.1996 34.632V27.064C79.1996 26.9573 79.2316 26.8667 79.2956 26.792C79.3703 26.7173 79.461 26.68 79.5676 26.68H80.3036C80.4103 26.68 80.501 26.7173 80.5756 26.792C80.6503 26.8667 80.6876 26.9573 80.6876 27.064V27.768C80.901 27.4053 81.1943 27.1333 81.5676 26.952C81.941 26.7707 82.389 26.68 82.9116 26.68H83.5516C83.6583 26.68 83.7436 26.7173 83.8076 26.792C83.8716 26.856 83.9036 26.9413 83.9036 27.048V27.704C83.9036 27.8107 83.8716 27.896 83.8076 27.96C83.7436 28.024 83.6583 28.056 83.5516 28.056H82.5916C82.0156 28.056 81.5623 28.2267 81.2316 28.568C80.901 28.8987 80.7356 29.352 80.7356 29.928V34.632C80.7356 34.7387 80.6983 34.8293 80.6236 34.904C80.549 34.968 80.4583 35 80.3516 35H79.5676ZM88.3818 35.16C87.6991 35.16 87.1178 35.0107 86.6378 34.712C86.1684 34.4027 85.8111 33.976 85.5658 33.432C85.3204 32.888 85.1978 32.264 85.1978 31.56V27.048C85.1978 26.9413 85.2298 26.856 85.2938 26.792C85.3684 26.7173 85.4591 26.68 85.5658 26.68H86.3658C86.4724 26.68 86.5578 26.7173 86.6218 26.792C86.6964 26.856 86.7338 26.9413 86.7338 27.048V31.48C86.7338 33.0693 87.4271 33.864 88.8138 33.864C89.4751 33.864 90.0031 33.656 90.3978 33.24C90.8031 32.8133 91.0058 32.2267 91.0058 31.48V27.048C91.0058 26.9413 91.0378 26.856 91.1018 26.792C91.1764 26.7173 91.2671 26.68 91.3738 26.68H92.1578C92.2751 26.68 92.3658 26.7173 92.4298 26.792C92.4938 26.856 92.5258 26.9413 92.5258 27.048V34.632C92.5258 34.7387 92.4938 34.8293 92.4298 34.904C92.3658 34.968 92.2751 35 92.1578 35H91.4218C91.3151 35 91.2244 34.968 91.1498 34.904C91.0858 34.8293 91.0538 34.7387 91.0538 34.632V33.928C90.7658 34.3013 90.4138 34.6 89.9978 34.824C89.5924 35.048 89.0538 35.16 88.3818 35.16ZM95.2868 38.04C95.1801 38.04 95.0894 38.0027 95.0148 37.928C94.9508 37.864 94.9188 37.7787 94.9188 37.672V27.048C94.9188 26.9413 94.9508 26.856 95.0148 26.792C95.0894 26.7173 95.1801 26.68 95.2868 26.68H96.0228C96.1294 26.68 96.2148 26.7173 96.2788 26.792C96.3534 26.856 96.3908 26.9413 96.3908 27.048V27.752C96.6468 27.4 96.9881 27.1067 97.4148 26.872C97.8414 26.6373 98.3748 26.52 99.0148 26.52C99.6121 26.52 100.119 26.6213 100.535 26.824C100.961 27.0267 101.308 27.304 101.575 27.656C101.852 28.008 102.06 28.408 102.199 28.856C102.337 29.304 102.412 29.784 102.423 30.296C102.433 30.4667 102.439 30.648 102.439 30.84C102.439 31.032 102.433 31.2133 102.423 31.384C102.412 31.8853 102.337 32.3653 102.199 32.824C102.06 33.272 101.852 33.672 101.575 34.024C101.308 34.3653 100.961 34.6427 100.535 34.856C100.119 35.0587 99.6121 35.16 99.0148 35.16C98.3961 35.16 97.8734 35.048 97.4468 34.824C97.0308 34.5893 96.6894 34.3013 96.4228 33.96V37.672C96.4228 37.7787 96.3908 37.864 96.3268 37.928C96.2628 38.0027 96.1721 38.04 96.0548 38.04H95.2868ZM98.6788 33.864C99.2334 33.864 99.6654 33.7467 99.9748 33.512C100.295 33.2667 100.524 32.952 100.663 32.568C100.801 32.1733 100.881 31.752 100.903 31.304C100.913 30.9947 100.913 30.6853 100.903 30.376C100.881 29.928 100.801 29.512 100.663 29.128C100.524 28.7333 100.295 28.4187 99.9748 28.184C99.6654 27.9387 99.2334 27.816 98.6788 27.816C98.1561 27.816 97.7294 27.9387 97.3988 28.184C97.0788 28.4293 96.8388 28.744 96.6788 29.128C96.5294 29.5013 96.4441 29.8853 96.4228 30.28C96.4121 30.4507 96.4068 30.6533 96.4068 30.888C96.4068 31.1227 96.4121 31.3307 96.4228 31.512C96.4334 31.8853 96.5188 32.2533 96.6788 32.616C96.8494 32.9787 97.1001 33.2773 97.4308 33.512C97.7614 33.7467 98.1774 33.864 98.6788 33.864Z" fill="white"/>
<path d="M26.7339 72C26.5739 72 26.4299 71.944 26.3019 71.832C26.1899 71.72 26.1339 71.576 26.1339 71.4V59.472L22.6779 62.136C22.5339 62.248 22.3819 62.288 22.2219 62.256C22.0779 62.224 21.9499 62.136 21.8379 61.992L20.6379 60.432C20.5419 60.288 20.5019 60.136 20.5179 59.976C20.5499 59.816 20.6379 59.688 20.7819 59.592L26.2539 55.368C26.3499 55.304 26.4379 55.264 26.5179 55.248C26.6139 55.216 26.7179 55.2 26.8299 55.2H29.3739C29.5339 55.2 29.6699 55.256 29.7819 55.368C29.8939 55.48 29.9499 55.624 29.9499 55.8V71.4C29.9499 71.576 29.8939 71.72 29.7819 71.832C29.6699 71.944 29.5339 72 29.3739 72H26.7339ZM39.5623 72.24C38.4423 72.24 37.4503 72.112 36.5863 71.856C35.7383 71.584 35.0263 71.216 34.4503 70.752C33.8743 70.272 33.4423 69.72 33.1543 69.096C32.8663 68.456 32.7223 67.76 32.7223 67.008C32.7223 66.096 32.9463 65.304 33.3943 64.632C33.8423 63.96 34.4103 63.44 35.0983 63.072C34.5383 62.704 34.0983 62.24 33.7783 61.68C33.4743 61.104 33.3223 60.44 33.3223 59.688C33.3223 58.776 33.5543 57.968 34.0183 57.264C34.4823 56.56 35.1703 56 36.0823 55.584C37.0103 55.168 38.1703 54.96 39.5623 54.96C40.9383 54.96 42.0823 55.168 42.9943 55.584C43.9063 55.984 44.5943 56.536 45.0583 57.24C45.5223 57.944 45.7543 58.752 45.7543 59.664C45.7543 60.416 45.6023 61.08 45.2983 61.656C44.9943 62.232 44.5623 62.704 44.0023 63.072C44.7383 63.424 45.3223 63.944 45.7543 64.632C46.1863 65.32 46.4023 66.12 46.4023 67.032C46.4023 68.024 46.1463 68.912 45.6343 69.696C45.1223 70.48 44.3543 71.104 43.3303 71.568C42.3063 72.016 41.0503 72.24 39.5623 72.24ZM39.5623 69.48C40.1223 69.48 40.6343 69.384 41.0983 69.192C41.5623 68.984 41.9223 68.696 42.1783 68.328C42.4503 67.96 42.5863 67.528 42.5863 67.032C42.5863 66.52 42.4503 66.088 42.1783 65.736C41.9223 65.368 41.5623 65.088 41.0983 64.896C40.6343 64.688 40.1223 64.584 39.5623 64.584C38.9863 64.584 38.4663 64.688 38.0023 64.896C37.5543 65.088 37.1943 65.368 36.9223 65.736C36.6503 66.088 36.5143 66.52 36.5143 67.032C36.5143 67.528 36.6503 67.96 36.9223 68.328C37.1943 68.696 37.5543 68.984 38.0023 69.192C38.4663 69.384 38.9863 69.48 39.5623 69.48ZM39.5623 61.968C40.0583 61.952 40.5063 61.856 40.9063 61.68C41.3063 61.504 41.6263 61.264 41.8663 60.96C42.1063 60.64 42.2263 60.272 42.2263 59.856C42.2263 59.424 42.1063 59.056 41.8663 58.752C41.6423 58.432 41.3303 58.184 40.9303 58.008C40.5303 57.832 40.0743 57.744 39.5623 57.744C39.0503 57.744 38.5863 57.832 38.1703 58.008C37.7703 58.184 37.4583 58.432 37.2343 58.752C37.0103 59.056 36.8983 59.424 36.8983 59.856C36.8983 60.288 37.0103 60.664 37.2343 60.984C37.4583 61.288 37.7703 61.528 38.1703 61.704C38.5863 61.88 39.0503 61.968 39.5623 61.968ZM55.5707 72.24C54.4187 72.24 53.4267 72.08 52.5947 71.76C51.7787 71.424 51.0987 70.968 50.5547 70.392C50.0267 69.8 49.6267 69.12 49.3547 68.352C49.0987 67.568 48.9467 66.736 48.8987 65.856C48.8827 65.424 48.8667 64.944 48.8507 64.416C48.8507 63.872 48.8507 63.328 48.8507 62.784C48.8667 62.24 48.8827 61.744 48.8987 61.296C48.9307 60.416 49.0827 59.592 49.3547 58.824C49.6427 58.056 50.0587 57.384 50.6027 56.808C51.1467 56.232 51.8267 55.784 52.6427 55.464C53.4747 55.128 54.4507 54.96 55.5707 54.96C56.6907 54.96 57.6587 55.128 58.4747 55.464C59.2907 55.784 59.9707 56.232 60.5147 56.808C61.0587 57.384 61.4667 58.056 61.7387 58.824C62.0267 59.592 62.1947 60.416 62.2427 61.296C62.2587 61.744 62.2667 62.24 62.2667 62.784C62.2827 63.328 62.2827 63.872 62.2667 64.416C62.2667 64.944 62.2587 65.424 62.2427 65.856C62.1947 66.736 62.0347 67.568 61.7627 68.352C61.4907 69.12 61.0827 69.8 60.5387 70.392C60.0107 70.968 59.3307 71.424 58.4987 71.76C57.6827 72.08 56.7067 72.24 55.5707 72.24ZM55.5707 69.12C56.4987 69.12 57.1787 68.816 57.6107 68.208C58.0427 67.6 58.2747 66.776 58.3067 65.736C58.3227 65.272 58.3307 64.792 58.3307 64.296C58.3467 63.8 58.3467 63.304 58.3307 62.808C58.3307 62.312 58.3227 61.848 58.3067 61.416C58.2747 60.424 58.0427 59.616 57.6107 58.992C57.1787 58.368 56.4987 58.048 55.5707 58.032C54.6267 58.048 53.9387 58.368 53.5067 58.992C53.0907 59.616 52.8667 60.424 52.8347 61.416C52.8187 61.848 52.8027 62.312 52.7867 62.808C52.7867 63.304 52.7867 63.8 52.7867 64.296C52.8027 64.792 52.8187 65.272 52.8347 65.736C52.8667 66.776 53.0987 67.6 53.5307 68.208C53.9627 68.816 54.6427 69.12 55.5707 69.12ZM75.9388 72.24C74.7708 72.24 73.7388 72.024 72.8428 71.592C71.9628 71.16 71.2668 70.536 70.7548 69.72C70.2428 68.888 69.9628 67.896 69.9148 66.744C69.8988 66.488 69.8908 66.168 69.8908 65.784C69.8908 65.384 69.8988 65.056 69.9148 64.8C69.9628 63.632 70.2348 62.64 70.7308 61.824C71.2428 60.992 71.9468 60.36 72.8428 59.928C73.7388 59.496 74.7708 59.28 75.9388 59.28C77.0108 59.28 77.9228 59.432 78.6748 59.736C79.4268 60.024 80.0428 60.392 80.5228 60.84C81.0028 61.288 81.3548 61.76 81.5788 62.256C81.8188 62.736 81.9468 63.16 81.9628 63.528C81.9788 63.688 81.9228 63.832 81.7948 63.96C81.6828 64.072 81.5468 64.128 81.3868 64.128H78.8188C78.6588 64.128 78.5308 64.088 78.4348 64.008C78.3548 63.912 78.2748 63.784 78.1948 63.624C77.9708 63.064 77.6828 62.664 77.3308 62.424C76.9788 62.184 76.5388 62.064 76.0108 62.064C75.2908 62.064 74.7228 62.296 74.3068 62.76C73.8908 63.224 73.6668 63.944 73.6348 64.92C73.6188 65.544 73.6188 66.112 73.6348 66.624C73.6828 67.616 73.9068 68.336 74.3068 68.784C74.7228 69.232 75.2908 69.456 76.0108 69.456C76.5708 69.456 77.0188 69.336 77.3548 69.096C77.6908 68.856 77.9708 68.456 78.1948 67.896C78.2588 67.736 78.3388 67.616 78.4348 67.536C78.5308 67.44 78.6588 67.392 78.8188 67.392H81.3868C81.5468 67.392 81.6828 67.456 81.7948 67.584C81.9228 67.696 81.9788 67.832 81.9628 67.992C81.9468 68.264 81.8668 68.584 81.7228 68.952C81.5948 69.32 81.3788 69.696 81.0748 70.08C80.7868 70.464 80.4108 70.824 79.9468 71.16C79.4828 71.48 78.9148 71.744 78.2428 71.952C77.5868 72.144 76.8188 72.24 75.9388 72.24ZM85.1807 72C85.0047 72 84.8607 71.944 84.7487 71.832C84.6367 71.72 84.5807 71.576 84.5807 71.4V55.8C84.5807 55.624 84.6367 55.48 84.7487 55.368C84.8607 55.256 85.0047 55.2 85.1807 55.2H87.8447C88.0207 55.2 88.1647 55.256 88.2767 55.368C88.3887 55.48 88.4447 55.624 88.4447 55.8V68.784H95.8847C96.0607 68.784 96.2047 68.84 96.3167 68.952C96.4287 69.064 96.4847 69.208 96.4847 69.384V71.4C96.4847 71.576 96.4287 71.72 96.3167 71.832C96.2047 71.944 96.0607 72 95.8847 72H85.1807Z" fill="white"/>
<rect width="117" height="39" transform="translate(0 98)" fill="#C4585D"/>
<path d="M38.7832 123C38.6765 123 38.5859 122.968 38.5112 122.904C38.4472 122.829 38.4152 122.739 38.4152 122.632V113.672L35.7592 115.72C35.6739 115.784 35.5832 115.811 35.4872 115.8C35.3912 115.789 35.3112 115.741 35.2472 115.656L34.8312 115.128C34.7672 115.032 34.7405 114.936 34.7512 114.84C34.7725 114.744 34.8259 114.664 34.9112 114.6L38.3992 111.912C38.4739 111.859 38.5432 111.827 38.6072 111.816C38.6712 111.805 38.7405 111.8 38.8152 111.8H39.6312C39.7379 111.8 39.8232 111.837 39.8872 111.912C39.9512 111.976 39.9832 112.061 39.9832 112.168V122.632C39.9832 122.739 39.9512 122.829 39.8872 122.904C39.8232 122.968 39.7379 123 39.6312 123H38.7832ZM45.8829 123.16C45.0403 123.16 44.3256 123.016 43.7389 122.728C43.1629 122.429 42.7203 122.045 42.4109 121.576C42.1123 121.107 41.9523 120.611 41.9309 120.088C41.9203 119.992 41.9469 119.917 42.0109 119.864C42.0749 119.811 42.1549 119.784 42.2509 119.784H43.1149C43.2109 119.784 43.2963 119.805 43.3709 119.848C43.4456 119.891 43.5043 119.981 43.5469 120.12C43.6536 120.515 43.8243 120.84 44.0589 121.096C44.3043 121.341 44.5816 121.523 44.8909 121.64C45.2109 121.747 45.5416 121.8 45.8829 121.8C46.3416 121.8 46.7576 121.709 47.1309 121.528C47.5149 121.336 47.8189 121.059 48.0429 120.696C48.2669 120.323 48.3789 119.875 48.3789 119.352C48.3789 118.872 48.2669 118.461 48.0429 118.12C47.8296 117.768 47.5309 117.501 47.1469 117.32C46.7736 117.128 46.3523 117.032 45.8829 117.032C45.5309 117.032 45.2429 117.075 45.0189 117.16C44.7949 117.245 44.6029 117.347 44.4429 117.464C44.2936 117.581 44.1549 117.683 44.0269 117.768C43.9096 117.853 43.7763 117.896 43.6269 117.896H42.7949C42.6989 117.896 42.6136 117.864 42.5389 117.8C42.4643 117.725 42.4323 117.64 42.4429 117.544L42.9549 112.2C42.9656 112.072 43.0029 111.976 43.0669 111.912C43.1416 111.837 43.2376 111.8 43.3549 111.8H48.9389C49.0456 111.8 49.1309 111.837 49.1949 111.912C49.2696 111.976 49.3069 112.061 49.3069 112.168V112.792C49.3069 112.909 49.2696 113 49.1949 113.064C49.1309 113.128 49.0456 113.16 48.9389 113.16H44.3309L44.0269 116.312C44.1763 116.216 44.4163 116.104 44.7469 115.976C45.0776 115.837 45.5309 115.768 46.1069 115.768C46.6296 115.768 47.1203 115.848 47.5789 116.008C48.0483 116.168 48.4643 116.403 48.8269 116.712C49.1896 117.021 49.4723 117.4 49.6749 117.848C49.8776 118.285 49.9789 118.792 49.9789 119.368C49.9789 120.179 49.7976 120.867 49.4349 121.432C49.0829 121.997 48.5976 122.429 47.9789 122.728C47.3709 123.016 46.6723 123.16 45.8829 123.16ZM55.7829 123.16C55.0469 123.16 54.4229 123.048 53.9109 122.824C53.4096 122.589 52.9989 122.269 52.6789 121.864C52.3589 121.459 52.1243 120.995 51.9749 120.472C51.8363 119.949 51.7563 119.395 51.7349 118.808C51.7243 118.52 51.7136 118.216 51.7029 117.896C51.7029 117.576 51.7029 117.256 51.7029 116.936C51.7136 116.605 51.7243 116.291 51.7349 115.992C51.7456 115.405 51.8256 114.851 51.9749 114.328C52.1349 113.795 52.3696 113.331 52.6789 112.936C52.9989 112.531 53.4149 112.216 53.9269 111.992C54.4389 111.757 55.0576 111.64 55.7829 111.64C56.5189 111.64 57.1376 111.757 57.6389 111.992C58.1509 112.216 58.5669 112.531 58.8869 112.936C59.2069 113.331 59.4416 113.795 59.5909 114.328C59.7509 114.851 59.8363 115.405 59.8469 115.992C59.8576 116.291 59.8629 116.605 59.8629 116.936C59.8736 117.256 59.8736 117.576 59.8629 117.896C59.8629 118.216 59.8576 118.52 59.8469 118.808C59.8363 119.395 59.7509 119.949 59.5909 120.472C59.4416 120.995 59.2069 121.459 58.8869 121.864C58.5776 122.269 58.1669 122.589 57.6549 122.824C57.1536 123.048 56.5296 123.16 55.7829 123.16ZM55.7829 121.8C56.6149 121.8 57.2283 121.528 57.6229 120.984C58.0283 120.429 58.2363 119.677 58.2469 118.728C58.2683 118.419 58.2789 118.12 58.2789 117.832C58.2789 117.533 58.2789 117.24 58.2789 116.952C58.2789 116.653 58.2683 116.36 58.2469 116.072C58.2363 115.144 58.0283 114.403 57.6229 113.848C57.2283 113.283 56.6149 113 55.7829 113C54.9616 113 54.3483 113.283 53.9429 113.848C53.5483 114.403 53.3403 115.144 53.3189 116.072C53.3189 116.36 53.3136 116.653 53.3029 116.952C53.3029 117.24 53.3029 117.533 53.3029 117.832C53.3136 118.12 53.3189 118.419 53.3189 118.728C53.3403 119.677 53.5536 120.429 53.9589 120.984C54.3643 121.528 54.9723 121.8 55.7829 121.8ZM69.3331 123.16C68.5757 123.16 67.9197 123.016 67.3651 122.728C66.8211 122.429 66.3997 122.008 66.1011 121.464C65.8024 120.909 65.6424 120.248 65.6211 119.48C65.6104 119.32 65.6051 119.107 65.6051 118.84C65.6051 118.573 65.6104 118.36 65.6211 118.2C65.6424 117.432 65.8024 116.776 66.1011 116.232C66.3997 115.677 66.8211 115.256 67.3651 114.968C67.9197 114.669 68.5757 114.52 69.3331 114.52C69.9517 114.52 70.4797 114.605 70.9171 114.776C71.3651 114.947 71.7331 115.165 72.0211 115.432C72.3091 115.699 72.5224 115.987 72.6611 116.296C72.8104 116.605 72.8904 116.899 72.9011 117.176C72.9117 117.283 72.8797 117.368 72.8051 117.432C72.7304 117.496 72.6397 117.528 72.5331 117.528H71.7651C71.6584 117.528 71.5784 117.507 71.5251 117.464C71.4717 117.411 71.4184 117.325 71.3651 117.208C71.1731 116.685 70.9117 116.317 70.5811 116.104C70.2504 115.891 69.8397 115.784 69.3491 115.784C68.7091 115.784 68.1864 115.981 67.7811 116.376C67.3864 116.771 67.1731 117.405 67.1411 118.28C67.1304 118.664 67.1304 119.037 67.1411 119.4C67.1731 120.285 67.3864 120.925 67.7811 121.32C68.1864 121.704 68.7091 121.896 69.3491 121.896C69.8397 121.896 70.2504 121.789 70.5811 121.576C70.9117 121.363 71.1731 120.995 71.3651 120.472C71.4184 120.355 71.4717 120.275 71.5251 120.232C71.5784 120.179 71.6584 120.152 71.7651 120.152H72.5331C72.6397 120.152 72.7304 120.184 72.8051 120.248C72.8797 120.312 72.9117 120.397 72.9011 120.504C72.8904 120.728 72.8424 120.957 72.7571 121.192C72.6717 121.427 72.5331 121.667 72.3411 121.912C72.1597 122.147 71.9304 122.36 71.6531 122.552C71.3757 122.733 71.0397 122.883 70.6451 123C70.2611 123.107 69.8237 123.16 69.3331 123.16ZM75.3772 123C75.2599 123 75.1692 122.968 75.1052 122.904C75.0412 122.829 75.0092 122.739 75.0092 122.632V112.168C75.0092 112.061 75.0412 111.976 75.1052 111.912C75.1692 111.837 75.2599 111.8 75.3772 111.8H76.2252C76.3319 111.8 76.4172 111.837 76.4812 111.912C76.5452 111.976 76.5772 112.061 76.5772 112.168V121.608H81.9052C82.0225 121.608 82.1132 121.645 82.1772 121.72C82.2412 121.784 82.2732 121.875 82.2732 121.992V122.632C82.2732 122.739 82.2412 122.829 82.1772 122.904C82.1132 122.968 82.0225 123 81.9052 123H75.3772Z" fill="white"/>
</svg>
